{"glyphs":{"0":{"ha":811,"x_min":72,"x_max":739,"o":"m 406 -28 q 72 458 72 -28 q 406 944 72 944 q 739 458 739 944 q 406 -28 739 -28 m 406 28 q 523 74 481 28 q 583 213 565 119 q 600 458 600 307 q 583 703 600 610 q 523 843 565 797 q 406 889 481 889 q 288 843 331 889 q 228 703 246 797 q 211 458 211 610 q 228 213 211 307 q 288 74 246 119 q 406 28 331 28 z "},"1":{"ha":424,"x_min":19,"x_max":304,"o":"m 179 778 l 44 690 l 19 722 l 235 917 l 304 917 l 304 0 l 179 0 l 179 778 z "},"2":{"ha":736,"x_min":57,"x_max":668,"o":"m 57 69 q 169 176 131 140 q 371 378 307 308 q 472 521 435 447 q 508 681 508 594 q 456 835 508 781 q 328 889 404 889 q 181 828 243 889 q 99 653 119 767 l 71 653 q 76 763 71 722 q 104 833 82 804 q 216 913 143 881 q 369 944 289 944 q 563 887 479 944 q 647 681 647 829 q 606 517 647 593 q 501 374 565 440 q 318 204 436 308 q 154 56 196 94 l 467 56 q 596 92 551 56 q 640 201 640 128 l 668 201 l 668 111 q 550 0 668 0 l 57 0 l 57 69 z "},"3":{"ha":736,"x_min":56,"x_max":682,"o":"m 369 -28 q 194 10 269 -28 q 56 121 118 49 l 78 146 q 194 57 132 86 q 335 28 257 28 q 484 85 425 28 q 543 257 543 143 q 517 375 543 326 q 449 448 490 424 q 363 472 407 472 q 276 468 304 472 q 196 451 249 464 l 160 510 l 536 861 l 279 861 q 150 825 194 861 q 106 715 106 789 l 78 715 l 78 806 q 196 917 78 917 l 638 917 l 638 861 l 265 514 q 390 528 319 528 q 513 505 446 528 q 631 422 579 482 q 682 257 682 361 q 630 82 682 146 q 507 -5 578 18 q 369 -28 436 -28 z "},"4":{"ha":758,"x_min":25,"x_max":719,"o":"m 469 236 l 25 236 l 25 292 l 483 917 l 594 917 l 594 292 l 719 292 l 719 236 l 594 236 l 594 0 l 469 0 l 469 236 m 469 292 l 469 783 l 108 292 l 469 292 z "},"5":{"ha":736,"x_min":58,"x_max":683,"o":"m 357 -28 q 189 8 258 -28 q 58 118 119 44 l 85 142 q 199 56 138 83 q 336 28 260 28 q 485 85 426 28 q 544 257 544 143 q 487 418 544 364 q 322 472 429 472 q 149 458 254 472 l 93 514 l 107 917 l 628 917 l 628 861 l 221 861 l 208 521 l 253 524 q 350 528 332 528 q 583 467 483 528 q 683 257 683 407 q 630 84 683 147 q 503 -3 576 21 q 357 -28 429 -28 z "},"6":{"ha":746,"x_min":72,"x_max":690,"o":"m 392 -28 q 150 93 228 -28 q 72 458 72 214 q 158 823 72 701 q 419 944 243 944 q 635 903 524 944 l 628 875 q 447 889 542 889 q 265 795 325 889 q 204 535 204 701 q 295 581 246 564 q 413 597 344 597 q 622 515 554 597 q 690 285 690 432 q 657 131 690 201 q 556 16 624 60 q 392 -28 488 -28 m 392 28 q 513 104 468 28 q 558 285 558 181 q 371 542 558 542 q 282 524 321 542 q 204 472 243 507 q 254 135 204 243 q 392 28 304 28 z "},"7":{"ha":658,"x_min":36,"x_max":640,"o":"m 515 861 l 238 861 q 108 825 153 861 q 64 715 64 789 l 36 715 l 36 806 q 154 917 36 917 l 640 917 l 640 861 l 293 0 l 168 0 l 515 861 z "},"8":{"ha":769,"x_min":65,"x_max":704,"o":"m 385 -28 q 156 31 246 -28 q 65 208 65 90 q 126 362 65 303 q 288 465 186 421 q 149 572 197 518 q 100 708 100 625 q 178 890 100 835 q 385 944 257 944 q 590 892 511 944 q 669 722 669 839 q 621 588 669 646 q 496 493 572 531 q 605 419 563 453 q 676 338 647 386 q 704 222 704 289 q 615 33 704 94 q 385 -28 525 -28 m 433 528 q 510 608 483 564 q 538 722 538 651 q 493 851 538 813 q 385 889 449 889 q 277 853 322 889 q 232 736 232 817 q 433 528 232 622 m 385 28 q 517 72 463 28 q 572 194 572 115 q 543 293 572 250 q 469 367 514 336 q 350 438 424 399 q 238 351 278 401 q 197 208 197 300 q 251 74 197 119 q 385 28 306 28 z "},"9":{"ha":744,"x_min":54,"x_max":672,"o":"m 325 -28 q 110 14 221 -28 l 117 42 q 297 28 203 28 q 480 122 419 28 q 540 382 540 215 q 449 336 499 353 q 332 319 400 319 q 122 402 190 319 q 54 632 54 485 q 88 786 54 715 q 189 901 121 857 q 353 944 257 944 q 594 823 517 944 q 672 458 672 701 q 587 94 672 215 q 325 -28 501 -28 m 374 375 q 463 392 424 375 q 540 444 501 410 q 490 781 540 674 q 353 889 440 889 q 231 813 276 889 q 186 632 186 736 q 374 375 186 375 z "}," ":{"ha":347,"x_min":0,"x_max":0,"o":""},"!":{"ha":325,"x_min":88,"x_max":238,"o":"m 97 917 l 228 917 l 203 215 l 122 215 l 97 917 m 163 -19 q 110 3 132 -19 q 88 57 88 25 q 110 109 88 88 q 163 131 132 131 q 215 109 193 131 q 238 57 238 88 q 215 3 238 25 q 163 -19 193 -19 z "},"\"":{"ha":508,"x_min":74,"x_max":435,"o":"m 74 917 l 213 917 l 171 542 l 115 542 l 74 917 m 296 917 l 435 917 l 393 542 l 338 542 l 296 917 z "},"#":{"ha":928,"x_min":43,"x_max":883,"o":"m 224 243 l 43 243 l 43 326 l 243 326 l 293 576 l 126 576 l 126 660 l 311 660 l 369 938 l 460 938 l 401 660 l 603 660 l 661 938 l 751 938 l 693 660 l 883 660 l 883 576 l 675 576 l 624 326 l 800 326 l 800 243 l 606 243 l 557 0 l 467 0 l 515 243 l 314 243 l 265 0 l 175 0 l 224 243 m 535 326 l 585 576 l 383 576 l 332 326 l 535 326 z "},"$":{"ha":731,"x_min":68,"x_max":674,"o":"m 328 -21 q 144 36 219 -8 q 68 146 68 81 l 68 294 l 93 294 q 172 108 114 171 q 328 33 229 44 l 328 408 l 231 467 q 105 574 142 519 q 68 706 68 628 q 140 874 68 810 q 328 942 211 939 l 328 1021 l 383 1021 l 383 939 q 561 885 485 929 q 638 775 638 840 l 638 626 l 613 626 q 536 811 592 750 q 383 883 481 872 l 383 532 l 501 463 q 635 357 596 406 q 674 233 674 308 q 597 46 674 115 q 383 -24 519 -24 l 383 -111 l 328 -111 l 328 -21 m 328 886 q 221 844 265 883 q 176 746 176 806 q 210 652 176 689 q 328 565 244 615 l 328 886 m 383 32 q 505 72 456 35 q 554 174 554 110 q 516 277 554 235 q 383 375 478 319 l 383 32 z "},"%":{"ha":936,"x_min":44,"x_max":892,"o":"m 246 549 q 98 598 151 549 q 44 736 44 647 q 98 874 44 825 q 246 924 151 924 q 394 874 340 924 q 447 736 447 825 q 394 598 447 647 q 246 549 340 549 m 732 917 l 836 917 l 204 0 l 100 0 l 732 917 m 246 597 q 364 736 364 597 q 246 875 364 875 q 128 736 128 875 q 246 597 128 597 m 690 -7 q 542 42 596 -7 q 489 181 489 92 q 542 319 489 269 q 690 368 596 368 q 838 319 785 368 q 892 181 892 269 q 838 42 892 92 q 690 -7 785 -7 m 690 42 q 808 181 808 42 q 690 319 808 319 q 572 181 572 319 q 690 42 572 42 z "},"&":{"ha":856,"x_min":58,"x_max":822,"o":"m 350 -28 q 134 34 210 -28 q 58 194 58 96 q 85 292 58 249 q 148 368 111 336 q 257 453 185 400 q 114 728 114 581 q 181 886 114 828 q 364 944 249 944 q 532 890 471 944 q 593 750 593 836 q 567 641 593 689 q 499 556 540 593 q 390 472 457 518 l 669 167 q 761 285 719 221 q 794 340 782 318 l 822 319 q 792 261 807 288 q 699 135 750 190 l 822 0 l 669 0 l 614 60 q 350 -28 497 -28 m 347 521 q 442 623 410 574 q 475 736 475 672 q 441 856 475 817 q 364 896 407 896 q 281 856 315 896 q 246 728 246 815 q 267 634 246 679 q 313 558 288 589 q 347 521 338 528 m 376 21 q 585 92 493 21 l 299 404 q 218 313 246 358 q 190 208 190 267 q 376 21 190 21 z "},"'":{"ha":286,"x_min":74,"x_max":213,"o":"m 74 917 l 213 917 l 171 542 l 115 542 l 74 917 z "},"(":{"ha":429,"x_min":47,"x_max":408,"o":"m 394 -292 q 133 -13 219 -160 q 47 333 47 133 q 133 680 47 533 q 394 958 219 826 l 408 938 q 172 333 172 731 q 408 -271 172 -64 l 394 -292 z "},")":{"ha":429,"x_min":21,"x_max":382,"o":"m 21 -271 q 257 333 257 -64 q 21 938 257 731 l 35 958 q 296 680 210 826 q 382 333 382 533 q 296 -13 382 133 q 35 -292 210 -160 l 21 -271 z "},"*":{"ha":589,"x_min":65,"x_max":524,"o":"m 281 667 l 121 521 l 65 618 l 267 688 l 65 757 l 121 854 l 281 708 l 239 917 l 350 917 l 308 708 l 468 854 l 524 757 l 322 688 l 524 618 l 468 521 l 308 667 l 350 458 l 239 458 l 281 667 z "},"+":{"ha":736,"x_min":49,"x_max":688,"o":"m 326 417 l 49 417 l 49 500 l 326 500 l 326 778 l 410 778 l 410 500 l 688 500 l 688 417 l 410 417 l 410 139 l 326 139 l 326 417 z "},",":{"ha":329,"x_min":78,"x_max":251,"o":"m 85 -194 q 168 -112 140 -157 q 196 -7 196 -67 q 154 -21 175 -21 q 100 1 122 -21 q 78 56 78 24 q 101 115 78 92 q 161 139 125 139 q 227 113 203 139 q 251 42 251 88 q 99 -215 251 -129 l 85 -194 z "},"-":{"ha":538,"x_min":92,"x_max":446,"o":"m 92 417 l 446 417 l 446 319 l 92 319 l 92 417 z "},".":{"ha":306,"x_min":78,"x_max":228,"o":"m 153 -19 q 100 3 122 -19 q 78 57 78 25 q 100 110 78 88 q 153 132 122 132 q 206 110 185 132 q 228 57 228 88 q 206 3 228 25 q 153 -19 183 -19 z "},"/":{"ha":611,"x_min":32,"x_max":579,"o":"m 478 917 l 579 917 l 133 0 l 32 0 l 478 917 z "},":":{"ha":335,"x_min":92,"x_max":243,"o":"m 168 490 q 115 512 138 490 q 93 565 93 533 q 115 618 93 596 q 168 640 138 640 q 222 618 200 640 q 243 565 243 596 q 222 512 243 533 q 168 490 200 490 m 167 -19 q 114 3 136 -19 q 92 57 92 25 q 114 110 92 88 q 167 132 136 132 q 221 110 199 132 q 243 57 243 88 q 221 3 243 25 q 167 -19 199 -19 z "},";":{"ha":358,"x_min":90,"x_max":264,"o":"m 182 492 q 129 514 151 492 q 107 568 107 536 q 129 621 107 599 q 182 643 151 643 q 235 621 214 643 q 257 568 257 599 q 235 514 257 536 q 182 492 213 492 m 97 -194 q 181 -112 153 -157 q 208 -7 208 -67 q 167 -21 188 -21 q 113 1 135 -21 q 90 56 90 24 q 114 115 90 92 q 174 139 138 139 q 240 113 215 139 q 264 42 264 88 q 111 -215 264 -129 l 97 -194 z "},"<":{"ha":858,"x_min":42,"x_max":764,"o":"m 42 444 l 42 486 l 764 799 l 764 715 l 185 465 l 764 215 l 764 132 l 42 444 z "},"=":{"ha":913,"x_min":92,"x_max":821,"o":"m 92 625 l 821 625 l 821 542 l 92 542 l 92 625 m 92 375 l 821 375 l 821 292 l 92 292 l 92 375 z "},">":{"ha":858,"x_min":94,"x_max":817,"o":"m 94 215 l 674 465 l 94 715 l 94 799 l 817 486 l 817 444 l 94 132 l 94 215 z "},"?":{"ha":664,"x_min":42,"x_max":619,"o":"m 286 217 q 313 346 288 294 q 388 460 339 397 q 458 566 435 519 q 481 681 481 613 q 428 835 481 781 q 300 889 376 889 q 152 827 214 889 q 69 653 90 765 l 42 653 q 47 763 42 722 q 76 833 53 804 q 188 913 115 881 q 342 944 261 944 q 535 887 451 944 q 619 681 619 829 q 599 576 619 622 q 549 497 578 531 q 469 417 519 464 q 375 318 407 361 q 342 217 343 275 l 286 217 m 314 -18 q 260 4 282 -18 q 239 57 239 26 q 260 111 239 89 q 314 133 282 133 q 368 111 346 133 q 390 57 390 89 q 367 4 390 26 q 314 -18 344 -18 z "},"@":{"ha":1189,"x_min":56,"x_max":1139,"o":"m 597 -250 q 314 -181 436 -250 q 124 22 192 -112 q 56 347 56 157 q 124 672 56 538 q 314 876 192 807 q 597 944 436 944 q 880 877 757 944 q 1071 681 1003 810 q 1139 375 1139 553 q 1072 105 1139 203 q 868 7 1004 7 q 722 83 756 7 l 715 83 q 642 29 690 51 q 521 7 593 7 q 431 26 476 7 q 352 88 385 44 q 319 201 319 131 q 417 351 319 307 q 674 396 515 396 l 715 396 q 678 581 715 531 q 569 632 640 632 q 469 606 507 632 q 417 514 432 579 l 354 514 q 360 588 354 561 q 389 639 365 615 q 472 676 414 664 q 597 688 529 688 q 775 627 710 688 q 840 396 840 567 l 840 146 q 858 87 840 111 q 910 63 875 63 q 995 101 956 63 q 1059 210 1035 139 q 1083 375 1083 281 q 1024 654 1083 539 q 854 829 964 769 q 597 889 744 889 q 340 828 449 889 q 171 645 231 767 q 111 347 111 524 q 171 49 111 171 q 340 -133 231 -72 q 597 -194 449 -194 q 838 -165 732 -194 q 1028 -76 943 -136 l 1056 -118 q 597 -250 867 -250 m 583 69 q 660 92 629 69 q 715 153 690 114 l 715 340 l 674 340 q 511 302 571 340 q 451 201 451 264 q 490 103 451 138 q 583 69 528 69 z "},"A":{"ha":882,"x_min":31,"x_max":919,"o":"m 864 -7 q 732 30 797 -7 q 628 174 667 67 l 593 264 l 204 264 l 93 0 l 31 0 l 419 917 l 461 917 l 767 174 q 832 63 801 93 q 919 28 863 33 l 919 0 q 864 -7 894 -7 m 565 319 l 399 722 l 225 319 l 565 319 z "},"B":{"ha":864,"x_min":22,"x_max":807,"o":"m 147 750 q 128 855 147 821 q 50 889 108 889 l 22 889 l 22 917 l 383 917 q 647 867 535 917 q 758 674 758 817 q 714 556 758 608 q 578 472 669 503 q 756 397 706 451 q 807 250 807 342 q 697 55 807 110 q 425 0 586 0 l 147 0 l 147 750 m 404 493 q 512 515 461 493 q 594 578 563 536 q 626 681 626 621 q 589 785 626 743 q 494 848 551 828 q 376 868 436 868 q 272 854 328 868 l 272 493 l 404 493 m 404 49 q 599 99 531 49 q 668 243 668 149 q 601 388 668 338 q 404 438 533 438 l 272 438 l 272 68 q 404 49 339 49 z "},"C":{"ha":924,"x_min":61,"x_max":874,"o":"m 492 -28 q 265 35 363 -28 q 114 205 167 97 q 61 444 61 313 q 119 696 61 581 q 276 878 176 811 q 492 944 375 944 q 687 913 603 944 q 811 833 771 882 q 840 756 835 804 q 846 625 846 708 l 818 625 q 721 824 792 760 q 533 889 650 889 q 292 783 383 889 q 200 444 200 678 q 235 240 200 335 q 346 87 271 146 q 533 28 421 28 q 710 76 635 28 q 846 222 786 125 l 874 201 q 716 24 810 76 q 492 -28 622 -28 z "},"D":{"ha":993,"x_min":22,"x_max":932,"o":"m 147 750 q 128 855 147 821 q 50 889 108 889 l 22 889 l 22 917 l 386 917 q 794 797 656 917 q 932 464 932 678 q 874 222 932 326 q 701 58 815 117 q 422 0 586 0 l 147 0 l 147 750 m 418 49 q 603 99 521 49 q 733 242 686 150 q 781 458 781 335 q 734 672 781 579 q 604 817 688 765 q 415 868 521 868 q 276 846 349 868 l 276 67 q 418 49 354 49 z "},"E":{"ha":819,"x_min":22,"x_max":779,"o":"m 147 750 q 128 855 147 821 q 50 889 108 889 l 22 889 l 22 917 l 614 917 q 732 806 732 917 l 732 701 l 704 701 q 531 861 704 861 l 272 861 l 272 500 l 647 500 l 647 444 l 272 444 l 272 56 l 515 56 q 665 90 611 56 q 751 208 719 125 l 779 201 l 731 69 q 626 0 706 0 l 147 0 l 147 750 z "},"F":{"ha":732,"x_min":22,"x_max":694,"o":"m 147 750 q 128 855 147 821 q 50 889 108 889 l 22 889 l 22 917 l 576 917 q 694 806 694 917 l 694 701 l 667 701 q 493 861 667 861 l 272 861 l 272 493 l 586 493 l 586 438 l 272 438 l 272 0 l 147 0 l 147 750 z "},"G":{"ha":1000,"x_min":61,"x_max":978,"o":"m 533 -28 q 290 39 397 -28 q 122 220 182 106 q 61 472 61 335 q 114 712 61 604 q 265 882 167 819 q 492 944 363 944 q 698 913 611 944 q 825 833 785 882 q 853 760 847 806 q 860 646 860 714 l 832 646 q 732 828 806 768 q 533 889 658 889 q 346 830 421 889 q 235 676 271 771 q 200 472 200 582 q 292 133 200 238 q 533 28 383 28 q 654 40 604 28 q 749 76 704 53 l 749 318 q 764 400 749 365 q 830 458 779 435 q 978 481 881 481 l 978 453 q 894 421 915 453 q 874 321 874 389 l 874 60 q 717 -7 799 14 q 533 -28 635 -28 z "},"H":{"ha":963,"x_min":22,"x_max":939,"o":"m 147 750 q 128 855 147 821 q 50 889 108 889 l 22 889 l 22 917 l 147 917 q 224 903 199 917 q 261 856 250 890 q 272 750 272 821 l 272 500 l 689 500 l 689 917 l 814 917 l 814 167 q 833 62 814 96 q 911 28 853 28 l 939 28 l 939 0 l 814 0 q 737 13 763 0 q 700 61 711 26 q 689 167 689 96 l 689 444 l 272 444 l 272 0 l 147 0 l 147 750 z "},"I":{"ha":396,"x_min":124,"x_max":374,"o":"m 249 0 q 172 13 197 0 q 135 61 146 26 q 124 167 124 96 l 124 917 l 249 917 l 249 167 q 268 62 249 96 q 346 28 288 28 l 374 28 l 374 0 l 249 0 z "},"J":{"ha":363,"x_min":-12,"x_max":244,"o":"m -12 -162 q 87 -92 54 -162 q 119 108 119 -21 l 119 917 l 244 917 l 244 108 q 222 -65 244 0 q 143 -160 199 -129 q -12 -190 88 -190 l -12 -162 z "},"K":{"ha":940,"x_min":22,"x_max":953,"o":"m 863 -14 q 726 22 797 -14 q 564 153 656 57 l 272 458 l 272 0 l 147 0 l 147 750 q 128 855 147 821 q 50 889 108 889 l 22 889 l 22 917 l 147 917 q 224 903 199 917 q 261 856 250 890 q 272 750 272 821 l 272 479 l 564 771 l 592 800 q 657 863 631 840 q 719 901 683 886 q 800 917 756 917 l 869 917 l 869 882 q 768 862 811 882 q 668 785 725 842 l 397 514 l 717 181 q 840 76 778 118 q 953 26 903 33 l 953 0 q 863 -14 911 -14 z "},"L":{"ha":775,"x_min":22,"x_max":765,"o":"m 147 750 q 128 855 147 821 q 50 889 108 889 l 22 889 l 22 917 l 147 917 q 224 903 199 917 q 261 856 250 890 q 272 750 272 821 l 272 56 l 765 56 l 765 0 l 147 0 l 147 750 z "},"M":{"ha":1188,"x_min":119,"x_max":1168,"o":"m 1168 -62 q 1013 -32 1068 -62 q 934 63 957 -1 q 911 236 911 128 l 911 771 l 564 0 l 536 0 l 175 785 l 175 0 l 119 0 l 119 917 l 251 917 l 585 194 l 911 917 l 1036 917 l 1036 236 q 1069 36 1036 107 q 1168 -35 1101 -35 l 1168 -62 z "},"N":{"ha":951,"x_min":14,"x_max":833,"o":"m 208 729 l 208 0 l 153 0 l 153 750 q 124 853 153 817 q 28 889 96 889 l 14 889 l 14 917 l 104 917 q 213 896 168 917 q 292 833 257 875 l 778 229 l 778 917 l 833 917 l 833 -14 l 806 -14 l 208 729 z "},"O":{"ha":989,"x_min":64,"x_max":925,"o":"m 494 -28 q 267 36 365 -28 q 117 211 169 100 q 64 458 64 322 q 117 706 64 594 q 267 881 169 817 q 494 944 365 944 q 722 881 624 944 q 872 706 819 817 q 925 458 925 594 q 872 211 925 322 q 722 36 819 100 q 494 -28 624 -28 m 494 28 q 651 81 585 28 q 751 230 717 133 q 786 458 786 326 q 751 687 786 590 q 651 836 717 783 q 494 889 585 889 q 338 836 404 889 q 238 687 272 783 q 203 458 203 590 q 238 230 203 326 q 338 81 272 133 q 494 28 404 28 z "},"P":{"ha":767,"x_min":22,"x_max":731,"o":"m 147 750 q 128 855 147 821 q 50 889 108 889 l 22 889 l 22 917 l 383 917 q 624 860 517 917 q 731 639 731 803 q 675 472 731 531 q 551 394 619 414 q 425 375 482 375 l 272 375 l 272 0 l 147 0 l 147 750 m 376 424 q 471 447 421 424 q 556 519 521 469 q 592 646 592 569 q 556 772 592 722 q 471 845 521 822 q 376 868 421 868 q 272 854 328 868 l 272 424 l 376 424 z "},"Q":{"ha":992,"x_min":65,"x_max":940,"o":"m 940 -285 q 633 -222 775 -285 q 371 -10 492 -160 q 147 160 229 32 q 65 458 65 288 q 118 706 65 594 q 269 881 171 817 q 496 944 367 944 q 723 881 625 944 q 874 706 821 817 q 926 458 926 594 q 841 155 926 283 q 610 -12 756 26 q 686 -135 631 -79 q 811 -224 742 -192 q 940 -257 881 -257 l 940 -285 m 496 28 q 652 81 586 28 q 753 230 718 133 q 788 458 788 326 q 753 687 788 590 q 652 836 718 783 q 496 889 586 889 q 340 836 406 889 q 239 687 274 783 q 204 458 204 590 q 239 230 204 326 q 340 81 274 133 q 496 28 406 28 z "},"R":{"ha":826,"x_min":22,"x_max":842,"o":"m 757 -14 q 630 30 685 -14 q 508 188 575 74 l 369 424 l 272 424 l 272 0 l 147 0 l 147 750 q 128 855 147 821 q 50 889 108 889 l 22 889 l 22 917 l 383 917 q 622 865 514 917 q 731 668 731 813 q 667 506 731 560 q 508 431 604 453 l 654 188 q 747 67 706 101 q 842 28 788 33 l 842 0 q 806 -10 829 -6 q 757 -14 782 -14 m 372 472 q 469 493 418 472 q 556 558 521 514 q 592 669 592 603 q 556 781 592 736 q 469 847 519 825 q 372 868 418 868 q 272 854 328 868 l 272 472 l 372 472 z "},"S":{"ha":740,"x_min":75,"x_max":681,"o":"m 392 -24 q 242 -3 315 -24 q 122 57 168 18 q 75 146 75 96 l 75 294 l 100 294 q 192 94 124 156 q 379 32 260 32 q 508 69 454 32 q 561 174 561 107 q 525 275 561 232 q 408 365 489 318 l 238 467 q 112 574 149 519 q 75 706 75 628 q 149 877 75 813 q 344 942 224 942 q 485 922 415 942 q 599 863 554 901 q 644 775 644 825 l 644 626 l 619 626 q 530 826 596 765 q 344 886 464 886 q 232 847 281 886 q 183 746 183 808 q 219 651 183 689 q 338 564 254 614 l 508 463 q 642 357 603 406 q 681 233 681 308 q 603 47 681 117 q 392 -24 525 -24 z "},"T":{"ha":810,"x_min":29,"x_max":793,"o":"m 356 861 l 231 861 q 57 701 57 861 l 29 701 l 29 806 q 147 917 29 917 l 793 917 l 793 861 l 481 861 l 481 0 l 356 0 l 356 861 z "},"U":{"ha":954,"x_min":13,"x_max":846,"o":"m 492 -14 q 281 31 358 -14 q 170 165 203 76 q 138 396 138 254 l 138 750 q 118 855 138 821 q 40 889 99 889 l 13 889 l 13 917 l 138 917 q 215 903 189 917 q 251 856 240 890 q 263 750 263 821 l 263 354 q 319 121 263 200 q 508 42 376 42 q 676 79 614 42 q 764 193 738 117 q 790 396 790 269 l 790 917 l 846 917 l 846 396 q 815 163 846 251 q 708 31 785 75 q 492 -14 631 -14 z "},"V":{"ha":889,"x_min":-40,"x_max":858,"o":"m 113 754 q 47 865 78 835 q -40 900 17 894 l -40 928 q -20 929 -33 928 q 7 931 -7 931 q 140 895 76 931 q 249 754 204 860 l 486 194 l 792 917 l 858 917 l 460 -14 l 435 -14 l 113 754 z "},"W":{"ha":1203,"x_min":-44,"x_max":1157,"o":"m 108 754 q 49 865 81 835 q -44 900 18 894 l -44 928 q -24 929 -37 928 q 3 931 -11 931 q 141 896 79 931 q 240 754 203 861 l 426 218 l 575 658 l 542 754 q 483 865 514 835 q 389 900 451 894 l 389 928 q 409 929 396 928 q 436 931 422 931 q 574 896 513 931 q 674 754 636 861 l 860 218 l 1097 917 l 1157 917 l 839 -14 l 811 -14 l 606 571 l 406 -14 l 378 -14 l 108 754 z "},"X":{"ha":926,"x_min":-12,"x_max":946,"o":"m 404 451 l 210 736 q 151 813 176 785 q 86 864 126 842 q -12 889 46 886 l -12 917 l 154 917 q 257 877 215 917 q 349 764 299 838 l 488 556 l 765 917 l 835 917 l 522 507 l 744 181 q 837 74 788 117 q 946 28 886 32 l 946 0 l 800 0 q 694 42 740 0 q 606 153 649 85 l 439 403 l 126 0 l 57 0 l 404 451 z "},"Y":{"ha":872,"x_min":-35,"x_max":853,"o":"m 403 379 l 167 736 q 106 817 131 788 q 47 866 81 846 q -35 889 13 886 l -35 917 l 90 917 q 207 876 160 917 q 299 764 254 835 l 500 451 l 790 917 l 853 917 l 528 389 l 528 0 l 403 0 l 403 379 z "},"Z":{"ha":821,"x_min":33,"x_max":797,"o":"m 33 28 l 610 861 l 276 861 q 103 701 103 861 l 75 701 l 75 806 q 193 917 75 917 l 797 917 l 207 56 l 776 56 l 776 0 l 33 0 l 33 28 z "},"[":{"ha":439,"x_min":104,"x_max":403,"o":"m 104 944 l 403 944 l 403 889 l 215 889 l 215 -222 l 403 -222 l 403 -278 l 104 -278 l 104 944 z "},"\\":{"ha":611,"x_min":32,"x_max":579,"o":"m 32 917 l 133 917 l 579 0 l 478 0 l 32 917 z "},"]":{"ha":439,"x_min":36,"x_max":335,"o":"m 36 -222 l 224 -222 l 224 889 l 36 889 l 36 944 l 335 944 l 335 -278 l 36 -278 l 36 -222 z "},"^":{"ha":681,"x_min":28,"x_max":653,"o":"m 326 944 l 354 944 l 653 458 l 560 458 l 340 815 l 121 458 l 28 458 l 326 944 z "},"_":{"ha":600,"x_min":22,"x_max":578,"o":"m 22 0 l 578 0 l 578 -83 l 22 -83 l 22 0 z "},"`":{"ha":278,"x_min":28,"x_max":250,"o":"m 28 944 l 167 944 l 250 667 l 181 667 l 28 944 z "},"a":{"ha":668,"x_min":54,"x_max":575,"o":"m 256 -14 q 165 5 211 -14 q 87 67 119 24 q 54 181 54 110 q 152 331 54 286 q 408 375 250 375 l 450 375 q 413 561 450 511 q 304 611 375 611 q 204 585 242 611 q 151 493 167 558 l 89 493 q 94 567 89 540 q 124 618 100 594 q 206 655 149 643 q 332 667 264 667 q 510 606 444 667 q 575 375 575 546 l 575 0 l 506 0 l 457 63 l 450 63 q 376 8 425 31 q 256 -14 328 -14 m 318 49 q 394 71 364 49 q 450 132 425 93 l 450 319 l 408 319 q 246 281 306 319 q 186 181 186 243 q 224 83 186 117 q 318 49 263 49 z "},"b":{"ha":726,"x_min":-25,"x_max":663,"o":"m 413 -14 q 296 8 342 -14 q 225 63 250 31 l 218 63 l 169 0 l 100 0 l 100 750 q 81 855 100 821 q 3 889 61 889 l -25 889 l -25 917 l 100 917 q 177 903 151 917 q 214 856 203 890 q 225 750 225 821 l 225 625 q 306 656 265 644 q 399 667 346 667 q 595 571 528 667 q 663 326 663 475 q 597 83 663 179 q 413 -14 532 -14 m 371 42 q 490 120 450 42 q 531 326 531 199 q 488 533 531 456 q 357 611 446 611 q 297 600 328 611 q 225 569 267 589 l 225 125 q 284 65 250 88 q 371 42 318 42 z "},"c":{"ha":671,"x_min":63,"x_max":625,"o":"m 368 -14 q 199 31 268 -14 q 97 153 131 76 q 63 326 63 231 q 97 499 63 422 q 199 622 131 576 q 368 667 268 667 q 569 618 521 667 q 599 560 593 594 q 604 438 604 526 l 576 438 q 522 567 571 524 q 396 611 474 611 q 245 532 296 611 q 194 326 194 453 q 245 121 194 200 q 396 42 296 42 q 513 69 467 42 q 597 153 558 96 l 625 132 q 517 20 579 54 q 368 -14 454 -14 z "},"d":{"ha":728,"x_min":65,"x_max":628,"o":"m 315 -14 q 130 82 194 -14 q 65 326 65 178 q 133 571 65 475 q 329 667 200 667 q 422 656 382 667 q 503 625 463 644 l 503 750 q 483 855 503 821 q 406 889 464 889 l 378 889 l 378 917 l 503 917 q 580 903 554 917 q 617 856 606 890 q 628 750 628 821 l 628 0 l 558 0 l 510 63 l 503 63 q 431 7 472 28 q 315 -14 390 -14 m 357 42 q 443 63 414 42 q 503 125 472 83 l 503 569 q 431 600 461 589 q 371 611 400 611 q 240 533 282 611 q 197 326 197 456 q 238 120 197 199 q 357 42 278 42 z "},"e":{"ha":678,"x_min":63,"x_max":618,"o":"m 354 -14 q 194 31 260 -14 q 96 153 129 76 q 63 326 63 231 q 96 499 63 421 q 192 622 129 576 q 340 667 256 667 q 549 588 481 667 q 618 361 618 510 l 615 306 l 194 306 q 244 115 194 189 q 382 42 294 42 q 492 69 447 42 q 576 153 538 97 l 604 132 q 497 21 558 56 q 354 -14 436 -14 m 486 361 q 450 547 486 483 q 340 611 414 611 q 265 578 299 611 q 213 489 232 546 q 194 361 194 432 l 486 361 z "},"f":{"ha":468,"x_min":29,"x_max":536,"o":"m 126 597 l 29 597 l 29 653 l 126 653 l 126 694 q 369 931 126 931 q 488 910 457 931 q 536 847 511 892 l 494 813 q 363 875 453 875 q 251 694 251 875 l 251 653 l 446 653 l 446 597 l 251 597 l 251 0 l 126 0 l 126 597 z "},"g":{"ha":683,"x_min":36,"x_max":647,"o":"m 342 -278 q 119 -226 201 -278 q 36 -62 36 -175 q 79 49 36 1 q 189 118 122 96 q 133 201 133 149 q 146 244 133 229 q 182 278 158 260 q 108 347 138 300 q 78 458 78 394 q 342 667 78 667 l 599 667 l 599 632 l 508 618 q 578 550 550 592 q 606 458 606 508 q 342 250 606 250 q 196 201 196 250 q 342 153 196 153 q 562 99 476 153 q 647 -62 647 46 q 565 -226 647 -175 q 342 -278 482 -278 m 342 299 q 442 337 404 299 q 481 458 481 375 q 442 578 481 538 q 342 618 404 618 q 241 580 279 618 q 203 458 203 542 q 241 337 203 375 q 342 299 279 299 m 342 -222 q 474 -183 425 -222 q 522 -62 522 -143 q 356 97 522 76 l 279 104 q 192 42 222 82 q 161 -62 161 1 q 210 -183 161 -143 q 342 -222 258 -222 z "},"h":{"ha":735,"x_min":-25,"x_max":642,"o":"m 100 750 q 81 855 100 821 q 3 889 61 889 l -25 889 l -25 917 l 100 917 q 177 903 151 917 q 214 856 203 890 q 225 750 225 821 l 225 597 q 301 647 254 626 q 406 667 347 667 q 576 611 510 667 q 642 417 642 556 l 642 0 l 517 0 l 517 417 q 473 559 517 514 q 364 604 429 604 q 225 531 290 604 l 225 0 l 100 0 l 100 750 z "},"i":{"ha":342,"x_min":-4,"x_max":246,"o":"m 174 736 q 119 763 142 736 q 96 825 96 789 q 113 871 96 854 q 160 888 131 888 q 215 861 192 888 q 238 799 238 835 q 220 753 238 769 q 174 736 203 736 m 121 486 q 101 591 121 557 q 24 625 82 625 l -4 625 l -4 653 l 121 653 q 198 640 172 653 q 235 592 224 626 q 246 486 246 557 l 246 0 l 121 0 l 121 486 z "},"j":{"ha":342,"x_min":-11,"x_max":246,"o":"m 174 736 q 119 763 142 736 q 96 825 96 789 q 113 871 96 854 q 160 888 131 888 q 215 861 192 888 q 238 799 238 835 q 220 753 238 769 q 174 736 203 736 m -11 -236 q 88 -165 56 -236 q 121 35 121 -94 l 121 486 q 101 591 121 557 q 24 625 82 625 l -4 625 l -4 653 l 121 653 q 198 640 172 653 q 235 592 224 626 q 246 486 246 557 l 246 35 q 223 -138 246 -74 q 144 -233 200 -203 q -11 -264 89 -264 l -11 -236 z "},"k":{"ha":674,"x_min":-25,"x_max":663,"o":"m 593 -14 q 392 97 475 -14 l 225 319 l 225 0 l 100 0 l 100 750 q 81 855 100 821 q 3 889 61 889 l -25 889 l -25 917 l 100 917 q 177 903 151 917 q 214 856 203 890 q 225 750 225 821 l 225 340 l 399 563 q 475 630 435 607 q 579 653 515 653 l 621 653 l 621 618 q 549 603 583 618 q 489 556 514 588 l 336 361 l 510 139 q 585 60 550 86 q 663 26 621 33 l 663 0 q 593 -14 632 -14 z "},"l":{"ha":336,"x_min":-19,"x_max":231,"o":"m 106 750 q 86 855 106 821 q 8 889 67 889 l -19 889 l -19 917 l 106 917 q 183 903 157 917 q 219 856 208 890 q 231 750 231 821 l 231 0 l 106 0 l 106 750 z "},"m":{"ha":1090,"x_min":-4,"x_max":996,"o":"m 121 486 q 101 591 121 557 q 24 625 82 625 l -4 625 l -4 653 l 121 653 q 199 639 172 653 q 239 597 226 625 l 246 597 q 322 647 275 626 q 426 667 368 667 q 526 645 485 667 q 593 569 568 624 q 685 641 629 615 q 801 667 742 667 q 943 611 890 667 q 996 417 996 556 l 996 0 l 871 0 l 871 417 q 843 560 871 517 q 760 604 815 604 q 678 576 721 604 q 614 514 635 547 q 621 417 621 493 l 621 0 l 496 0 l 496 417 q 468 560 496 517 q 385 604 440 604 q 246 531 311 604 l 246 0 l 121 0 l 121 486 z "},"n":{"ha":756,"x_min":-4,"x_max":663,"o":"m 121 486 q 101 591 121 557 q 24 625 82 625 l -4 625 l -4 653 l 121 653 q 199 639 172 653 q 239 597 226 625 q 322 646 274 625 q 426 667 369 667 q 597 611 531 667 q 663 417 663 556 l 663 0 l 538 0 l 538 417 q 494 559 538 514 q 385 604 450 604 q 246 531 311 604 l 246 0 l 121 0 l 121 486 z "},"o":{"ha":736,"x_min":63,"x_max":674,"o":"m 368 -14 q 204 31 274 -14 q 99 154 135 76 q 63 326 63 232 q 99 499 63 421 q 204 622 135 576 q 368 667 274 667 q 532 622 463 667 q 638 499 601 576 q 674 326 674 421 q 638 154 674 232 q 532 31 601 76 q 368 -14 463 -14 m 368 42 q 459 79 419 42 q 520 182 499 117 q 542 326 542 247 q 520 471 542 406 q 459 574 499 536 q 368 611 419 611 q 277 574 317 611 q 216 471 238 536 q 194 326 194 406 q 216 182 194 247 q 277 79 238 117 q 368 42 317 42 z "},"p":{"ha":747,"x_min":-4,"x_max":683,"o":"m 121 486 q 101 591 121 557 q 24 625 82 625 l -4 625 l -4 653 l 121 653 q 201 638 174 653 q 239 590 228 624 q 433 667 315 667 q 618 570 553 667 q 683 326 683 474 q 616 82 683 178 q 419 -14 549 -14 q 326 -3 367 -14 q 246 28 286 8 l 246 -264 l 121 -264 l 121 486 m 378 42 q 509 119 467 42 q 551 326 551 197 q 511 533 551 454 q 392 611 471 611 q 246 528 299 611 l 246 83 q 318 53 288 64 q 378 42 349 42 z "},"q":{"ha":728,"x_min":65,"x_max":628,"o":"m 503 28 q 422 -3 463 8 q 329 -14 382 -14 q 133 82 200 -14 q 65 326 65 178 q 130 571 65 475 q 315 667 194 667 q 432 644 386 667 q 503 590 478 622 l 510 590 l 558 653 l 628 653 l 628 -264 l 503 -264 l 503 28 m 371 42 q 431 53 400 42 q 503 83 461 64 l 503 528 q 442 589 474 567 q 357 611 410 611 q 238 533 278 611 q 197 326 197 454 q 240 119 197 197 q 371 42 282 42 z "},"r":{"ha":551,"x_min":0,"x_max":535,"o":"m 111 486 q 92 591 111 557 q 14 625 72 625 l 0 625 l 0 653 l 111 653 q 191 638 164 653 q 229 590 218 624 q 304 644 260 621 q 403 667 349 667 q 486 646 458 667 q 535 583 510 628 l 479 542 q 435 573 464 563 q 368 583 406 583 q 292 565 326 583 q 236 514 257 546 l 236 472 l 236 0 l 111 0 l 111 486 z "},"s":{"ha":619,"x_min":68,"x_max":561,"o":"m 318 -14 q 103 42 158 -14 q 74 95 79 65 q 68 188 68 125 l 96 188 q 156 80 108 118 q 290 42 204 42 q 405 68 367 42 q 443 139 443 94 q 413 208 443 179 q 318 264 383 238 l 235 299 q 110 376 151 332 q 68 486 68 421 q 132 619 68 571 q 297 667 196 667 q 506 611 450 667 q 535 558 529 588 q 540 465 540 529 l 513 465 q 454 573 501 535 q 325 611 407 611 q 223 584 260 611 q 186 514 186 557 q 297 396 186 442 l 381 361 q 518 278 475 322 q 561 167 561 235 q 493 34 561 82 q 318 -14 425 -14 z "},"t":{"ha":469,"x_min":29,"x_max":467,"o":"m 293 -14 q 171 31 215 -14 q 126 167 126 75 l 126 597 l 29 597 l 29 653 l 126 653 l 126 778 l 196 861 l 251 861 l 251 653 l 418 653 l 418 597 l 251 597 l 251 167 q 349 42 251 42 q 405 49 382 42 q 453 69 428 56 l 467 42 q 396 2 435 18 q 293 -14 357 -14 z "},"u":{"ha":743,"x_min":-10,"x_max":643,"o":"m 338 -14 q 167 42 233 -14 q 101 236 101 97 l 101 486 q 82 591 101 557 q 4 625 63 625 l -10 625 l -10 653 l 101 653 q 178 640 153 653 q 215 592 204 626 q 226 486 226 557 l 226 236 q 270 94 226 139 q 379 49 314 49 q 518 122 453 49 l 518 653 l 643 653 l 643 0 l 574 0 l 525 56 l 518 56 q 442 6 489 26 q 338 -14 396 -14 z "},"v":{"ha":690,"x_min":-7,"x_max":665,"o":"m 138 493 q 74 602 104 571 q -7 636 43 633 l -7 664 q 13 665 0 664 q 40 667 26 667 q 174 630 114 667 q 276 493 233 593 l 401 194 l 596 653 l 665 653 l 381 -14 l 353 -14 l 138 493 z "},"w":{"ha":1040,"x_min":-7,"x_max":1014,"o":"m 139 493 q 76 602 107 571 q -7 636 44 633 l -7 664 q 14 665 0 664 q 42 667 28 667 q 174 628 117 667 q 271 493 232 590 l 389 201 l 507 500 q 444 603 474 574 q 368 636 414 633 l 368 664 q 389 665 375 664 q 417 667 403 667 q 549 628 492 667 q 646 493 607 590 l 764 201 l 944 653 l 1014 653 l 743 -14 l 715 -14 l 542 417 l 368 -14 l 340 -14 l 139 493 z "},"x":{"ha":678,"x_min":11,"x_max":671,"o":"m 275 313 l 154 514 q 11 625 96 615 l 11 653 l 129 653 q 215 624 175 653 q 286 542 256 594 l 372 396 l 553 653 l 622 653 l 400 340 l 521 139 q 671 28 578 39 l 671 0 l 546 0 q 460 29 500 0 q 389 111 419 58 l 303 257 l 122 0 l 53 0 l 275 313 z "},"y":{"ha":714,"x_min":-14,"x_max":674,"o":"m 146 -236 q 258 -205 214 -236 q 333 -90 301 -174 l 361 -14 l 139 528 q -14 639 100 628 l -14 667 l 104 667 q 271 556 225 667 l 429 171 l 604 653 l 674 653 l 403 -90 q 314 -239 363 -200 q 188 -278 265 -278 l 146 -278 l 146 -236 z "},"z":{"ha":647,"x_min":61,"x_max":603,"o":"m 61 26 l 422 597 l 263 597 q 133 565 176 597 q 89 472 89 532 l 61 472 l 61 542 q 179 653 61 653 l 603 653 l 228 56 l 603 56 l 603 0 l 61 0 l 61 26 z "},"{":{"ha":422,"x_min":15,"x_max":383,"o":"m 383 -292 q 208 -201 261 -262 q 154 -42 154 -139 l 154 153 q 122 259 154 217 q 15 313 89 301 l 15 354 q 122 408 89 365 q 154 514 154 450 l 154 708 q 208 865 154 804 q 383 958 261 926 l 383 917 q 290 863 314 896 q 265 764 265 829 l 265 528 q 230 400 265 446 q 119 333 194 354 q 230 267 194 313 q 265 139 265 221 l 265 -97 q 290 -197 265 -162 q 383 -250 314 -231 l 383 -292 z "},"|":{"ha":333,"x_min":104,"x_max":229,"o":"m 104 944 l 229 944 l 229 -264 l 104 -264 l 104 944 z "},"}":{"ha":422,"x_min":39,"x_max":407,"o":"m 39 -250 q 133 -197 108 -231 q 157 -97 157 -162 l 157 139 q 192 267 157 221 q 303 333 228 313 q 192 400 228 354 q 157 528 157 446 l 157 764 q 133 863 157 829 q 39 917 108 896 l 39 958 q 215 865 161 926 q 268 708 268 804 l 268 514 q 301 408 268 450 q 407 354 333 365 l 407 313 q 301 259 333 301 q 268 153 268 217 l 268 -42 q 215 -201 268 -139 q 39 -292 161 -262 l 39 -250 z "},"~":{"ha":874,"x_min":83,"x_max":792,"o":"m 625 250 q 529 265 576 250 q 417 310 482 281 q 322 349 360 336 q 250 361 285 361 q 169 334 199 361 q 139 264 139 307 l 83 264 q 132 410 83 361 q 250 458 181 458 q 346 443 299 458 q 458 399 393 428 q 553 360 515 372 q 625 347 590 347 q 706 374 676 347 q 736 444 736 401 l 792 444 q 743 299 792 347 q 625 250 694 250 z "}," ":{"ha":347,"x_min":0,"x_max":0,"o":""},"¡":{"ha":306,"x_min":78,"x_max":228,"o":"m 153 517 q 100 538 122 517 q 78 590 78 560 q 100 644 78 622 q 153 667 122 667 q 206 644 183 667 q 228 590 228 622 q 206 538 228 560 q 153 517 183 517 m 113 432 l 193 432 l 218 -269 l 88 -269 l 113 432 z "},"¢":{"ha":671,"x_min":56,"x_max":618,"o":"m 333 -14 q 127 91 199 -3 q 56 326 56 185 q 127 562 56 468 q 333 667 199 656 l 333 722 l 389 722 l 389 667 q 494 654 449 667 q 563 618 539 642 q 592 560 586 594 q 597 438 597 526 l 569 438 q 515 567 564 524 q 389 611 467 611 l 389 42 q 506 69 460 42 q 590 153 551 96 l 618 132 q 520 26 576 61 q 389 -14 464 -8 l 389 -69 l 333 -69 l 333 -14 m 333 604 q 225 508 263 582 q 188 326 188 433 q 225 144 188 219 q 333 49 263 68 l 333 604 z "},"£":{"ha":733,"x_min":44,"x_max":669,"o":"m 44 35 q 133 114 104 53 q 163 306 163 175 l 163 444 l 65 444 l 65 500 l 163 500 l 163 639 q 228 870 163 810 q 406 931 293 931 q 531 919 474 931 q 614 882 589 907 q 643 831 638 858 q 649 757 649 804 l 586 757 q 533 849 571 822 q 433 875 496 875 q 325 825 363 875 q 288 639 288 775 l 288 500 l 482 500 l 482 444 l 288 444 l 288 306 q 268 149 288 208 q 211 56 249 89 l 468 56 q 642 215 642 56 l 669 215 l 669 111 q 551 0 669 0 l 44 0 l 44 35 z "},"¤":{"ha":800,"x_min":47,"x_max":756,"o":"m 172 278 l 89 278 l 89 333 l 172 333 l 172 403 l 89 403 l 89 458 l 172 458 l 172 750 q 153 855 172 821 q 75 889 133 889 l 47 889 l 47 917 l 408 917 q 658 858 560 917 q 756 667 756 799 q 658 465 756 528 q 408 403 560 403 l 297 403 l 297 333 l 658 333 l 658 278 l 297 278 l 297 0 l 172 0 l 172 278 m 408 458 q 559 513 501 461 q 617 667 617 564 q 556 817 617 765 q 401 868 494 868 q 297 854 353 868 l 297 458 l 408 458 z "},"¥":{"ha":954,"x_min":33,"x_max":921,"o":"m 471 201 l 339 201 l 339 257 l 471 257 l 471 313 l 339 313 l 339 368 l 471 368 l 235 736 q 174 817 199 788 q 115 866 149 846 q 33 889 81 886 l 33 917 l 158 917 q 275 876 228 917 q 367 764 322 835 l 568 451 l 858 917 l 921 917 l 596 389 l 596 368 l 728 368 l 728 313 l 596 313 l 596 257 l 728 257 l 728 201 l 596 201 l 596 0 l 471 0 l 471 201 z "},"¦":{"ha":342,"x_min":108,"x_max":233,"o":"m 108 944 l 233 944 l 233 458 l 108 458 l 108 944 m 108 222 l 233 222 l 233 -264 l 108 -264 l 108 222 z "},"§":{"ha":600,"x_min":71,"x_max":529,"o":"m 293 -278 q 187 -263 235 -278 q 113 -222 139 -249 q 83 -169 89 -199 q 78 -76 78 -140 l 106 -76 q 155 -183 117 -144 q 251 -222 193 -222 q 353 -190 315 -222 q 390 -97 390 -158 q 369 -19 390 -53 q 318 38 349 14 q 236 96 288 63 q 149 158 182 131 q 94 223 117 185 q 71 313 71 261 q 217 514 71 458 q 92 722 92 594 q 152 878 92 826 q 307 931 213 931 q 413 916 365 931 q 488 875 461 901 q 517 822 511 851 q 522 729 522 793 l 494 729 q 445 836 483 797 q 349 875 407 875 q 247 843 285 875 q 210 750 210 811 q 231 672 210 706 q 282 615 251 639 q 364 557 313 590 q 451 495 418 522 q 506 430 483 468 q 529 340 529 392 q 492 215 529 263 q 382 139 454 167 q 475 48 442 99 q 508 -69 508 -3 q 448 -226 508 -174 q 293 -278 388 -278 m 329 171 q 399 215 374 185 q 425 299 425 244 q 386 397 425 354 q 271 482 347 440 q 201 438 226 468 q 175 354 175 408 q 214 256 175 299 q 329 171 253 213 z "},"¨":{"ha":431,"x_min":28,"x_max":403,"o":"m 97 958 q 47 977 65 958 q 28 1028 28 996 q 47 1078 28 1060 q 97 1097 65 1097 q 148 1078 129 1097 q 167 1028 167 1060 q 148 977 167 996 q 97 958 129 958 m 333 958 q 283 977 301 958 q 264 1028 264 996 q 283 1078 264 1060 q 333 1097 301 1097 q 384 1078 365 1097 q 403 1028 403 1060 q 384 977 403 996 q 333 958 365 958 z "},"©":{"ha":1097,"x_min":56,"x_max":1042,"o":"m 549 -35 q 296 29 408 -35 q 119 206 183 93 q 56 458 56 318 q 119 711 56 599 q 296 888 183 824 q 549 951 408 951 q 801 888 689 951 q 978 711 914 824 q 1042 458 1042 599 q 978 206 1042 318 q 801 29 914 93 q 549 -35 689 -35 m 549 21 q 775 76 675 21 q 931 232 875 132 q 986 458 986 332 q 931 685 986 585 q 775 840 875 785 q 549 896 675 896 q 322 840 422 896 q 167 685 222 785 q 111 458 111 585 q 167 232 111 332 q 322 76 222 132 q 549 21 422 21 m 549 146 q 402 186 465 146 q 305 297 339 226 q 271 454 271 367 q 308 618 271 543 q 410 737 346 693 q 549 781 474 781 q 675 760 619 781 q 756 708 731 739 q 775 658 771 690 q 779 572 779 626 l 761 572 q 576 744 729 744 q 419 676 479 744 q 360 454 360 607 q 415 263 360 342 q 576 183 469 183 q 692 215 643 183 q 779 310 740 246 l 797 296 q 694 180 754 214 q 549 146 635 146 z "},"ª":{"ha":446,"x_min":71,"x_max":357,"o":"m 181 550 q 104 571 138 550 q 71 647 71 592 q 125 733 71 706 q 263 760 179 760 l 285 760 q 265 860 285 833 q 207 886 244 886 q 153 872 172 886 q 125 824 133 858 l 90 824 q 93 863 90 850 q 110 890 96 876 q 221 917 132 917 q 319 884 282 917 q 357 760 357 851 l 357 557 l 315 557 l 289 592 l 285 592 q 246 562 272 574 q 181 550 219 550 m 207 581 q 285 629 251 581 l 285 729 l 263 729 q 175 706 207 729 q 143 647 143 683 q 207 581 143 581 z "},"«":{"ha":517,"x_min":49,"x_max":438,"o":"m 49 313 l 264 583 l 319 583 l 188 313 l 319 42 l 264 42 l 49 313 m 243 313 l 382 514 l 438 514 l 354 313 l 438 111 l 382 111 l 243 313 z "},"¬":{"ha":908,"x_min":94,"x_max":817,"o":"m 733 319 l 94 319 l 94 403 l 817 403 l 817 181 l 733 181 l 733 319 z "},"­":{"ha":538,"x_min":92,"x_max":446,"o":"m 92 417 l 446 417 l 446 319 l 92 319 l 92 417 z "},"®":{"ha":1097,"x_min":56,"x_max":1042,"o":"m 549 -35 q 296 29 408 -35 q 119 206 183 93 q 56 458 56 318 q 119 711 56 599 q 296 888 183 824 q 549 951 408 951 q 801 888 689 951 q 978 711 914 824 q 1042 458 1042 599 q 978 206 1042 318 q 801 29 914 93 q 549 -35 689 -35 m 549 21 q 775 76 675 21 q 931 232 875 132 q 986 458 986 332 q 931 685 986 585 q 775 840 875 785 q 549 896 675 896 q 322 840 422 896 q 167 685 222 785 q 111 458 111 585 q 167 232 111 332 q 322 76 222 132 q 549 21 422 21 m 768 164 q 692 192 725 164 q 614 293 660 219 l 521 449 l 454 449 l 454 174 l 374 174 l 374 658 q 361 726 374 704 q 311 749 349 749 l 293 749 l 293 767 l 526 767 q 681 733 611 767 q 751 603 751 699 q 709 499 751 535 q 608 454 667 464 l 708 293 q 768 216 743 238 q 826 190 793 194 l 826 174 q 768 164 813 164 m 522 479 q 583 493 550 479 q 638 536 615 507 q 661 608 661 565 q 638 681 661 651 q 583 723 615 710 q 522 736 550 736 q 454 726 496 736 l 454 489 q 522 479 496 479 z "},"¯":{"ha":347,"x_min":0,"x_max":0,"o":""},"°":{"ha":572,"x_min":64,"x_max":508,"o":"m 286 944 q 174 915 225 944 q 93 835 122 886 q 64 722 64 783 q 93 610 64 661 q 174 529 122 558 q 286 500 225 500 q 399 529 347 500 q 479 610 450 558 q 508 722 508 661 q 479 835 508 783 q 399 915 450 886 q 286 944 347 944 m 286 868 q 385 826 344 868 q 425 722 425 785 q 385 618 425 660 q 286 576 344 576 q 188 618 228 576 q 147 722 147 660 q 188 826 147 785 q 286 868 228 868 z "},"±":{"ha":797,"x_min":79,"x_max":718,"o":"m 79 167 l 357 167 l 357 417 l 79 417 l 79 500 l 357 500 l 357 778 l 440 778 l 440 500 l 718 500 l 718 417 l 440 417 l 440 167 l 718 167 l 718 83 l 79 83 l 79 167 z "},"²":{"ha":446,"x_min":85,"x_max":363,"o":"m 85 556 l 122 592 q 219 690 189 656 q 267 760 250 725 q 285 836 285 794 q 264 904 285 882 q 208 926 243 926 q 142 901 168 926 q 107 824 117 875 l 90 824 q 93 874 90 856 q 106 907 96 893 q 157 943 124 929 q 226 957 190 957 q 317 931 278 957 q 357 836 357 906 q 324 735 357 779 q 214 622 290 690 q 140 554 167 581 l 267 554 q 326 569 307 554 q 346 615 346 583 l 363 615 l 363 574 q 308 524 363 524 l 85 524 l 85 556 z "},"³":{"ha":432,"x_min":74,"x_max":365,"o":"m 210 510 q 133 526 164 510 q 74 578 101 543 l 88 590 q 204 540 133 540 q 268 567 243 540 q 293 642 293 593 q 269 711 293 688 q 213 735 244 735 q 139 726 171 735 l 119 760 l 290 914 l 174 914 q 115 899 135 914 q 94 851 94 885 l 82 851 l 82 893 q 136 944 82 944 l 346 944 l 346 919 l 168 760 q 225 765 190 765 q 322 735 278 765 q 365 642 365 706 q 316 539 365 568 q 210 510 267 510 z "},"´":{"ha":243,"x_min":28,"x_max":215,"o":"m 83 1153 l 215 1153 l 83 972 l 28 972 l 83 1153 z "},"µ":{"ha":735,"x_min":103,"x_max":658,"o":"m 103 653 l 228 653 l 228 326 q 268 120 228 199 q 388 42 308 42 q 474 65 440 42 q 533 125 508 88 l 533 653 l 658 653 l 658 0 l 589 0 l 540 63 l 533 63 q 467 6 500 26 q 374 -14 433 -14 q 228 49 290 -14 l 228 -264 l 103 -264 l 103 653 z "},"¶":{"ha":835,"x_min":39,"x_max":775,"o":"m 358 403 q 194 434 267 403 q 81 523 122 465 q 39 660 39 581 q 81 797 39 739 q 194 885 122 854 q 358 917 267 917 l 775 917 l 775 861 l 699 861 l 699 -264 l 574 -264 l 574 861 l 483 861 l 483 -264 l 358 -264 l 358 403 z "},"·":{"ha":319,"x_min":85,"x_max":235,"o":"m 160 383 q 107 406 129 383 q 85 460 85 428 q 107 513 85 490 q 160 535 129 535 q 213 513 192 535 q 235 460 235 490 q 213 406 235 428 q 160 383 190 383 z "},"¸":{"ha":250,"x_min":56,"x_max":250,"o":"m 56 -215 l 125 -215 q 181 -171 181 -215 q 125 -125 181 -125 l 63 -125 l 63 0 l 125 0 l 125 -69 q 250 -171 250 -69 q 219 -245 250 -218 q 139 -272 188 -272 l 56 -272 l 56 -215 z "},"¹":{"ha":294,"x_min":53,"x_max":197,"o":"m 125 867 l 68 833 l 53 856 l 143 944 l 197 944 l 197 524 l 125 524 l 125 867 z "},"º":{"ha":465,"x_min":72,"x_max":393,"o":"m 232 957 q 112 898 151 957 q 72 733 72 839 q 112 569 72 629 q 232 510 151 510 q 353 569 313 510 q 393 733 393 629 q 353 897 393 838 q 232 957 313 957 m 232 926 q 321 733 321 926 q 299 587 321 633 q 232 540 276 540 q 144 733 144 540 q 232 926 144 926 z "},"»":{"ha":517,"x_min":79,"x_max":468,"o":"m 329 313 l 197 583 l 253 583 l 468 313 l 253 42 l 197 42 l 329 313 m 163 313 l 79 514 l 135 514 l 274 313 l 135 111 l 79 111 l 163 313 z "},"¼":{"ha":828,"x_min":40,"x_max":768,"o":"m 147 867 l 90 833 l 75 856 l 165 944 l 219 944 l 219 524 l 147 524 l 147 867 m 672 917 l 763 917 l 131 0 l 40 0 l 672 917 m 639 108 l 428 108 l 428 135 l 646 422 l 711 422 l 711 139 l 768 139 l 768 108 l 711 108 l 711 0 l 639 0 l 639 108 m 639 139 l 639 354 l 475 139 l 639 139 z "},"½":{"ha":851,"x_min":40,"x_max":782,"o":"m 147 867 l 90 833 l 75 856 l 165 944 l 219 944 l 219 524 l 147 524 l 147 867 m 672 917 l 763 917 l 131 0 l 40 0 l 672 917 m 504 32 l 542 68 q 639 167 608 132 q 687 236 669 201 q 704 313 704 271 q 683 381 704 358 q 628 403 663 403 q 562 377 588 403 q 526 300 536 351 l 510 300 q 513 351 510 332 q 525 383 515 369 q 576 419 543 406 q 646 433 610 433 q 737 408 697 433 q 776 313 776 382 q 743 211 776 256 q 633 99 710 167 q 560 31 586 57 l 686 31 q 746 45 726 31 q 765 92 765 60 l 782 92 l 782 50 q 728 0 782 0 l 504 0 l 504 32 z "},"¾":{"ha":853,"x_min":58,"x_max":803,"o":"m 194 510 q 117 526 149 510 q 58 578 86 543 l 72 590 q 189 540 118 540 q 253 567 228 540 q 278 642 278 593 q 253 711 278 688 q 197 735 229 735 q 124 726 156 735 l 104 760 l 275 914 l 158 914 q 99 899 119 914 q 79 851 79 885 l 67 851 l 67 893 q 121 944 67 944 l 331 944 l 331 919 l 153 760 q 210 765 175 765 q 306 735 263 765 q 350 642 350 706 q 301 539 350 568 q 194 510 251 510 m 713 917 l 803 917 l 171 0 l 81 0 l 713 917 m 664 108 l 453 108 l 453 135 l 671 422 l 736 422 l 736 139 l 793 139 l 793 108 l 736 108 l 736 0 l 664 0 l 664 108 m 664 139 l 664 354 l 500 139 l 664 139 z "},"¿":{"ha":657,"x_min":40,"x_max":618,"o":"m 360 517 q 306 539 328 517 q 283 593 283 561 q 306 646 283 624 q 360 668 329 668 q 413 646 392 668 q 435 593 435 624 q 413 539 435 561 q 360 517 392 517 m 318 -294 q 124 -237 208 -294 q 40 -31 40 -179 q 63 74 40 28 q 115 153 85 119 q 199 233 146 186 q 298 334 265 292 q 332 433 331 376 l 388 433 q 359 306 386 357 q 279 190 332 254 q 204 85 229 133 q 179 -31 179 38 q 231 -185 179 -131 q 360 -239 283 -239 q 508 -177 446 -239 q 590 -3 569 -115 l 618 -3 q 613 -113 618 -72 q 583 -183 607 -154 q 472 -262 544 -231 q 318 -294 399 -294 z "},"À":{"ha":882,"x_min":31,"x_max":919,"o":"m 864 -7 q 732 30 797 -7 q 628 174 667 67 l 593 264 l 204 264 l 93 0 l 31 0 l 419 917 l 461 917 l 767 174 q 832 63 801 93 q 919 28 863 33 l 919 0 q 864 -7 894 -7 m 565 319 l 399 722 l 225 319 l 565 319 m 281 1153 l 413 1153 l 468 972 l 413 972 l 281 1153 z "},"Á":{"ha":882,"x_min":31,"x_max":919,"o":"m 864 -7 q 732 30 797 -7 q 628 174 667 67 l 593 264 l 204 264 l 93 0 l 31 0 l 419 917 l 461 917 l 767 174 q 832 63 801 93 q 919 28 863 33 l 919 0 q 864 -7 894 -7 m 565 319 l 399 722 l 225 319 l 565 319 m 475 1153 l 607 1153 l 475 972 l 419 972 l 475 1153 z "},"Â":{"ha":882,"x_min":31,"x_max":919,"o":"m 864 -7 q 732 30 797 -7 q 628 174 667 67 l 593 264 l 204 264 l 93 0 l 31 0 l 419 917 l 461 917 l 767 174 q 832 63 801 93 q 919 28 863 33 l 919 0 q 864 -7 894 -7 m 565 319 l 399 722 l 225 319 l 565 319 m 364 1111 l 517 1111 l 628 951 l 558 951 l 440 1063 l 322 951 l 253 951 l 364 1111 z "},"Ã":{"ha":882,"x_min":31,"x_max":919,"o":"m 864 -7 q 732 30 797 -7 q 628 174 667 67 l 593 264 l 204 264 l 93 0 l 31 0 l 419 917 l 461 917 l 767 174 q 832 63 801 93 q 919 28 863 33 l 919 0 q 864 -7 894 -7 m 565 319 l 399 722 l 225 319 l 565 319 m 290 972 q 310 1074 290 1044 q 374 1104 331 1104 q 412 1097 394 1104 q 450 1075 429 1089 q 468 1065 454 1072 q 494 1053 482 1057 q 519 1049 507 1049 q 548 1068 535 1049 q 561 1104 561 1088 l 603 1104 q 583 1002 603 1032 q 519 972 563 972 q 483 979 500 972 q 444 1000 465 986 q 406 1021 421 1014 q 374 1028 392 1028 q 345 1008 358 1028 q 332 972 332 989 l 290 972 z "},"Ä":{"ha":882,"x_min":31,"x_max":919,"o":"m 864 -7 q 732 30 797 -7 q 628 174 667 67 l 593 264 l 204 264 l 93 0 l 31 0 l 419 917 l 461 917 l 767 174 q 832 63 801 93 q 919 28 863 33 l 919 0 q 864 -7 894 -7 m 565 319 l 399 722 l 225 319 l 565 319 m 322 958 q 272 977 290 958 q 253 1028 253 996 q 272 1078 253 1060 q 322 1097 290 1097 q 373 1078 354 1097 q 392 1028 392 1060 q 373 977 392 996 q 322 958 354 958 m 558 958 q 508 977 526 958 q 489 1028 489 996 q 508 1078 489 1060 q 558 1097 526 1097 q 609 1078 590 1097 q 628 1028 628 1060 q 609 977 628 996 q 558 958 590 958 z "},"Å":{"ha":883,"x_min":31,"x_max":919,"o":"m 864 -7 q 732 30 797 -7 q 628 174 667 67 l 593 264 l 204 264 l 93 0 l 31 0 l 399 868 q 344 909 367 882 q 322 979 322 936 q 358 1062 322 1026 q 440 1097 393 1097 q 523 1062 488 1097 q 558 979 558 1026 q 536 909 558 936 q 482 868 514 882 l 767 174 q 832 63 801 93 q 919 28 863 33 l 919 0 q 864 -7 894 -7 m 468 917 q 503 979 503 942 q 485 1030 503 1011 q 440 1049 467 1049 q 396 1030 414 1049 q 378 979 378 1011 q 413 917 378 942 l 468 917 m 565 319 l 399 722 l 225 319 l 565 319 z "},"Æ":{"ha":1201,"x_min":-19,"x_max":1161,"o":"m 494 917 l 996 917 q 1114 806 1114 917 l 1114 701 l 1086 701 q 913 861 1086 861 l 654 861 l 654 500 l 1029 500 l 1029 444 l 654 444 l 654 56 l 897 56 q 1047 90 993 56 q 1133 208 1101 125 l 1161 201 l 1113 69 q 1008 0 1088 0 l 529 0 l 529 264 l 196 264 l 50 0 l -19 0 l 494 917 m 529 319 l 529 854 l 231 319 l 529 319 z "},"Ç":{"ha":924,"x_min":61,"x_max":874,"o":"m 874 201 q 726 31 814 83 q 519 -28 639 -22 l 519 -69 q 644 -171 644 -69 q 613 -245 644 -218 q 533 -272 582 -272 l 450 -272 l 450 -215 l 519 -215 q 575 -171 575 -215 q 519 -125 575 -125 l 457 -125 l 457 -26 q 248 47 338 -18 q 110 215 158 111 q 61 444 61 319 q 119 696 61 581 q 276 878 176 811 q 492 944 375 944 q 687 913 603 944 q 811 833 771 882 q 840 756 835 804 q 846 625 846 708 l 818 625 q 721 824 792 760 q 533 889 650 889 q 292 783 383 889 q 200 444 200 678 q 235 240 200 335 q 346 87 271 146 q 533 28 421 28 q 710 76 635 28 q 846 222 786 125 l 874 201 z "},"È":{"ha":819,"x_min":22,"x_max":779,"o":"m 147 750 q 128 855 147 821 q 50 889 108 889 l 22 889 l 22 917 l 614 917 q 732 806 732 917 l 732 701 l 704 701 q 531 861 704 861 l 272 861 l 272 500 l 647 500 l 647 444 l 272 444 l 272 56 l 515 56 q 665 90 611 56 q 751 208 719 125 l 779 201 l 731 69 q 626 0 706 0 l 147 0 l 147 750 m 272 1153 l 404 1153 l 460 972 l 404 972 l 272 1153 z "},"É":{"ha":819,"x_min":22,"x_max":779,"o":"m 147 750 q 128 855 147 821 q 50 889 108 889 l 22 889 l 22 917 l 614 917 q 732 806 732 917 l 732 701 l 704 701 q 531 861 704 861 l 272 861 l 272 500 l 647 500 l 647 444 l 272 444 l 272 56 l 515 56 q 665 90 611 56 q 751 208 719 125 l 779 201 l 731 69 q 626 0 706 0 l 147 0 l 147 750 m 439 1153 l 571 1153 l 439 972 l 383 972 l 439 1153 z "},"Ê":{"ha":819,"x_min":22,"x_max":779,"o":"m 147 750 q 128 855 147 821 q 50 889 108 889 l 22 889 l 22 917 l 614 917 q 732 806 732 917 l 732 701 l 704 701 q 531 861 704 861 l 272 861 l 272 500 l 647 500 l 647 444 l 272 444 l 272 56 l 515 56 q 665 90 611 56 q 751 208 719 125 l 779 201 l 731 69 q 626 0 706 0 l 147 0 l 147 750 m 342 1161 l 494 1161 l 606 1001 l 536 1001 l 418 1113 l 300 1001 l 231 1001 l 342 1161 z "},"Ë":{"ha":819,"x_min":22,"x_max":779,"o":"m 147 750 q 128 855 147 821 q 50 889 108 889 l 22 889 l 22 917 l 614 917 q 732 806 732 917 l 732 701 l 704 701 q 531 861 704 861 l 272 861 l 272 500 l 647 500 l 647 444 l 272 444 l 272 56 l 515 56 q 665 90 611 56 q 751 208 719 125 l 779 201 l 731 69 q 626 0 706 0 l 147 0 l 147 750 m 311 1014 q 267 1032 285 1014 q 249 1076 249 1050 q 267 1121 249 1103 q 311 1139 285 1139 q 356 1121 338 1139 q 374 1076 374 1103 q 356 1032 374 1050 q 311 1014 338 1014 m 547 1014 q 503 1032 521 1014 q 485 1076 485 1050 q 503 1121 485 1103 q 547 1139 521 1139 q 592 1121 574 1139 q 610 1076 610 1103 q 592 1032 610 1050 q 547 1014 574 1014 z "},"Ì":{"ha":396,"x_min":42,"x_max":374,"o":"m 249 0 q 172 13 197 0 q 135 61 146 26 q 124 167 124 96 l 124 917 l 249 917 l 249 167 q 268 62 249 96 q 346 28 288 28 l 374 28 l 374 0 l 249 0 m 42 1153 l 174 1153 l 229 972 l 174 972 l 42 1153 z "},"Í":{"ha":396,"x_min":124,"x_max":374,"o":"m 249 0 q 172 13 197 0 q 135 61 146 26 q 124 167 124 96 l 124 917 l 249 917 l 249 167 q 268 62 249 96 q 346 28 288 28 l 374 28 l 374 0 l 249 0 m 207 1153 l 339 1153 l 207 972 l 151 972 l 207 1153 z "},"Î":{"ha":396,"x_min":-1,"x_max":374,"o":"m 249 0 q 172 13 197 0 q 135 61 146 26 q 124 167 124 96 l 124 917 l 249 917 l 249 167 q 268 62 249 96 q 346 28 288 28 l 374 28 l 374 0 l 249 0 m 110 1125 l 263 1125 l 374 965 l 304 965 l 186 1076 l 68 965 l -1 965 l 110 1125 z "},"Ï":{"ha":396,"x_min":10,"x_max":374,"o":"m 79 993 q 28 1012 47 993 q 10 1063 10 1031 q 28 1113 10 1094 q 79 1132 47 1132 q 130 1113 111 1132 q 149 1063 149 1094 q 130 1012 149 1031 q 79 993 111 993 m 293 993 q 242 1012 261 993 q 224 1063 224 1031 q 242 1113 224 1094 q 293 1132 261 1132 q 344 1113 325 1132 q 363 1063 363 1094 q 344 1012 363 1031 q 293 993 325 993 m 249 0 q 172 13 197 0 q 135 61 146 26 q 124 167 124 96 l 124 917 l 249 917 l 249 167 q 268 62 249 96 q 346 28 288 28 l 374 28 l 374 0 l 249 0 z "},"Ð":{"ha":993,"x_min":22,"x_max":932,"o":"m 147 431 l 43 431 l 43 486 l 147 486 l 147 750 q 128 855 147 821 q 50 889 108 889 l 22 889 l 22 917 l 386 917 q 794 797 656 917 q 932 464 932 678 q 874 222 932 326 q 701 58 815 117 q 422 0 586 0 l 147 0 l 147 431 m 418 49 q 603 99 521 49 q 733 242 686 150 q 781 458 781 335 q 734 672 781 579 q 604 817 688 765 q 415 868 521 868 q 276 846 349 868 l 276 486 l 397 486 l 397 431 l 276 431 l 276 67 q 418 49 354 49 z "},"Ñ":{"ha":951,"x_min":14,"x_max":833,"o":"m 208 729 l 208 0 l 153 0 l 153 750 q 124 853 153 817 q 28 889 96 889 l 14 889 l 14 917 l 104 917 q 213 896 168 917 q 292 833 257 875 l 778 229 l 778 917 l 833 917 l 833 -14 l 806 -14 l 208 729 m 329 964 q 349 1066 329 1036 q 413 1096 369 1096 q 451 1088 433 1096 q 489 1067 468 1081 q 507 1056 493 1064 q 533 1044 521 1049 q 558 1040 546 1040 q 587 1060 574 1040 q 600 1096 600 1079 l 642 1096 q 622 994 642 1024 q 558 964 601 964 q 522 971 539 964 q 483 992 504 978 q 445 1013 460 1006 q 413 1019 431 1019 q 384 1000 397 1019 q 371 964 371 981 l 329 964 z "},"Ò":{"ha":989,"x_min":64,"x_max":925,"o":"m 494 -28 q 267 36 365 -28 q 117 211 169 100 q 64 458 64 322 q 117 706 64 594 q 267 881 169 817 q 494 944 365 944 q 722 881 624 944 q 872 706 819 817 q 925 458 925 594 q 872 211 925 322 q 722 36 819 100 q 494 -28 624 -28 m 494 28 q 651 81 585 28 q 751 230 717 133 q 786 458 786 326 q 751 687 786 590 q 651 836 717 783 q 494 889 585 889 q 338 836 404 889 q 238 687 272 783 q 203 458 203 590 q 238 230 203 326 q 338 81 272 133 q 494 28 404 28 m 342 1186 l 474 1186 l 529 1006 l 474 1006 l 342 1186 z "},"Ó":{"ha":989,"x_min":64,"x_max":925,"o":"m 494 -28 q 267 36 365 -28 q 117 211 169 100 q 64 458 64 322 q 117 706 64 594 q 267 881 169 817 q 494 944 365 944 q 722 881 624 944 q 872 706 819 817 q 925 458 925 594 q 872 211 925 322 q 722 36 819 100 q 494 -28 624 -28 m 494 28 q 651 81 585 28 q 751 230 717 133 q 786 458 786 326 q 751 687 786 590 q 651 836 717 783 q 494 889 585 889 q 338 836 404 889 q 238 687 272 783 q 203 458 203 590 q 238 230 203 326 q 338 81 272 133 q 494 28 404 28 m 521 1181 l 653 1181 l 521 1000 l 465 1000 l 521 1181 z "},"Ô":{"ha":989,"x_min":64,"x_max":925,"o":"m 494 -28 q 267 36 365 -28 q 117 211 169 100 q 64 458 64 322 q 117 706 64 594 q 267 881 169 817 q 494 944 365 944 q 722 881 624 944 q 872 706 819 817 q 925 458 925 594 q 872 211 925 322 q 722 36 819 100 q 494 -28 624 -28 m 494 28 q 651 81 585 28 q 751 230 717 133 q 786 458 786 326 q 751 687 786 590 q 651 836 717 783 q 494 889 585 889 q 338 836 404 889 q 238 687 272 783 q 203 458 203 590 q 238 230 203 326 q 338 81 272 133 q 494 28 404 28 m 411 1160 l 564 1160 l 675 1000 l 606 1000 l 488 1111 l 369 1000 l 300 1000 l 411 1160 z "},"Õ":{"ha":989,"x_min":64,"x_max":925,"o":"m 494 -28 q 267 36 365 -28 q 117 211 169 100 q 64 458 64 322 q 117 706 64 594 q 267 881 169 817 q 494 944 365 944 q 722 881 624 944 q 872 706 819 817 q 925 458 925 594 q 872 211 925 322 q 722 36 819 100 q 494 -28 624 -28 m 494 28 q 651 81 585 28 q 751 230 717 133 q 786 458 786 326 q 751 687 786 590 q 651 836 717 783 q 494 889 585 889 q 338 836 404 889 q 238 687 272 783 q 203 458 203 590 q 238 230 203 326 q 338 81 272 133 q 494 28 404 28 m 336 1025 q 356 1127 336 1097 q 419 1157 376 1157 q 458 1149 440 1157 q 496 1128 475 1142 q 514 1117 500 1125 q 540 1106 528 1110 q 565 1101 553 1101 q 594 1121 581 1101 q 607 1157 607 1140 l 649 1157 q 628 1055 649 1085 q 565 1025 608 1025 q 528 1032 546 1025 q 490 1053 511 1039 q 452 1074 467 1067 q 419 1081 438 1081 q 391 1061 404 1081 q 378 1025 378 1042 l 336 1025 z "},"Ö":{"ha":989,"x_min":64,"x_max":925,"o":"m 494 -28 q 267 36 365 -28 q 117 211 169 100 q 64 458 64 322 q 117 706 64 594 q 267 881 169 817 q 494 944 365 944 q 722 881 624 944 q 872 706 819 817 q 925 458 925 594 q 872 211 925 322 q 722 36 819 100 q 494 -28 624 -28 m 494 28 q 651 81 585 28 q 751 230 717 133 q 786 458 786 326 q 751 687 786 590 q 651 836 717 783 q 494 889 585 889 q 338 836 404 889 q 238 687 272 783 q 203 458 203 590 q 238 230 203 326 q 338 81 272 133 q 494 28 404 28 m 399 1021 q 354 1039 372 1021 q 336 1083 336 1057 q 354 1128 336 1110 q 399 1146 372 1146 q 443 1128 425 1146 q 461 1083 461 1110 q 443 1039 461 1057 q 399 1021 425 1021 m 635 1021 q 590 1039 608 1021 q 572 1083 572 1057 q 590 1128 572 1110 q 635 1146 608 1146 q 679 1128 661 1146 q 697 1083 697 1110 q 679 1039 697 1057 q 635 1021 661 1021 z "},"×":{"ha":651,"x_min":71,"x_max":581,"o":"m 71 267 l 267 463 l 71 660 l 129 718 l 326 521 l 522 718 l 581 658 l 385 463 l 581 265 l 522 207 l 325 404 l 129 207 l 71 267 z "},"Ø":{"ha":989,"x_min":64,"x_max":925,"o":"m 226 67 q 106 235 149 133 q 64 458 64 336 q 117 706 64 594 q 267 881 169 817 q 494 944 365 944 q 681 903 594 944 l 704 944 l 806 944 l 756 854 q 881 685 836 788 q 925 458 925 582 q 872 211 925 322 q 722 36 819 100 q 494 -28 624 -28 q 300 17 386 -28 l 276 -28 l 175 -28 l 226 67 m 646 839 q 494 889 582 889 q 338 836 404 889 q 238 687 272 783 q 203 458 203 590 q 274 154 203 268 l 646 839 m 494 28 q 651 81 585 28 q 751 230 717 133 q 786 458 786 326 q 710 769 786 650 l 336 82 q 494 28 406 28 z "},"Ù":{"ha":954,"x_min":13,"x_max":846,"o":"m 492 -14 q 281 31 358 -14 q 170 165 203 76 q 138 396 138 254 l 138 750 q 118 855 138 821 q 40 889 99 889 l 13 889 l 13 917 l 138 917 q 215 903 189 917 q 251 856 240 890 q 263 750 263 821 l 263 354 q 319 121 263 200 q 508 42 376 42 q 676 79 614 42 q 764 193 738 117 q 790 396 790 269 l 790 917 l 846 917 l 846 396 q 815 163 846 251 q 708 31 785 75 q 492 -14 631 -14 m 374 1125 l 506 1125 l 561 944 l 506 944 l 374 1125 z "},"Ú":{"ha":954,"x_min":13,"x_max":846,"o":"m 492 -14 q 281 31 358 -14 q 170 165 203 76 q 138 396 138 254 l 138 750 q 118 855 138 821 q 40 889 99 889 l 13 889 l 13 917 l 138 917 q 215 903 189 917 q 251 856 240 890 q 263 750 263 821 l 263 354 q 319 121 263 200 q 508 42 376 42 q 676 79 614 42 q 764 193 738 117 q 790 396 790 269 l 790 917 l 846 917 l 846 396 q 815 163 846 251 q 708 31 785 75 q 492 -14 631 -14 m 513 1125 l 644 1125 l 513 944 l 457 944 l 513 1125 z "},"Û":{"ha":954,"x_min":13,"x_max":846,"o":"m 492 -14 q 281 31 358 -14 q 170 165 203 76 q 138 396 138 254 l 138 750 q 118 855 138 821 q 40 889 99 889 l 13 889 l 13 917 l 138 917 q 215 903 189 917 q 251 856 240 890 q 263 750 263 821 l 263 354 q 319 121 263 200 q 508 42 376 42 q 676 79 614 42 q 764 193 738 117 q 790 396 790 269 l 790 917 l 846 917 l 846 396 q 815 163 846 251 q 708 31 785 75 q 492 -14 631 -14 m 443 1092 l 596 1092 l 707 932 l 638 932 l 519 1043 l 401 932 l 332 932 l 443 1092 z "},"Ü":{"ha":954,"x_min":13,"x_max":846,"o":"m 492 -14 q 281 31 358 -14 q 170 165 203 76 q 138 396 138 254 l 138 750 q 118 855 138 821 q 40 889 99 889 l 13 889 l 13 917 l 138 917 q 215 903 189 917 q 251 856 240 890 q 263 750 263 821 l 263 354 q 319 121 263 200 q 508 42 376 42 q 676 79 614 42 q 764 193 738 117 q 790 396 790 269 l 790 917 l 846 917 l 846 396 q 815 163 846 251 q 708 31 785 75 q 492 -14 631 -14 m 397 943 q 353 961 371 943 q 335 1006 335 979 q 353 1050 335 1032 q 397 1068 371 1068 q 442 1050 424 1068 q 460 1006 460 1032 q 442 961 460 979 q 397 943 424 943 m 633 943 q 589 961 607 943 q 571 1006 571 979 q 589 1050 571 1032 q 633 1068 607 1068 q 678 1050 660 1068 q 696 1006 696 1032 q 678 961 696 979 q 633 943 660 943 z "},"Ý":{"ha":872,"x_min":-35,"x_max":853,"o":"m 403 379 l 167 736 q 106 817 131 788 q 47 866 81 846 q -35 889 13 886 l -35 917 l 90 917 q 207 876 160 917 q 299 764 254 835 l 500 451 l 790 917 l 853 917 l 528 389 l 528 0 l 403 0 l 403 379 m 493 1111 l 625 1111 l 493 931 l 438 931 l 493 1111 z "},"Þ":{"ha":743,"x_min":26,"x_max":707,"o":"m 151 833 q 129 908 151 886 q 54 931 107 931 l 26 931 l 26 958 l 151 958 q 250 932 224 958 q 276 833 276 906 l 276 764 q 597 681 488 764 q 707 438 707 599 q 597 194 707 276 q 276 111 488 111 l 276 -42 l 151 -42 l 151 833 m 276 167 q 497 239 426 167 q 568 438 568 311 q 497 636 568 564 q 276 708 426 708 l 276 167 z "},"ß":{"ha":769,"x_min":100,"x_max":732,"o":"m 531 -14 q 430 1 476 -14 q 357 42 383 15 q 328 91 333 65 q 322 153 322 117 l 350 153 q 399 76 356 110 q 503 42 443 42 q 584 69 554 42 q 614 139 614 96 q 581 220 614 188 q 482 293 549 253 q 402 347 432 324 q 351 406 372 371 q 329 486 329 440 q 351 572 329 540 q 415 640 372 603 q 470 697 451 671 q 489 764 489 724 q 458 847 489 818 q 364 875 426 875 q 259 835 293 875 q 225 694 225 794 l 225 0 l 100 0 l 100 694 q 172 880 100 829 q 371 931 244 931 q 546 893 485 931 q 607 792 607 856 q 585 706 607 738 q 521 638 564 675 q 466 581 485 607 q 447 514 447 554 q 480 433 447 465 q 579 360 513 400 q 659 306 629 329 q 710 247 689 282 q 732 167 732 213 q 678 31 732 75 q 531 -14 624 -14 z "},"à":{"ha":668,"x_min":54,"x_max":575,"o":"m 256 -14 q 165 5 211 -14 q 87 67 119 24 q 54 181 54 110 q 152 331 54 286 q 408 375 250 375 l 450 375 q 413 561 450 511 q 304 611 375 611 q 204 585 242 611 q 151 493 167 558 l 89 493 q 94 567 89 540 q 124 618 100 594 q 206 655 149 643 q 332 667 264 667 q 510 606 444 667 q 575 375 575 546 l 575 0 l 506 0 l 457 63 l 450 63 q 376 8 425 31 q 256 -14 328 -14 m 318 49 q 394 71 364 49 q 450 132 425 93 l 450 319 l 408 319 q 246 281 306 319 q 186 181 186 243 q 224 83 186 117 q 318 49 263 49 m 172 910 l 304 910 l 360 729 l 304 729 l 172 910 z "},"á":{"ha":668,"x_min":54,"x_max":575,"o":"m 256 -14 q 165 5 211 -14 q 87 67 119 24 q 54 181 54 110 q 152 331 54 286 q 408 375 250 375 l 450 375 q 413 561 450 511 q 304 611 375 611 q 204 585 242 611 q 151 493 167 558 l 89 493 q 94 567 89 540 q 124 618 100 594 q 206 655 149 643 q 332 667 264 667 q 510 606 444 667 q 575 375 575 546 l 575 0 l 506 0 l 457 63 l 450 63 q 376 8 425 31 q 256 -14 328 -14 m 318 49 q 394 71 364 49 q 450 132 425 93 l 450 319 l 408 319 q 246 281 306 319 q 186 181 186 243 q 224 83 186 117 q 318 49 263 49 m 335 910 l 467 910 l 335 729 l 279 729 l 335 910 z "},"â":{"ha":668,"x_min":54,"x_max":575,"o":"m 256 -14 q 165 5 211 -14 q 87 67 119 24 q 54 181 54 110 q 152 331 54 286 q 408 375 250 375 l 450 375 q 413 561 450 511 q 304 611 375 611 q 204 585 242 611 q 151 493 167 558 l 89 493 q 94 567 89 540 q 124 618 100 594 q 206 655 149 643 q 332 667 264 667 q 510 606 444 667 q 575 375 575 546 l 575 0 l 506 0 l 457 63 l 450 63 q 376 8 425 31 q 256 -14 328 -14 m 318 49 q 394 71 364 49 q 450 132 425 93 l 450 319 l 408 319 q 246 281 306 319 q 186 181 186 243 q 224 83 186 117 q 318 49 263 49 m 257 896 l 410 896 l 521 736 l 451 736 l 333 847 l 215 736 l 146 736 l 257 896 z "},"ã":{"ha":668,"x_min":54,"x_max":575,"o":"m 256 -14 q 165 5 211 -14 q 87 67 119 24 q 54 181 54 110 q 152 331 54 286 q 408 375 250 375 l 450 375 q 413 561 450 511 q 304 611 375 611 q 204 585 242 611 q 151 493 167 558 l 89 493 q 94 567 89 540 q 124 618 100 594 q 206 655 149 643 q 332 667 264 667 q 510 606 444 667 q 575 375 575 546 l 575 0 l 506 0 l 457 63 l 450 63 q 376 8 425 31 q 256 -14 328 -14 m 318 49 q 394 71 364 49 q 450 132 425 93 l 450 319 l 408 319 q 246 281 306 319 q 186 181 186 243 q 224 83 186 117 q 318 49 263 49 m 171 743 q 191 845 171 815 q 254 875 211 875 q 292 867 275 875 q 331 846 310 860 q 349 835 335 843 q 375 824 363 828 q 400 819 388 819 q 428 839 415 819 q 442 875 442 858 l 483 875 q 463 773 483 803 q 400 743 443 743 q 363 750 381 743 q 325 771 346 757 q 287 792 301 785 q 254 799 272 799 q 226 779 239 799 q 213 743 213 760 l 171 743 z "},"ä":{"ha":668,"x_min":54,"x_max":575,"o":"m 256 -14 q 165 5 211 -14 q 87 67 119 24 q 54 181 54 110 q 152 331 54 286 q 408 375 250 375 l 450 375 q 413 561 450 511 q 304 611 375 611 q 204 585 242 611 q 151 493 167 558 l 89 493 q 94 567 89 540 q 124 618 100 594 q 206 655 149 643 q 332 667 264 667 q 510 606 444 667 q 575 375 575 546 l 575 0 l 506 0 l 457 63 l 450 63 q 376 8 425 31 q 256 -14 328 -14 m 318 49 q 394 71 364 49 q 450 132 425 93 l 450 319 l 408 319 q 246 281 306 319 q 186 181 186 243 q 224 83 186 117 q 318 49 263 49 m 214 743 q 169 761 188 743 q 151 806 151 779 q 169 850 151 832 q 214 868 188 868 q 258 850 240 868 q 276 806 276 832 q 258 761 276 779 q 214 743 240 743 m 450 743 q 406 761 424 743 q 388 806 388 779 q 406 850 388 832 q 450 868 424 868 q 494 850 476 868 q 513 806 513 832 q 494 761 513 779 q 450 743 476 743 z "},"å":{"ha":668,"x_min":54,"x_max":575,"o":"m 256 -14 q 165 5 211 -14 q 87 67 119 24 q 54 181 54 110 q 152 331 54 286 q 408 375 250 375 l 450 375 q 413 561 450 511 q 304 611 375 611 q 204 585 242 611 q 151 493 167 558 l 89 493 q 94 567 89 540 q 124 618 100 594 q 206 655 149 643 q 332 667 264 667 q 510 606 444 667 q 575 375 575 546 l 575 0 l 506 0 l 457 63 l 450 63 q 376 8 425 31 q 256 -14 328 -14 m 318 49 q 394 71 364 49 q 450 132 425 93 l 450 319 l 408 319 q 246 281 306 319 q 186 181 186 243 q 224 83 186 117 q 318 49 263 49 m 325 736 q 242 772 278 736 q 207 854 207 807 q 242 937 207 901 q 325 972 278 972 q 408 937 372 972 q 443 854 443 901 q 408 772 443 807 q 325 736 372 736 m 325 785 q 369 803 351 785 q 388 854 388 822 q 369 905 388 886 q 325 924 351 924 q 281 905 299 924 q 263 854 263 886 q 281 803 263 822 q 325 785 299 785 z "},"æ":{"ha":1054,"x_min":54,"x_max":992,"o":"m 276 -14 q 122 31 189 -14 q 54 174 54 75 q 152 317 54 274 q 408 361 250 361 l 450 361 q 413 558 450 506 q 304 611 375 611 q 204 585 242 611 q 151 493 167 558 l 89 493 q 94 567 89 540 q 124 618 100 594 q 206 655 149 643 q 332 667 264 667 q 453 632 403 667 q 526 542 504 597 q 599 632 549 597 q 714 667 649 667 q 923 588 854 667 q 992 361 992 510 l 989 306 l 575 306 q 625 115 575 189 q 763 42 675 42 q 873 69 828 42 q 957 153 918 97 l 985 132 q 878 21 939 56 q 735 -14 817 -14 q 499 104 572 -14 q 415 15 467 44 q 276 -14 363 -14 m 867 361 q 830 542 867 479 q 721 604 793 604 q 646 572 679 604 q 594 485 613 540 q 575 361 575 429 l 867 361 m 318 49 q 394 71 364 49 q 450 132 425 93 l 450 306 l 408 306 q 246 269 306 306 q 186 174 186 233 q 224 81 186 114 q 318 49 261 49 z "},"ç":{"ha":671,"x_min":63,"x_max":625,"o":"m 625 132 q 524 25 582 60 q 390 -14 467 -10 l 390 -69 q 515 -171 515 -69 q 484 -245 515 -218 q 404 -272 453 -272 l 321 -272 l 321 -215 l 390 -215 q 446 -171 446 -215 q 390 -125 446 -125 l 328 -125 l 328 -12 q 131 95 199 1 q 63 326 63 189 q 97 499 63 422 q 199 622 131 576 q 368 667 268 667 q 569 618 521 667 q 599 560 593 594 q 604 438 604 526 l 576 438 q 522 567 571 524 q 396 611 474 611 q 245 532 296 611 q 194 326 194 453 q 245 121 194 200 q 396 42 296 42 q 513 69 467 42 q 597 153 558 96 l 625 132 z "},"è":{"ha":678,"x_min":63,"x_max":618,"o":"m 354 -14 q 194 31 260 -14 q 96 153 129 76 q 63 326 63 231 q 96 499 63 421 q 192 622 129 576 q 340 667 256 667 q 549 588 481 667 q 618 361 618 510 l 615 306 l 194 306 q 244 115 194 189 q 382 42 294 42 q 492 69 447 42 q 576 153 538 97 l 604 132 q 497 21 558 56 q 354 -14 436 -14 m 486 361 q 450 547 486 483 q 340 611 414 611 q 265 578 299 611 q 213 489 232 546 q 194 361 194 432 l 486 361 m 188 910 l 319 910 l 375 729 l 319 729 l 188 910 z "},"é":{"ha":678,"x_min":63,"x_max":618,"o":"m 354 -14 q 194 31 260 -14 q 96 153 129 76 q 63 326 63 231 q 96 499 63 421 q 192 622 129 576 q 340 667 256 667 q 549 588 481 667 q 618 361 618 510 l 615 306 l 194 306 q 244 115 194 189 q 382 42 294 42 q 492 69 447 42 q 576 153 538 97 l 604 132 q 497 21 558 56 q 354 -14 436 -14 m 486 361 q 450 547 486 483 q 340 611 414 611 q 265 578 299 611 q 213 489 232 546 q 194 361 194 432 l 486 361 m 360 908 l 492 908 l 360 728 l 304 728 l 360 908 z "},"ê":{"ha":678,"x_min":63,"x_max":618,"o":"m 354 -14 q 194 31 260 -14 q 96 153 129 76 q 63 326 63 231 q 96 499 63 421 q 192 622 129 576 q 340 667 256 667 q 549 588 481 667 q 618 361 618 510 l 615 306 l 194 306 q 244 115 194 189 q 382 42 294 42 q 492 69 447 42 q 576 153 538 97 l 604 132 q 497 21 558 56 q 354 -14 436 -14 m 486 361 q 450 547 486 483 q 340 611 414 611 q 265 578 299 611 q 213 489 232 546 q 194 361 194 432 l 486 361 m 271 896 l 424 896 l 535 736 l 465 736 l 347 847 l 229 736 l 160 736 l 271 896 z "},"ë":{"ha":678,"x_min":63,"x_max":618,"o":"m 354 -14 q 194 31 260 -14 q 96 153 129 76 q 63 326 63 231 q 96 499 63 421 q 192 622 129 576 q 340 667 256 667 q 549 588 481 667 q 618 361 618 510 l 615 306 l 194 306 q 244 115 194 189 q 382 42 294 42 q 492 69 447 42 q 576 153 538 97 l 604 132 q 497 21 558 56 q 354 -14 436 -14 m 486 361 q 450 547 486 483 q 340 611 414 611 q 265 578 299 611 q 213 489 232 546 q 194 361 194 432 l 486 361 m 215 757 q 171 775 189 757 q 153 819 153 793 q 171 864 153 846 q 215 882 189 882 q 260 864 242 882 q 278 819 278 846 q 260 775 278 793 q 215 757 242 757 m 451 757 q 407 775 425 757 q 389 819 389 793 q 407 864 389 846 q 451 882 425 882 q 496 864 478 882 q 514 819 514 846 q 496 775 514 793 q 451 757 478 757 z "},"ì":{"ha":342,"x_min":-4,"x_max":246,"o":"m 121 486 q 101 591 121 557 q 24 625 82 625 l -4 625 l -4 653 l 121 653 q 198 640 172 653 q 235 592 224 626 q 246 486 246 557 l 246 0 l 121 0 l 121 486 m 31 910 l 163 910 l 218 729 l 163 729 l 31 910 z "},"í":{"ha":342,"x_min":-4,"x_max":317,"o":"m 121 486 q 101 591 121 557 q 24 625 82 625 l -4 625 l -4 653 l 121 653 q 198 640 172 653 q 235 592 224 626 q 246 486 246 557 l 246 0 l 121 0 l 121 486 m 185 910 l 317 910 l 185 729 l 129 729 l 185 910 z "},"î":{"ha":342,"x_min":-15,"x_max":360,"o":"m 121 486 q 101 591 121 557 q 24 625 82 625 l -4 625 l -4 653 l 121 653 q 198 640 172 653 q 235 592 224 626 q 246 486 246 557 l 246 0 l 121 0 l 121 486 m 96 897 l 249 897 l 360 738 l 290 738 l 172 849 l 54 738 l -15 738 l 96 897 z "},"ï":{"ha":342,"x_min":-6,"x_max":350,"o":"m 72 750 q 17 776 40 750 q -6 839 -6 803 q 12 885 -6 868 q 58 901 29 901 q 113 875 90 901 q 136 813 136 849 q 119 767 136 783 q 72 750 101 750 m 286 750 q 231 776 254 750 q 208 839 208 803 q 226 885 208 868 q 272 901 243 901 q 327 875 304 901 q 350 813 350 849 q 333 767 350 783 q 286 750 315 750 m 121 486 q 101 591 121 557 q 24 625 82 625 l -4 625 l -4 653 l 121 653 q 198 640 172 653 q 235 592 224 626 q 246 486 246 557 l 246 0 l 121 0 l 121 486 z "},"ð":{"ha":746,"x_min":61,"x_max":672,"o":"m 367 -14 q 203 31 272 -14 q 97 154 133 76 q 61 326 61 232 q 97 499 61 421 q 203 622 133 576 q 367 667 272 667 q 473 638 425 667 q 547 556 521 608 q 508 685 531 632 q 450 778 486 738 l 394 722 l 353 764 l 408 819 q 341 867 375 853 q 256 882 307 882 q 220 879 238 882 q 194 874 203 876 l 183 900 q 240 924 210 918 q 311 931 269 931 q 471 875 393 931 l 519 931 l 561 889 l 513 840 q 631 647 589 764 q 672 375 672 529 q 592 91 672 196 q 367 -14 511 -14 m 367 42 q 458 79 418 42 q 519 182 497 117 q 540 326 540 247 q 519 471 540 406 q 458 574 497 536 q 367 611 418 611 q 276 574 315 611 q 215 471 236 536 q 193 326 193 406 q 215 182 193 247 q 276 79 236 117 q 367 42 315 42 z "},"ñ":{"ha":756,"x_min":-4,"x_max":663,"o":"m 121 486 q 101 591 121 557 q 24 625 82 625 l -4 625 l -4 653 l 121 653 q 199 639 172 653 q 239 597 226 625 q 322 646 274 625 q 426 667 369 667 q 597 611 531 667 q 663 417 663 556 l 663 0 l 538 0 l 538 417 q 494 559 538 514 q 385 604 450 604 q 246 531 311 604 l 246 0 l 121 0 l 121 486 m 235 756 q 255 858 235 828 q 318 888 275 888 q 356 880 339 888 q 394 858 374 872 q 413 848 399 856 q 439 836 426 840 q 464 832 451 832 q 492 851 479 832 q 506 888 506 871 l 547 888 q 527 785 547 815 q 464 756 507 756 q 427 763 444 756 q 389 783 410 769 q 351 804 365 797 q 318 811 336 811 q 290 792 303 811 q 276 756 276 772 l 235 756 z "},"ò":{"ha":736,"x_min":63,"x_max":674,"o":"m 368 -14 q 204 31 274 -14 q 99 154 135 76 q 63 326 63 232 q 99 499 63 421 q 204 622 135 576 q 368 667 274 667 q 532 622 463 667 q 638 499 601 576 q 674 326 674 421 q 638 154 674 232 q 532 31 601 76 q 368 -14 463 -14 m 368 42 q 459 79 419 42 q 520 182 499 117 q 542 326 542 247 q 520 471 542 406 q 459 574 499 536 q 368 611 419 611 q 277 574 317 611 q 216 471 238 536 q 194 326 194 406 q 216 182 194 247 q 277 79 238 117 q 368 42 317 42 m 222 910 l 354 910 l 410 729 l 354 729 l 222 910 z "},"ó":{"ha":736,"x_min":63,"x_max":674,"o":"m 368 -14 q 204 31 274 -14 q 99 154 135 76 q 63 326 63 232 q 99 499 63 421 q 204 622 135 576 q 368 667 274 667 q 532 622 463 667 q 638 499 601 576 q 674 326 674 421 q 638 154 674 232 q 532 31 601 76 q 368 -14 463 -14 m 368 42 q 459 79 419 42 q 520 182 499 117 q 542 326 542 247 q 520 471 542 406 q 459 574 499 536 q 368 611 419 611 q 277 574 317 611 q 216 471 238 536 q 194 326 194 406 q 216 182 194 247 q 277 79 238 117 q 368 42 317 42 m 379 908 l 511 908 l 379 728 l 324 728 l 379 908 z "},"ô":{"ha":736,"x_min":63,"x_max":674,"o":"m 368 -14 q 204 31 274 -14 q 99 154 135 76 q 63 326 63 232 q 99 499 63 421 q 204 622 135 576 q 368 667 274 667 q 532 622 463 667 q 638 499 601 576 q 674 326 674 421 q 638 154 674 232 q 532 31 601 76 q 368 -14 463 -14 m 368 42 q 459 79 419 42 q 520 182 499 117 q 542 326 542 247 q 520 471 542 406 q 459 574 499 536 q 368 611 419 611 q 277 574 317 611 q 216 471 238 536 q 194 326 194 406 q 216 182 194 247 q 277 79 238 117 q 368 42 317 42 m 293 888 l 446 888 l 557 728 l 488 728 l 369 839 l 251 728 l 182 728 l 293 888 z "},"õ":{"ha":736,"x_min":63,"x_max":674,"o":"m 368 -14 q 204 31 274 -14 q 99 154 135 76 q 63 326 63 232 q 99 499 63 421 q 204 622 135 576 q 368 667 274 667 q 532 622 463 667 q 638 499 601 576 q 674 326 674 421 q 638 154 674 232 q 532 31 601 76 q 368 -14 463 -14 m 368 42 q 459 79 419 42 q 520 182 499 117 q 542 326 542 247 q 520 471 542 406 q 459 574 499 536 q 368 611 419 611 q 277 574 317 611 q 216 471 238 536 q 194 326 194 406 q 216 182 194 247 q 277 79 238 117 q 368 42 317 42 m 213 743 q 233 845 213 815 q 296 875 253 875 q 334 867 317 875 q 372 846 351 860 q 390 835 376 843 q 417 824 404 828 q 442 819 429 819 q 470 839 457 819 q 483 875 483 858 l 525 875 q 505 773 525 803 q 442 743 485 743 q 405 750 422 743 q 367 771 388 757 q 328 792 343 785 q 296 799 314 799 q 267 779 281 799 q 254 743 254 760 l 213 743 z "},"ö":{"ha":736,"x_min":63,"x_max":674,"o":"m 368 -14 q 204 31 274 -14 q 99 154 135 76 q 63 326 63 232 q 99 499 63 421 q 204 622 135 576 q 368 667 274 667 q 532 622 463 667 q 638 499 601 576 q 674 326 674 421 q 638 154 674 232 q 532 31 601 76 q 368 -14 463 -14 m 368 42 q 459 79 419 42 q 520 182 499 117 q 542 326 542 247 q 520 471 542 406 q 459 574 499 536 q 368 611 419 611 q 277 574 317 611 q 216 471 238 536 q 194 326 194 406 q 216 182 194 247 q 277 79 238 117 q 368 42 317 42 m 250 743 q 206 761 224 743 q 188 806 188 779 q 206 850 188 832 q 250 868 224 868 q 294 850 276 868 q 313 806 313 832 q 294 761 313 779 q 250 743 276 743 m 486 743 q 442 761 460 743 q 424 806 424 779 q 442 850 424 832 q 486 868 460 868 q 531 850 513 868 q 549 806 549 832 q 531 761 549 779 q 486 743 513 743 z "},"÷":{"ha":783,"x_min":86,"x_max":697,"o":"m 392 590 q 347 608 365 590 q 329 653 329 626 q 347 697 329 679 q 392 715 365 715 q 436 697 418 715 q 454 653 454 679 q 436 608 454 626 q 392 590 418 590 m 86 500 l 697 500 l 697 417 l 86 417 l 86 500 m 392 201 q 347 219 365 201 q 329 264 329 238 q 347 308 329 290 q 392 326 365 326 q 436 308 418 326 q 454 264 454 290 q 436 219 454 238 q 392 201 418 201 z "},"ø":{"ha":736,"x_min":63,"x_max":674,"o":"m 368 -14 q 210 28 281 -14 l 192 0 l 90 0 l 146 81 q 63 326 63 176 q 99 499 63 421 q 204 622 135 576 q 368 667 274 667 q 525 625 457 667 l 544 653 l 646 653 l 589 571 q 651 462 629 525 q 674 326 674 399 q 638 154 674 232 q 532 31 601 76 q 368 -14 463 -14 m 476 554 q 368 611 431 611 q 277 574 317 611 q 216 471 238 536 q 194 326 194 406 q 217 182 194 244 l 476 554 m 368 42 q 459 79 419 42 q 520 182 499 117 q 542 326 542 247 q 519 471 542 408 l 260 99 q 368 42 304 42 z "},"ù":{"ha":743,"x_min":-10,"x_max":643,"o":"m 338 -14 q 167 42 233 -14 q 101 236 101 97 l 101 486 q 82 591 101 557 q 4 625 63 625 l -10 625 l -10 653 l 101 653 q 178 640 153 653 q 215 592 204 626 q 226 486 226 557 l 226 236 q 270 94 226 139 q 379 49 314 49 q 518 122 453 49 l 518 653 l 643 653 l 643 0 l 574 0 l 525 56 l 518 56 q 442 6 489 26 q 338 -14 396 -14 m 221 875 l 353 875 l 408 694 l 353 694 l 221 875 z "},"ú":{"ha":743,"x_min":-10,"x_max":643,"o":"m 338 -14 q 167 42 233 -14 q 101 236 101 97 l 101 486 q 82 591 101 557 q 4 625 63 625 l -10 625 l -10 653 l 101 653 q 178 640 153 653 q 215 592 204 626 q 226 486 226 557 l 226 236 q 270 94 226 139 q 379 49 314 49 q 518 122 453 49 l 518 653 l 643 653 l 643 0 l 574 0 l 525 56 l 518 56 q 442 6 489 26 q 338 -14 396 -14 m 389 875 l 521 875 l 389 694 l 333 694 l 389 875 z "},"û":{"ha":743,"x_min":-10,"x_max":643,"o":"m 338 -14 q 167 42 233 -14 q 101 236 101 97 l 101 486 q 82 591 101 557 q 4 625 63 625 l -10 625 l -10 653 l 101 653 q 178 640 153 653 q 215 592 204 626 q 226 486 226 557 l 226 236 q 270 94 226 139 q 379 49 314 49 q 518 122 453 49 l 518 653 l 643 653 l 643 0 l 574 0 l 525 56 l 518 56 q 442 6 489 26 q 338 -14 396 -14 m 282 896 l 435 896 l 546 736 l 476 736 l 358 847 l 240 736 l 171 736 l 282 896 z "},"ü":{"ha":743,"x_min":-10,"x_max":643,"o":"m 338 -14 q 167 42 233 -14 q 101 236 101 97 l 101 486 q 82 591 101 557 q 4 625 63 625 l -10 625 l -10 653 l 101 653 q 178 640 153 653 q 215 592 204 626 q 226 486 226 557 l 226 236 q 270 94 226 139 q 379 49 314 49 q 518 122 453 49 l 518 653 l 643 653 l 643 0 l 574 0 l 525 56 l 518 56 q 442 6 489 26 q 338 -14 396 -14 m 240 722 q 196 740 214 722 q 178 785 178 758 q 196 829 178 811 q 240 847 214 847 q 285 829 267 847 q 303 785 303 811 q 285 740 303 758 q 240 722 267 722 m 476 722 q 432 740 450 722 q 414 785 414 758 q 432 829 414 811 q 476 847 450 847 q 521 829 503 847 q 539 785 539 811 q 521 740 539 758 q 476 722 503 722 z "},"ý":{"ha":714,"x_min":-14,"x_max":674,"o":"m 146 -236 q 258 -205 214 -236 q 333 -90 301 -174 l 361 -14 l 139 528 q -14 639 100 628 l -14 667 l 104 667 q 271 556 225 667 l 429 171 l 604 653 l 674 653 l 403 -90 q 314 -239 363 -200 q 188 -278 265 -278 l 146 -278 l 146 -236 m 415 875 l 547 875 l 415 694 l 360 694 l 415 875 z "},"þ":{"ha":726,"x_min":-18,"x_max":663,"o":"m 100 750 q 81 855 100 821 q 3 889 61 889 l -18 889 l -18 917 l 100 917 q 177 903 151 917 q 214 856 203 890 q 225 750 225 821 l 225 590 q 296 644 250 622 q 413 667 342 667 q 597 570 532 667 q 663 326 663 474 q 595 82 663 178 q 399 -14 528 -14 q 306 -3 346 -14 q 225 28 265 8 l 225 -264 l 100 -264 l 100 750 m 357 42 q 488 119 446 42 q 531 326 531 197 q 490 533 531 454 q 371 611 450 611 q 225 528 278 611 l 225 83 q 297 53 267 64 q 357 42 328 42 z "},"ÿ":{"ha":714,"x_min":-14,"x_max":674,"o":"m 146 -236 q 258 -205 214 -236 q 333 -90 301 -174 l 361 -14 l 139 528 q -14 639 100 628 l -14 667 l 104 667 q 271 556 225 667 l 429 171 l 604 653 l 674 653 l 403 -90 q 314 -239 363 -200 q 188 -278 265 -278 l 146 -278 l 146 -236 m 285 722 q 240 740 258 722 q 222 785 222 758 q 240 829 222 811 q 285 847 258 847 q 329 829 311 847 q 347 785 347 811 q 329 740 347 758 q 285 722 311 722 m 521 722 q 476 740 494 722 q 458 785 458 758 q 476 829 458 811 q 521 847 494 847 q 565 829 547 847 q 583 785 583 811 q 565 740 583 758 q 521 722 547 722 z "},"Ğ":{"ha":1000,"x_min":61,"x_max":978,"o":"m 533 -28 q 290 39 397 -28 q 122 220 182 106 q 61 472 61 335 q 114 712 61 604 q 265 882 167 819 q 492 944 363 944 q 698 913 611 944 q 825 833 785 882 q 853 760 847 806 q 860 646 860 714 l 832 646 q 732 828 806 768 q 533 889 658 889 q 346 830 421 889 q 235 676 271 771 q 200 472 200 582 q 292 133 200 238 q 533 28 383 28 q 654 40 604 28 q 749 76 704 53 l 749 318 q 764 400 749 365 q 830 458 779 435 q 978 481 881 481 l 978 453 q 894 421 915 453 q 874 321 874 389 l 874 60 q 717 -7 799 14 q 533 -28 635 -28 m 507 1014 q 326 1139 382 1014 l 354 1160 q 507 1097 404 1097 q 660 1160 610 1097 l 688 1139 q 507 1014 632 1014 z "},"ğ":{"ha":683,"x_min":36,"x_max":647,"o":"m 342 -278 q 119 -226 201 -278 q 36 -62 36 -175 q 79 49 36 1 q 189 118 122 96 q 133 201 133 149 q 146 244 133 229 q 182 278 158 260 q 108 347 138 300 q 78 458 78 394 q 342 667 78 667 l 599 667 l 599 632 l 508 618 q 578 550 550 592 q 606 458 606 508 q 342 250 606 250 q 196 201 196 250 q 342 153 196 153 q 562 99 476 153 q 647 -62 647 46 q 565 -226 647 -175 q 342 -278 482 -278 m 342 299 q 442 337 404 299 q 481 458 481 375 q 442 578 481 538 q 342 618 404 618 q 241 580 279 618 q 203 458 203 542 q 241 337 203 375 q 342 299 279 299 m 342 -222 q 474 -183 425 -222 q 522 -62 522 -143 q 356 97 522 76 l 279 104 q 192 42 222 82 q 161 -62 161 1 q 210 -183 161 -143 q 342 -222 258 -222 m 342 736 q 161 861 217 736 l 189 882 q 342 819 239 819 q 494 882 444 819 l 522 861 q 342 736 467 736 z "},"İ":{"ha":396,"x_min":113,"x_max":374,"o":"m 190 986 q 135 1013 158 986 q 113 1075 113 1039 q 130 1121 113 1104 q 176 1138 147 1138 q 231 1111 208 1138 q 254 1049 254 1085 q 237 1003 254 1019 q 190 986 219 986 m 249 0 q 172 13 197 0 q 135 61 146 26 q 124 167 124 96 l 124 917 l 249 917 l 249 167 q 268 62 249 96 q 346 28 288 28 l 374 28 l 374 0 l 249 0 z "},"ı":{"ha":342,"x_min":-4,"x_max":246,"o":"m 121 486 q 101 591 121 557 q 24 625 82 625 l -4 625 l -4 653 l 121 653 q 198 640 172 653 q 235 592 224 626 q 246 486 246 557 l 246 0 l 121 0 l 121 486 z "},"Œ":{"ha":1313,"x_min":64,"x_max":1272,"o":"m 494 -28 q 267 36 365 -28 q 117 211 169 100 q 64 458 64 322 q 117 706 64 594 q 267 881 169 817 q 494 944 365 944 q 647 917 582 944 l 1107 917 q 1225 806 1225 917 l 1225 701 l 1197 701 q 1024 861 1197 861 l 765 861 l 765 500 l 1140 500 l 1140 444 l 765 444 l 765 56 l 1008 56 q 1158 90 1104 56 q 1244 208 1213 125 l 1272 201 l 1224 69 q 1119 0 1199 0 l 647 0 q 494 -28 582 -28 m 494 28 q 640 72 579 28 l 640 847 q 494 889 578 889 q 338 836 404 889 q 238 687 272 783 q 203 458 203 590 q 238 230 203 326 q 338 81 272 133 q 494 28 404 28 z "},"œ":{"ha":1104,"x_min":63,"x_max":1042,"o":"m 368 -14 q 204 31 274 -14 q 99 154 135 76 q 63 326 63 232 q 99 499 63 421 q 204 622 135 576 q 368 667 274 667 q 578 585 503 667 q 764 667 649 667 q 973 588 904 667 q 1042 361 1042 510 l 1039 306 l 625 306 q 675 115 625 189 q 813 42 725 42 q 923 69 878 42 q 1007 153 968 97 l 1035 132 q 928 21 989 56 q 785 -14 867 -14 q 576 69 660 -14 q 368 -14 493 -14 m 368 42 q 457 75 419 42 q 521 174 494 108 q 493 326 493 236 q 521 479 493 417 q 459 575 499 539 q 368 611 419 611 q 277 574 317 611 q 216 471 238 536 q 194 326 194 406 q 216 182 194 247 q 277 79 238 117 q 368 42 317 42 m 917 361 q 880 542 917 479 q 771 604 843 604 q 696 572 729 604 q 644 485 663 540 q 625 361 625 429 l 917 361 z "},"Ş":{"ha":740,"x_min":75,"x_max":681,"o":"m 681 233 q 603 47 681 117 q 392 -24 525 -24 l 392 -56 q 517 -157 517 -56 q 485 -231 517 -204 q 406 -258 454 -258 l 322 -258 l 322 -201 l 392 -201 q 447 -157 447 -201 q 392 -111 447 -111 l 329 -111 l 329 -19 q 150 37 225 -8 q 75 146 75 82 l 75 294 l 100 294 q 192 94 124 156 q 379 32 260 32 q 508 69 454 32 q 561 174 561 107 q 525 275 561 232 q 408 365 489 318 l 238 467 q 112 574 149 519 q 75 706 75 628 q 149 877 75 813 q 344 942 224 942 q 485 922 415 942 q 599 863 554 901 q 644 775 644 825 l 644 626 l 619 626 q 530 826 596 765 q 344 886 464 886 q 232 847 281 886 q 183 746 183 808 q 219 651 183 689 q 338 564 254 614 l 508 463 q 642 357 603 406 q 681 233 681 308 z "},"ş":{"ha":619,"x_min":68,"x_max":561,"o":"m 561 167 q 497 36 561 83 q 329 -14 432 -11 l 329 -42 q 454 -143 454 -42 q 423 -217 454 -190 q 343 -244 392 -244 l 260 -244 l 260 -187 l 329 -187 q 385 -143 385 -187 q 329 -97 385 -97 l 267 -97 l 267 -12 q 103 42 149 -4 q 74 95 79 65 q 68 188 68 125 l 96 188 q 156 80 108 118 q 290 42 204 42 q 405 68 367 42 q 443 139 443 94 q 413 208 443 179 q 318 264 383 238 l 235 299 q 110 376 151 332 q 68 486 68 421 q 132 619 68 571 q 297 667 196 667 q 506 611 450 667 q 535 558 529 588 q 540 465 540 529 l 513 465 q 454 573 501 535 q 325 611 407 611 q 223 584 260 611 q 186 514 186 557 q 297 396 186 442 l 381 361 q 518 278 475 322 q 561 167 561 235 z "},"Š":{"ha":740,"x_min":75,"x_max":681,"o":"m 392 -24 q 242 -3 315 -24 q 122 57 168 18 q 75 146 75 96 l 75 294 l 100 294 q 192 94 124 156 q 379 32 260 32 q 508 69 454 32 q 561 174 561 107 q 525 275 561 232 q 408 365 489 318 l 238 467 q 112 574 149 519 q 75 706 75 628 q 149 877 75 813 q 344 942 224 942 q 485 922 415 942 q 599 863 554 901 q 644 775 644 825 l 644 626 l 619 626 q 530 826 596 765 q 344 886 464 886 q 232 847 281 886 q 183 746 183 808 q 219 651 183 689 q 338 564 254 614 l 508 463 q 642 357 603 406 q 681 233 681 308 q 603 47 681 117 q 392 -24 525 -24 m 165 1160 l 235 1160 l 353 1049 l 471 1160 l 540 1160 l 429 1000 l 276 1000 l 165 1160 z "},"š":{"ha":619,"x_min":68,"x_max":561,"o":"m 318 -14 q 103 42 158 -14 q 74 95 79 65 q 68 188 68 125 l 96 188 q 156 80 108 118 q 290 42 204 42 q 405 68 367 42 q 443 139 443 94 q 413 208 443 179 q 318 264 383 238 l 235 299 q 110 376 151 332 q 68 486 68 421 q 132 619 68 571 q 297 667 196 667 q 506 611 450 667 q 535 558 529 588 q 540 465 540 529 l 513 465 q 454 573 501 535 q 325 611 407 611 q 223 584 260 611 q 186 514 186 557 q 297 396 186 442 l 381 361 q 518 278 475 322 q 561 167 561 235 q 493 34 561 82 q 318 -14 425 -14 m 110 882 l 179 882 l 297 771 l 415 882 l 485 882 l 374 722 l 221 722 l 110 882 z "},"Ÿ":{"ha":872,"x_min":-35,"x_max":853,"o":"m 403 379 l 167 736 q 106 817 131 788 q 47 866 81 846 q -35 889 13 886 l -35 917 l 90 917 q 207 876 160 917 q 299 764 254 835 l 500 451 l 790 917 l 853 917 l 528 389 l 528 0 l 403 0 l 403 379 m 368 958 q 317 977 336 958 q 299 1028 299 996 q 317 1078 299 1060 q 368 1097 336 1097 q 419 1078 400 1097 q 438 1028 438 1060 q 419 977 438 996 q 368 958 400 958 m 604 958 q 553 977 572 958 q 535 1028 535 996 q 553 1078 535 1060 q 604 1097 572 1097 q 655 1078 636 1097 q 674 1028 674 1060 q 655 977 674 996 q 604 958 636 958 z "},"Ž":{"ha":821,"x_min":33,"x_max":797,"o":"m 33 28 l 610 861 l 276 861 q 103 701 103 861 l 75 701 l 75 806 q 193 917 75 917 l 797 917 l 207 56 l 776 56 l 776 0 l 33 0 l 33 28 m 240 1146 l 310 1146 l 428 1035 l 546 1146 l 615 1146 l 504 986 l 351 986 l 240 1146 z "},"ž":{"ha":647,"x_min":61,"x_max":603,"o":"m 61 26 l 422 597 l 263 597 q 133 565 176 597 q 89 472 89 532 l 61 472 l 61 542 q 179 653 61 653 l 603 653 l 228 56 l 603 56 l 603 0 l 61 0 l 61 26 m 150 882 l 219 882 l 338 771 l 456 882 l 525 882 l 414 722 l 261 722 l 150 882 z "},"ƒ":{"ha":329,"x_min":0,"x_max":0,"o":""},"ˆ":{"ha":431,"x_min":28,"x_max":403,"o":"m 139 1076 l 292 1076 l 403 917 l 333 917 l 215 1028 l 97 917 l 28 917 l 139 1076 z "},"ˇ":{"ha":375,"x_min":0,"x_max":375,"o":"m 0 882 l 69 882 l 188 771 l 306 882 l 375 882 l 264 722 l 111 722 l 0 882 z "},"˘":{"ha":361,"x_min":0,"x_max":361,"o":"m 181 724 q 0 835 61 724 l 28 856 q 90 814 56 828 q 181 800 125 800 q 271 814 236 800 q 333 856 306 828 l 361 835 q 181 724 300 724 z "},"˚":{"ha":236,"x_min":0,"x_max":236,"o":"m 118 736 q 35 772 71 736 q 0 854 0 807 q 35 937 0 901 q 118 972 71 972 q 201 937 165 972 q 236 854 236 901 q 201 772 236 807 q 118 736 165 736 m 118 785 q 163 803 144 785 q 181 854 181 822 q 163 905 181 886 q 118 924 144 924 q 74 905 92 924 q 56 854 56 886 q 74 803 56 822 q 118 785 92 785 z "},"˜":{"ha":368,"x_min":28,"x_max":340,"o":"m 28 944 q 48 1047 28 1017 q 111 1076 68 1076 q 149 1069 132 1076 q 188 1047 167 1061 q 206 1037 192 1044 q 232 1025 219 1029 q 257 1021 244 1021 q 285 1040 272 1021 q 299 1076 299 1060 l 340 1076 q 320 974 340 1004 q 257 944 300 944 q 220 951 238 944 q 182 972 203 958 q 144 993 158 986 q 111 1000 129 1000 q 83 981 96 1000 q 69 944 69 961 l 28 944 z "},"Ё":{"ha":819,"x_min":22,"x_max":779,"o":"m 147 750 q 128 855 147 821 q 50 889 108 889 l 22 889 l 22 917 l 614 917 q 732 806 732 917 l 732 701 l 704 701 q 531 861 704 861 l 272 861 l 272 500 l 647 500 l 647 444 l 272 444 l 272 56 l 515 56 q 665 90 611 56 q 751 208 719 125 l 779 201 l 731 69 q 626 0 706 0 l 147 0 l 147 750 m 285 1014 q 234 1033 253 1014 q 215 1083 215 1051 q 234 1134 215 1115 q 285 1153 253 1153 q 335 1134 317 1153 q 354 1083 354 1115 q 335 1033 354 1051 q 285 1014 317 1014 m 521 1014 q 470 1033 489 1014 q 451 1083 451 1051 q 470 1134 451 1115 q 521 1153 489 1153 q 572 1134 553 1153 q 590 1083 590 1115 q 572 1033 590 1051 q 521 1014 553 1014 z "},"Ђ":{"ha":867,"x_min":-1,"x_max":818,"o":"m 561 -28 q 693 278 693 -28 q 640 478 693 421 q 499 535 588 535 q 394 518 449 535 q 304 479 339 501 l 304 0 l 179 0 l 179 861 l -1 861 l -1 917 l 485 917 l 485 861 l 304 861 l 304 542 q 405 581 339 564 q 540 597 471 597 q 744 531 669 597 q 818 278 818 464 q 795 81 818 153 q 717 -23 772 10 q 561 -56 663 -56 l 561 -28 z "},"Ѓ":{"ha":746,"x_min":22,"x_max":717,"o":"m 147 750 q 128 855 147 821 q 50 889 108 889 l 22 889 l 22 917 l 599 917 q 717 806 717 917 l 717 701 l 689 701 q 515 861 689 861 l 272 861 l 272 0 l 147 0 l 147 750 m 394 1153 l 526 1153 l 394 972 l 339 972 l 394 1153 z "},"Є":{"ha":924,"x_min":61,"x_max":874,"o":"m 492 -28 q 265 35 363 -28 q 114 205 167 97 q 61 444 61 313 q 119 696 61 581 q 276 878 176 811 q 492 944 375 944 q 687 913 603 944 q 811 833 771 882 q 840 756 835 804 q 846 625 846 708 l 818 625 q 721 824 792 760 q 533 889 650 889 q 301 793 392 889 q 200 486 211 697 l 660 486 l 660 431 l 200 431 q 240 232 204 324 q 351 84 276 140 q 533 28 425 28 q 710 76 635 28 q 846 222 786 125 l 874 201 q 716 24 810 76 q 492 -28 622 -28 z "},"Ѕ":{"ha":740,"x_min":75,"x_max":681,"o":"m 392 -24 q 242 -3 315 -24 q 122 57 168 18 q 75 146 75 96 l 75 294 l 100 294 q 192 94 124 156 q 379 32 260 32 q 508 69 454 32 q 561 174 561 107 q 525 275 561 232 q 408 365 489 318 l 238 467 q 112 574 149 519 q 75 706 75 628 q 149 877 75 813 q 344 942 224 942 q 485 922 415 942 q 599 863 554 901 q 644 775 644 825 l 644 626 l 619 626 q 530 826 596 765 q 344 886 464 886 q 232 847 281 886 q 183 746 183 808 q 219 651 183 689 q 338 564 254 614 l 508 463 q 642 357 603 406 q 681 233 681 308 q 603 47 681 117 q 392 -24 525 -24 z "},"І":{"ha":396,"x_min":124,"x_max":374,"o":"m 249 0 q 172 13 197 0 q 135 61 146 26 q 124 167 124 96 l 124 917 l 249 917 l 249 167 q 268 62 249 96 q 346 28 288 28 l 374 28 l 374 0 l 249 0 z "},"Ї":{"ha":396,"x_min":10,"x_max":374,"o":"m 79 993 q 28 1012 47 993 q 10 1063 10 1031 q 28 1113 10 1094 q 79 1132 47 1132 q 130 1113 111 1132 q 149 1063 149 1094 q 130 1012 149 1031 q 79 993 111 993 m 293 993 q 242 1012 261 993 q 224 1063 224 1031 q 242 1113 224 1094 q 293 1132 261 1132 q 344 1113 325 1132 q 363 1063 363 1094 q 344 1012 363 1031 q 293 993 325 993 m 249 0 q 172 13 197 0 q 135 61 146 26 q 124 167 124 96 l 124 917 l 249 917 l 249 167 q 268 62 249 96 q 346 28 288 28 l 374 28 l 374 0 l 249 0 z "},"Ј":{"ha":363,"x_min":-12,"x_max":244,"o":"m -12 -162 q 87 -92 54 -162 q 119 108 119 -21 l 119 917 l 244 917 l 244 108 q 222 -65 244 0 q 143 -160 199 -129 q -12 -190 88 -190 l -12 -162 z "},"Љ":{"ha":1339,"x_min":-8,"x_max":1304,"o":"m 61 -14 q -8 -1 29 -14 l -8 33 q 110 93 61 36 q 190 306 160 150 q 221 750 221 463 q 201 855 221 821 q 124 889 182 889 l 110 889 l 110 917 l 783 917 l 783 528 l 936 528 q 1197 471 1089 528 q 1304 264 1304 414 q 1197 57 1304 114 q 936 0 1089 0 l 658 0 l 658 861 l 325 861 l 325 750 q 290 281 325 450 q 197 49 254 113 q 61 -14 139 -14 m 915 49 q 1100 103 1035 49 q 1165 264 1165 157 q 1100 425 1165 371 q 915 479 1035 479 q 783 458 842 479 l 783 69 q 915 49 842 49 z "},"Њ":{"ha":1353,"x_min":22,"x_max":1321,"o":"m 147 750 q 128 855 147 821 q 50 889 108 889 l 22 889 l 22 917 l 147 917 q 224 903 199 917 q 261 856 250 890 q 272 750 272 821 l 272 500 l 675 500 l 675 917 l 800 917 l 800 500 l 953 500 q 1213 445 1104 500 q 1321 250 1321 390 q 1213 55 1321 110 q 953 0 1104 0 l 675 0 l 675 444 l 272 444 l 272 0 l 147 0 l 147 750 m 932 49 q 1116 100 1050 49 q 1182 250 1182 151 q 1116 400 1182 349 q 932 451 1050 451 q 800 431 858 451 l 800 69 q 932 49 858 49 z "},"Ћ":{"ha":879,"x_min":-1,"x_max":818,"o":"m 179 861 l -1 861 l -1 917 l 485 917 l 485 861 l 304 861 l 304 542 q 405 581 339 564 q 540 597 471 597 q 742 542 665 597 q 818 347 818 486 l 818 0 l 693 0 l 693 347 q 639 490 693 444 q 499 535 585 535 q 394 518 449 535 q 304 479 339 501 l 304 0 l 179 0 l 179 861 z "},"Ќ":{"ha":940,"x_min":22,"x_max":953,"o":"m 863 -14 q 726 22 797 -14 q 564 153 656 57 l 272 458 l 272 0 l 147 0 l 147 750 q 128 855 147 821 q 50 889 108 889 l 22 889 l 22 917 l 147 917 q 224 903 199 917 q 261 856 250 890 q 272 750 272 821 l 272 479 l 564 771 l 592 800 q 657 863 631 840 q 719 901 683 886 q 800 917 756 917 l 869 917 l 869 882 q 768 862 811 882 q 668 785 725 842 l 397 514 l 717 181 q 840 76 778 118 q 953 26 903 33 l 953 0 q 863 -14 911 -14 m 464 1118 l 596 1118 l 464 938 l 408 938 l 464 1118 z "},"Ў":{"ha":843,"x_min":-39,"x_max":815,"o":"m 183 28 q 313 51 256 28 q 392 132 369 75 l 406 167 l 149 736 q 108 815 128 786 q 54 865 89 844 q -39 889 19 886 l -39 917 l 128 917 q 226 876 188 917 q 294 764 264 835 l 482 347 l 732 917 l 815 917 l 474 132 q 253 -14 411 -14 l 183 -14 l 183 28 m 482 972 q 301 1097 357 972 l 329 1118 q 482 1056 379 1056 q 635 1118 585 1056 l 663 1097 q 482 972 607 972 z "},"Џ":{"ha":933,"x_min":22,"x_max":814,"o":"m 425 0 l 147 0 l 147 750 q 128 855 147 821 q 50 889 108 889 l 22 889 l 22 917 l 147 917 q 224 903 199 917 q 261 856 250 890 q 272 750 272 821 l 272 56 l 689 56 l 689 917 l 814 917 l 814 0 l 536 0 l 515 -243 l 446 -243 l 425 0 z "},"А":{"ha":882,"x_min":31,"x_max":919,"o":"m 864 -7 q 732 30 797 -7 q 628 174 667 67 l 593 264 l 204 264 l 93 0 l 31 0 l 419 917 l 461 917 l 767 174 q 832 63 801 93 q 919 28 863 33 l 919 0 q 864 -7 894 -7 m 565 319 l 399 722 l 225 319 l 565 319 z "},"Б":{"ha":844,"x_min":22,"x_max":793,"o":"m 147 750 q 128 855 147 821 q 50 889 108 889 l 22 889 l 22 917 l 607 917 q 725 806 725 917 l 725 701 l 697 701 q 524 861 697 861 l 272 861 l 272 528 l 425 528 q 685 471 578 528 q 793 264 793 414 q 685 57 793 114 q 425 0 578 0 l 147 0 l 147 750 m 404 49 q 588 103 522 49 q 654 264 654 157 q 588 425 654 371 q 404 479 522 479 q 272 460 339 479 l 272 68 q 404 49 339 49 z "},"В":{"ha":864,"x_min":22,"x_max":807,"o":"m 147 750 q 128 855 147 821 q 50 889 108 889 l 22 889 l 22 917 l 383 917 q 647 867 535 917 q 758 674 758 817 q 714 556 758 608 q 578 472 669 503 q 756 397 706 451 q 807 250 807 342 q 697 55 807 110 q 425 0 586 0 l 147 0 l 147 750 m 404 493 q 512 515 461 493 q 594 578 563 536 q 626 681 626 621 q 589 785 626 743 q 494 848 551 828 q 376 868 436 868 q 272 854 328 868 l 272 493 l 404 493 m 404 49 q 599 99 531 49 q 668 243 668 149 q 601 388 668 338 q 404 438 533 438 l 272 438 l 272 68 q 404 49 339 49 z "},"Г":{"ha":746,"x_min":22,"x_max":717,"o":"m 147 750 q 128 855 147 821 q 50 889 108 889 l 22 889 l 22 917 l 599 917 q 717 806 717 917 l 717 701 l 689 701 q 515 861 689 861 l 272 861 l 272 0 l 147 0 l 147 750 z "},"Д":{"ha":954,"x_min":4,"x_max":928,"o":"m 4 7 q 18 42 4 28 q 53 56 32 56 l 108 56 q 199 366 172 194 q 226 750 226 538 q 207 855 226 821 q 129 889 188 889 l 108 889 l 108 917 l 803 917 l 803 56 l 879 56 q 914 42 900 56 q 928 7 928 28 l 928 -250 l 865 -250 q 808 -56 849 -111 q 692 0 768 0 l 240 0 q 124 -56 164 0 q 67 -250 83 -111 l 4 -250 l 4 7 m 678 56 l 678 861 l 317 861 q 291 385 317 574 q 206 56 265 196 l 678 56 z "},"Е":{"ha":819,"x_min":22,"x_max":779,"o":"m 147 750 q 128 855 147 821 q 50 889 108 889 l 22 889 l 22 917 l 614 917 q 732 806 732 917 l 732 701 l 704 701 q 531 861 704 861 l 272 861 l 272 500 l 647 500 l 647 444 l 272 444 l 272 56 l 515 56 q 665 90 611 56 q 751 208 719 125 l 779 201 l 731 69 q 626 0 706 0 l 147 0 l 147 750 z "},"Ж":{"ha":1318,"x_min":-12,"x_max":1331,"o":"m 78 -14 q -12 0 29 -14 l -12 26 q 97 75 35 32 q 210 181 160 118 l 474 514 l 258 785 q 169 861 215 840 q 71 882 124 882 l 71 917 l 140 917 q 256 880 206 917 q 363 771 306 843 l 599 479 l 599 917 l 719 917 l 719 479 l 956 771 q 1060 878 1008 839 q 1178 917 1113 917 l 1247 917 l 1247 882 q 1149 861 1194 882 q 1060 785 1103 840 l 844 514 l 1108 181 q 1221 75 1158 118 q 1331 26 1283 32 l 1331 0 q 1240 -14 1289 -14 q 1103 22 1178 -14 q 956 153 1029 57 l 719 458 l 719 0 l 599 0 l 599 458 l 363 153 q 215 22 289 57 q 78 -14 140 -14 z "},"З":{"ha":792,"x_min":42,"x_max":736,"o":"m 375 -28 q 183 12 264 -28 q 42 146 101 51 l 69 167 q 354 28 174 28 q 531 81 465 28 q 597 229 597 135 q 530 384 597 331 q 333 438 463 438 l 229 438 l 229 493 l 333 493 q 501 547 432 493 q 569 694 569 600 q 508 838 569 788 q 361 889 446 889 q 192 830 261 889 q 97 667 124 771 l 69 667 q 75 781 69 743 q 104 847 81 818 q 216 917 139 890 q 368 944 293 944 q 603 890 506 944 q 701 688 701 836 q 653 560 701 617 q 507 472 604 503 q 683 389 631 449 q 736 236 736 329 q 628 32 736 92 q 375 -28 519 -28 z "},"И":{"ha":961,"x_min":22,"x_max":842,"o":"m 147 750 q 128 855 147 821 q 50 889 108 889 l 22 889 l 22 917 l 147 917 q 224 903 199 917 q 261 856 250 890 q 272 750 272 821 l 272 125 l 717 917 l 842 917 l 842 0 l 717 0 l 717 792 l 272 0 l 147 0 l 147 750 z "},"Й":{"ha":961,"x_min":22,"x_max":842,"o":"m 147 750 q 128 855 147 821 q 50 889 108 889 l 22 889 l 22 917 l 147 917 q 224 903 199 917 q 261 856 250 890 q 272 750 272 821 l 272 125 l 717 917 l 842 917 l 842 0 l 717 0 l 717 792 l 272 0 l 147 0 l 147 750 m 494 986 q 314 1111 369 986 l 342 1132 q 494 1069 392 1069 q 647 1132 597 1069 l 675 1111 q 494 986 619 986 z "},"К":{"ha":940,"x_min":22,"x_max":953,"o":"m 863 -14 q 726 22 797 -14 q 564 153 656 57 l 272 458 l 272 0 l 147 0 l 147 750 q 128 855 147 821 q 50 889 108 889 l 22 889 l 22 917 l 147 917 q 224 903 199 917 q 261 856 250 890 q 272 750 272 821 l 272 479 l 564 771 l 592 800 q 657 863 631 840 q 719 901 683 886 q 800 917 756 917 l 869 917 l 869 882 q 768 862 811 882 q 668 785 725 842 l 397 514 l 717 181 q 840 76 778 118 q 953 26 903 33 l 953 0 q 863 -14 911 -14 z "},"Л":{"ha":917,"x_min":-8,"x_max":797,"o":"m 61 -14 q -8 -1 29 -14 l -8 33 q 110 93 61 36 q 190 306 160 150 q 221 750 221 463 q 201 855 221 821 q 124 889 182 889 l 110 889 l 110 917 l 797 917 l 797 0 l 672 0 l 672 861 l 325 861 l 325 750 q 290 281 325 450 q 197 49 254 113 q 61 -14 139 -14 z "},"М":{"ha":1188,"x_min":119,"x_max":1168,"o":"m 1168 -62 q 1013 -32 1068 -62 q 934 63 957 -1 q 911 236 911 128 l 911 771 l 564 0 l 536 0 l 175 785 l 175 0 l 119 0 l 119 917 l 251 917 l 585 194 l 911 917 l 1036 917 l 1036 236 q 1069 36 1036 107 q 1168 -35 1101 -35 l 1168 -62 z "},"Н":{"ha":963,"x_min":22,"x_max":939,"o":"m 147 750 q 128 855 147 821 q 50 889 108 889 l 22 889 l 22 917 l 147 917 q 224 903 199 917 q 261 856 250 890 q 272 750 272 821 l 272 500 l 689 500 l 689 917 l 814 917 l 814 167 q 833 62 814 96 q 911 28 853 28 l 939 28 l 939 0 l 814 0 q 737 13 763 0 q 700 61 711 26 q 689 167 689 96 l 689 444 l 272 444 l 272 0 l 147 0 l 147 750 z "},"О":{"ha":989,"x_min":64,"x_max":925,"o":"m 494 -28 q 267 36 365 -28 q 117 211 169 100 q 64 458 64 322 q 117 706 64 594 q 267 881 169 817 q 494 944 365 944 q 722 881 624 944 q 872 706 819 817 q 925 458 925 594 q 872 211 925 322 q 722 36 819 100 q 494 -28 624 -28 m 494 28 q 651 81 585 28 q 751 230 717 133 q 786 458 786 326 q 751 687 786 590 q 651 836 717 783 q 494 889 585 889 q 338 836 404 889 q 238 687 272 783 q 203 458 203 590 q 238 230 203 326 q 338 81 272 133 q 494 28 404 28 z "},"П":{"ha":933,"x_min":22,"x_max":814,"o":"m 147 750 q 128 855 147 821 q 50 889 108 889 l 22 889 l 22 917 l 814 917 l 814 0 l 689 0 l 689 861 l 272 861 l 272 0 l 147 0 l 147 750 z "},"Р":{"ha":767,"x_min":22,"x_max":731,"o":"m 147 750 q 128 855 147 821 q 50 889 108 889 l 22 889 l 22 917 l 383 917 q 624 860 517 917 q 731 639 731 803 q 675 472 731 531 q 551 394 619 414 q 425 375 482 375 l 272 375 l 272 0 l 147 0 l 147 750 m 376 424 q 471 447 421 424 q 556 519 521 469 q 592 646 592 569 q 556 772 592 722 q 471 845 521 822 q 376 868 421 868 q 272 854 328 868 l 272 424 l 376 424 z "},"С":{"ha":924,"x_min":61,"x_max":874,"o":"m 492 -28 q 265 35 363 -28 q 114 205 167 97 q 61 444 61 313 q 119 696 61 581 q 276 878 176 811 q 492 944 375 944 q 687 913 603 944 q 811 833 771 882 q 840 756 835 804 q 846 625 846 708 l 818 625 q 721 824 792 760 q 533 889 650 889 q 292 783 383 889 q 200 444 200 678 q 235 240 200 335 q 346 87 271 146 q 533 28 421 28 q 710 76 635 28 q 846 222 786 125 l 874 201 q 716 24 810 76 q 492 -28 622 -28 z "},"Т":{"ha":810,"x_min":29,"x_max":793,"o":"m 356 861 l 231 861 q 57 701 57 861 l 29 701 l 29 806 q 147 917 29 917 l 793 917 l 793 861 l 481 861 l 481 0 l 356 0 l 356 861 z "},"У":{"ha":843,"x_min":-39,"x_max":815,"o":"m 183 28 q 313 51 256 28 q 392 132 369 75 l 406 167 l 149 736 q 108 815 128 786 q 54 865 89 844 q -39 889 19 886 l -39 917 l 128 917 q 226 876 188 917 q 294 764 264 835 l 482 347 l 732 917 l 815 917 l 474 132 q 253 -14 411 -14 l 183 -14 l 183 28 z "},"Ф":{"ha":1083,"x_min":49,"x_max":1035,"o":"m 479 49 q 157 152 265 49 q 49 438 49 256 q 157 723 49 619 q 479 826 265 826 q 458 908 479 885 q 382 931 436 931 l 354 931 l 354 958 l 479 958 q 556 947 529 958 q 593 908 582 936 q 604 826 604 879 q 926 723 818 826 q 1035 438 1035 619 q 926 152 1035 256 q 604 49 818 49 l 604 -42 l 479 -42 l 479 49 m 479 771 q 256 680 324 771 q 188 438 188 589 q 256 195 188 286 q 479 104 324 104 l 479 771 m 604 104 q 828 195 760 104 q 896 438 896 286 q 828 680 896 589 q 604 771 760 771 l 604 104 z "},"Х":{"ha":926,"x_min":-12,"x_max":946,"o":"m 404 451 l 210 736 q 151 813 176 785 q 86 864 126 842 q -12 889 46 886 l -12 917 l 154 917 q 257 877 215 917 q 349 764 299 838 l 488 556 l 765 917 l 835 917 l 522 507 l 744 181 q 837 74 788 117 q 946 28 886 32 l 946 0 l 800 0 q 694 42 740 0 q 606 153 649 85 l 439 403 l 126 0 l 57 0 l 404 451 z "},"Ц":{"ha":965,"x_min":22,"x_max":939,"o":"m 876 -250 q 819 -56 860 -111 q 703 0 779 0 l 147 0 l 147 750 q 128 855 147 821 q 50 889 108 889 l 22 889 l 22 917 l 147 917 q 224 903 199 917 q 261 856 250 890 q 272 750 272 821 l 272 56 l 689 56 l 689 917 l 814 917 l 814 56 l 890 56 q 925 42 911 56 q 939 7 939 28 l 939 -250 l 876 -250 z "},"Ч":{"ha":889,"x_min":6,"x_max":769,"o":"m 644 375 q 560 353 613 360 q 457 347 508 347 q 278 369 351 347 q 160 456 204 392 q 117 639 117 521 l 117 750 q 97 855 117 821 q 19 889 78 889 l 6 889 l 6 917 l 131 917 q 208 903 182 917 q 244 856 233 890 q 256 750 256 821 l 256 625 q 278 488 256 536 q 346 421 301 439 q 464 403 390 403 q 561 410 511 403 q 644 431 611 417 l 644 917 l 769 917 l 769 0 l 644 0 l 644 375 z "},"Ш":{"ha":1294,"x_min":22,"x_max":1175,"o":"m 147 750 q 128 855 147 821 q 50 889 108 889 l 22 889 l 22 917 l 147 917 q 224 903 199 917 q 261 856 250 890 q 272 750 272 821 l 272 56 l 599 56 l 599 917 l 724 917 l 724 56 l 1050 56 l 1050 917 l 1175 917 l 1175 0 l 147 0 l 147 750 z "},"Щ":{"ha":1326,"x_min":22,"x_max":1300,"o":"m 1238 -250 q 1181 -56 1221 -111 q 1064 0 1140 0 l 147 0 l 147 750 q 128 855 147 821 q 50 889 108 889 l 22 889 l 22 917 l 147 917 q 224 903 199 917 q 261 856 250 890 q 272 750 272 821 l 272 56 l 599 56 l 599 917 l 724 917 l 724 56 l 1050 56 l 1050 917 l 1175 917 l 1175 56 l 1251 56 q 1286 42 1272 56 q 1300 7 1300 28 l 1300 -250 l 1238 -250 z "},"Ъ":{"ha":978,"x_min":40,"x_max":943,"o":"m 297 861 l 256 861 q 158 842 194 861 q 104 778 122 824 q 82 653 86 733 l 40 653 l 40 868 q 54 903 40 889 q 89 917 68 917 l 422 917 l 422 528 l 575 528 q 835 471 728 528 q 943 264 943 414 q 835 57 943 114 q 575 0 728 0 l 297 0 l 297 861 m 554 49 q 738 103 672 49 q 804 264 804 157 q 738 425 804 371 q 554 479 672 479 q 422 460 489 479 l 422 68 q 554 49 489 49 z "},"Ы":{"ha":1156,"x_min":22,"x_max":1133,"o":"m 147 750 q 128 855 147 821 q 50 889 108 889 l 22 889 l 22 917 l 147 917 q 224 903 199 917 q 261 856 250 890 q 272 750 272 821 l 272 528 l 425 528 q 667 470 563 528 q 772 264 772 413 q 667 58 772 115 q 425 0 563 0 l 147 0 l 147 750 m 1008 0 q 931 13 957 0 q 894 61 906 26 q 883 167 883 96 l 883 917 l 1008 917 l 1008 167 q 1028 62 1008 96 q 1106 28 1047 28 l 1133 28 l 1133 0 l 1008 0 m 404 49 q 570 103 507 49 q 633 264 633 158 q 570 424 633 369 q 404 479 507 479 q 272 460 339 479 l 272 68 q 404 49 339 49 z "},"Ь":{"ha":828,"x_min":22,"x_max":793,"o":"m 147 750 q 128 855 147 821 q 50 889 108 889 l 22 889 l 22 917 l 147 917 q 224 903 199 917 q 261 856 250 890 q 272 750 272 821 l 272 528 l 425 528 q 685 471 578 528 q 793 264 793 414 q 685 57 793 114 q 425 0 578 0 l 147 0 l 147 750 m 404 49 q 588 103 522 49 q 654 264 654 157 q 588 425 654 371 q 404 479 522 479 q 272 460 339 479 l 272 68 q 404 49 339 49 z "},"Э":{"ha":924,"x_min":49,"x_max":861,"o":"m 431 -28 q 206 24 300 -28 q 49 201 113 76 l 76 222 q 212 76 136 125 q 389 28 288 28 q 572 84 497 28 q 682 232 646 140 q 722 431 718 324 l 263 431 l 263 486 l 722 486 q 621 793 711 697 q 389 889 531 889 q 201 824 272 889 q 104 625 131 760 l 76 625 q 82 756 76 708 q 111 833 88 804 q 235 913 151 882 q 431 944 319 944 q 647 878 547 944 q 803 696 746 811 q 861 444 861 581 q 808 205 861 313 q 658 35 756 97 q 431 -28 560 -28 z "},"Ю":{"ha":1213,"x_min":22,"x_max":1147,"o":"m 758 -28 q 563 31 650 -28 q 424 198 475 90 q 369 444 372 306 l 272 444 l 272 0 l 147 0 l 147 750 q 128 855 147 821 q 50 889 108 889 l 22 889 l 22 917 l 147 917 q 224 903 199 917 q 261 856 250 890 q 272 750 272 821 l 272 500 l 371 500 q 431 734 379 633 q 568 890 483 835 q 758 944 653 944 q 957 884 868 944 q 1097 713 1046 824 q 1147 458 1147 601 q 1097 204 1147 315 q 957 33 1046 93 q 758 -28 868 -28 m 758 28 q 886 78 829 28 q 976 226 943 129 q 1008 458 1008 324 q 976 690 1008 593 q 886 838 943 788 q 758 889 829 889 q 631 838 688 889 q 541 690 574 788 q 508 458 508 593 q 541 226 508 324 q 631 78 574 129 q 758 28 688 28 z "},"Я":{"ha":844,"x_min":19,"x_max":811,"o":"m 103 -14 q 19 1 65 -14 l 19 28 q 106 61 69 33 q 172 139 142 89 l 318 389 q 175 468 233 410 q 117 639 117 526 q 224 860 117 803 q 464 917 331 917 l 811 917 l 811 889 l 797 889 q 719 855 739 889 q 700 750 700 821 l 700 0 l 575 0 l 575 375 l 440 375 l 294 111 q 211 13 256 40 q 103 -14 167 -14 m 471 424 q 575 438 519 424 l 575 854 q 471 868 519 868 q 376 845 426 868 q 291 772 326 822 q 256 646 256 722 q 291 519 256 569 q 376 447 326 469 q 471 424 426 424 z "},"а":{"ha":668,"x_min":54,"x_max":575,"o":"m 256 -14 q 165 5 211 -14 q 87 67 119 24 q 54 181 54 110 q 152 331 54 286 q 408 375 250 375 l 450 375 q 413 561 450 511 q 304 611 375 611 q 204 585 242 611 q 151 493 167 558 l 89 493 q 94 567 89 540 q 124 618 100 594 q 206 655 149 643 q 332 667 264 667 q 510 606 444 667 q 575 375 575 546 l 575 0 l 506 0 l 457 63 l 450 63 q 376 8 425 31 q 256 -14 328 -14 m 318 49 q 394 71 364 49 q 450 132 425 93 l 450 319 l 408 319 q 246 281 306 319 q 186 181 186 243 q 224 83 186 117 q 318 49 263 49 z "},"б":{"ha":733,"x_min":83,"x_max":667,"o":"m 375 -14 q 163 68 242 -14 q 83 319 83 150 l 83 375 q 103 638 83 544 q 165 773 122 731 q 285 833 208 815 l 493 882 q 569 908 546 894 q 597 944 593 921 l 625 944 l 625 854 q 583 792 625 803 l 340 736 q 238 689 276 719 q 176 594 199 658 q 146 417 153 529 l 153 417 q 238 565 179 519 q 403 611 297 611 q 535 577 475 611 q 631 472 594 543 q 667 299 667 401 q 587 65 667 143 q 375 -14 507 -14 m 375 42 q 490 100 446 42 q 535 299 535 158 q 490 495 535 435 q 375 556 444 556 q 260 495 306 556 q 215 299 215 435 q 260 100 215 158 q 375 42 304 42 z "},"в":{"ha":696,"x_min":3,"x_max":635,"o":"m 114 486 q 94 591 114 557 q 17 625 75 625 l 3 625 l 3 653 l 343 653 q 533 614 460 653 q 607 486 607 575 q 574 391 607 426 q 468 340 540 356 q 592 284 549 325 q 635 181 635 243 q 558 41 635 82 q 343 0 481 0 l 114 0 l 114 486 m 315 368 q 433 399 390 368 q 475 486 475 429 q 435 574 475 543 q 329 604 394 604 q 282 600 308 604 q 239 590 256 596 l 239 368 l 315 368 m 329 49 q 503 181 503 49 q 315 313 503 313 l 239 313 l 239 63 q 282 53 256 57 q 329 49 308 49 z "},"г":{"ha":604,"x_min":3,"x_max":565,"o":"m 114 486 q 94 591 114 557 q 17 625 75 625 l 3 625 l 3 653 l 461 653 q 565 542 565 653 l 565 458 l 538 458 q 497 560 538 524 q 392 597 457 597 l 239 597 l 239 0 l 114 0 l 114 486 z "},"д":{"ha":792,"x_min":22,"x_max":758,"o":"m 22 7 q 36 42 22 28 q 71 56 50 56 l 113 56 q 176 266 156 151 q 196 486 196 381 q 176 591 196 557 q 99 625 157 625 l 99 653 l 654 653 l 654 56 l 710 56 q 744 42 731 56 q 758 7 758 28 l 758 -215 l 703 -215 q 658 -49 692 -99 q 557 0 625 0 l 224 0 q 122 -49 156 0 q 78 -215 89 -99 l 22 -215 l 22 7 m 529 56 l 529 597 l 286 597 q 268 287 286 415 q 210 56 250 158 l 529 56 z "},"е":{"ha":678,"x_min":63,"x_max":618,"o":"m 354 -14 q 194 31 260 -14 q 96 153 129 76 q 63 326 63 231 q 96 499 63 421 q 192 622 129 576 q 340 667 256 667 q 549 588 481 667 q 618 361 618 510 l 615 306 l 194 306 q 244 115 194 189 q 382 42 294 42 q 492 69 447 42 q 576 153 538 97 l 604 132 q 497 21 558 56 q 354 -14 436 -14 m 486 361 q 450 547 486 483 q 340 611 414 611 q 265 578 299 611 q 213 489 232 546 q 194 361 194 432 l 486 361 z "},"ж":{"ha":953,"x_min":11,"x_max":942,"o":"m 81 -14 q 11 0 42 -14 l 11 26 q 97 60 58 33 q 171 139 135 88 l 317 340 l 185 556 q 131 602 165 586 q 53 618 96 618 l 53 653 l 88 653 q 268 563 213 653 l 414 319 l 414 653 l 539 653 l 539 319 l 685 563 q 865 653 740 653 l 900 653 l 900 618 q 822 602 857 618 q 768 556 788 586 l 636 340 l 782 139 q 856 60 818 88 q 942 26 894 33 l 942 0 q 872 -14 911 -14 q 685 97 764 -14 l 539 299 l 539 0 l 414 0 l 414 299 l 268 97 q 81 -14 189 -14 z "},"з":{"ha":632,"x_min":50,"x_max":571,"o":"m 293 -14 q 148 15 206 -14 q 50 97 90 44 l 78 118 q 155 63 113 83 q 265 42 197 42 q 439 174 439 42 q 244 306 439 306 l 182 306 l 182 361 l 244 361 q 374 392 329 361 q 418 486 418 424 q 379 578 418 546 q 279 611 340 611 q 153 572 203 611 q 99 465 103 532 l 71 465 q 76 564 71 533 q 106 618 82 594 q 300 667 154 667 q 478 624 407 667 q 550 486 550 582 q 513 388 550 426 q 411 333 476 350 q 529 276 488 318 q 571 174 571 235 q 293 -14 571 -14 z "},"и":{"ha":761,"x_min":1,"x_max":661,"o":"m 119 486 q 100 591 119 557 q 22 625 81 625 l 1 625 l 1 653 l 119 653 q 197 640 171 653 q 233 592 222 626 q 244 486 244 557 l 244 125 l 536 653 l 661 653 l 661 0 l 536 0 l 536 528 l 244 0 l 119 0 l 119 486 z "},"й":{"ha":761,"x_min":1,"x_max":661,"o":"m 119 486 q 100 591 119 557 q 22 625 81 625 l 1 625 l 1 653 l 119 653 q 197 640 171 653 q 233 592 222 626 q 244 486 244 557 l 244 125 l 536 653 l 661 653 l 661 0 l 536 0 l 536 528 l 244 0 l 119 0 l 119 486 m 390 724 q 210 835 271 724 l 238 856 q 300 814 265 828 q 390 800 335 800 q 481 814 446 800 q 543 856 515 828 l 571 835 q 390 724 510 724 z "},"к":{"ha":690,"x_min":-1,"x_max":679,"o":"m 610 -14 q 408 97 497 -14 l 249 299 l 249 0 l 124 0 l 124 486 q 104 591 124 557 q 26 625 85 625 l -1 625 l -1 653 l 124 653 q 201 640 175 653 q 238 592 226 626 q 249 486 249 557 l 249 319 l 422 563 q 497 630 454 607 q 603 653 539 653 l 638 653 l 638 618 q 513 556 557 618 l 360 340 l 519 139 q 597 61 558 89 q 679 26 635 33 l 679 0 q 610 -14 649 -14 z "},"л":{"ha":758,"x_min":13,"x_max":658,"o":"m 81 -14 q 47 -10 69 -14 q 13 -1 24 -6 l 13 33 q 143 129 93 33 q 193 486 193 225 q 173 591 193 557 q 94 625 153 625 l 94 653 l 658 653 l 658 0 l 533 0 l 533 597 l 289 597 l 289 486 q 231 94 289 201 q 81 -14 174 -14 z "},"м":{"ha":901,"x_min":100,"x_max":878,"o":"m 878 -28 q 701 33 754 -28 q 649 208 649 93 l 649 507 l 419 0 l 392 0 l 156 521 l 156 0 l 100 0 l 100 653 l 232 653 l 440 194 l 649 653 l 774 653 l 774 208 q 803 63 774 126 q 878 0 833 0 l 878 -28 z "},"н":{"ha":768,"x_min":1,"x_max":765,"o":"m 119 486 q 100 591 119 557 q 22 625 81 625 l 1 625 l 1 653 l 119 653 q 197 640 171 653 q 233 592 222 626 q 244 486 244 557 l 244 354 l 522 354 l 522 653 l 647 653 l 647 167 q 667 62 647 96 q 744 28 686 28 l 765 28 l 765 0 l 647 0 q 570 13 596 0 q 533 61 544 26 q 522 167 522 96 l 522 299 l 244 299 l 244 0 l 119 0 l 119 486 z "},"о":{"ha":736,"x_min":63,"x_max":674,"o":"m 368 -14 q 204 31 274 -14 q 99 154 135 76 q 63 326 63 232 q 99 499 63 421 q 204 622 135 576 q 368 667 274 667 q 532 622 463 667 q 638 499 601 576 q 674 326 674 421 q 638 154 674 232 q 532 31 601 76 q 368 -14 463 -14 m 368 42 q 459 79 419 42 q 520 182 499 117 q 542 326 542 247 q 520 471 542 406 q 459 574 499 536 q 368 611 419 611 q 277 574 317 611 q 216 471 238 536 q 194 326 194 406 q 216 182 194 247 q 277 79 238 117 q 368 42 317 42 z "},"п":{"ha":742,"x_min":3,"x_max":642,"o":"m 114 486 q 94 591 114 557 q 17 625 75 625 l 3 625 l 3 653 l 642 653 l 642 0 l 517 0 l 517 597 l 239 597 l 239 0 l 114 0 l 114 486 z "},"р":{"ha":747,"x_min":-4,"x_max":683,"o":"m 121 486 q 101 591 121 557 q 24 625 82 625 l -4 625 l -4 653 l 121 653 q 201 638 174 653 q 239 590 228 624 q 433 667 315 667 q 618 570 553 667 q 683 326 683 474 q 616 82 683 178 q 419 -14 549 -14 q 326 -3 367 -14 q 246 28 286 8 l 246 -264 l 121 -264 l 121 486 m 378 42 q 509 119 467 42 q 551 326 551 197 q 511 533 551 454 q 392 611 471 611 q 246 528 299 611 l 246 83 q 318 53 288 64 q 378 42 349 42 z "},"с":{"ha":671,"x_min":63,"x_max":625,"o":"m 368 -14 q 199 31 268 -14 q 97 153 131 76 q 63 326 63 231 q 97 499 63 422 q 199 622 131 576 q 368 667 268 667 q 569 618 521 667 q 599 560 593 594 q 604 438 604 526 l 576 438 q 522 567 571 524 q 396 611 474 611 q 245 532 296 611 q 194 326 194 453 q 245 121 194 200 q 396 42 296 42 q 513 69 467 42 q 597 153 558 96 l 625 132 q 517 20 579 54 q 368 -14 454 -14 z "},"т":{"ha":658,"x_min":40,"x_max":638,"o":"m 283 597 l 214 597 q 108 560 149 597 q 68 458 68 524 l 40 458 l 40 542 q 144 653 40 653 l 638 653 l 638 597 l 408 597 l 408 0 l 283 0 l 283 597 z "},"у":{"ha":714,"x_min":-14,"x_max":674,"o":"m 146 -236 q 258 -205 214 -236 q 333 -90 301 -174 l 361 -14 l 139 528 q -14 639 100 628 l -14 667 l 104 667 q 271 556 225 667 l 429 171 l 604 653 l 674 653 l 403 -90 q 314 -239 363 -200 q 188 -278 265 -278 l 146 -278 l 146 -236 z "},"ф":{"ha":919,"x_min":64,"x_max":856,"o":"m 397 -14 q 150 85 236 -8 q 64 326 64 179 q 150 567 64 474 q 397 667 236 661 l 397 750 q 378 855 397 821 q 300 889 358 889 l 279 889 l 279 917 l 397 917 q 474 903 449 917 q 511 856 500 890 q 522 750 522 821 l 522 667 q 769 567 683 661 q 856 326 856 474 q 769 85 856 179 q 522 -14 683 -8 l 522 -264 l 397 -264 l 397 -14 m 399 618 q 246 531 296 607 q 196 326 196 456 q 246 122 196 197 q 399 35 296 46 l 399 618 m 521 35 q 674 122 624 46 q 724 326 724 197 q 674 531 724 456 q 521 618 624 607 l 521 35 z "},"х":{"ha":678,"x_min":11,"x_max":671,"o":"m 275 313 l 154 514 q 11 625 96 615 l 11 653 l 129 653 q 215 624 175 653 q 286 542 256 594 l 372 396 l 553 653 l 622 653 l 400 340 l 521 139 q 671 28 578 39 l 671 0 l 546 0 q 460 29 500 0 q 389 111 419 58 l 303 257 l 122 0 l 53 0 l 275 313 z "},"ц":{"ha":785,"x_min":1,"x_max":751,"o":"m 696 -215 q 651 -49 685 -99 q 550 0 618 0 l 119 0 l 119 486 q 100 591 119 557 q 22 625 81 625 l 1 625 l 1 653 l 119 653 q 197 640 171 653 q 233 592 222 626 q 244 486 244 557 l 244 56 l 522 56 l 522 653 l 647 653 l 647 56 l 703 56 q 738 42 724 56 q 751 7 751 28 l 751 -215 l 696 -215 z "},"ч":{"ha":740,"x_min":15,"x_max":640,"o":"m 515 268 q 376 243 453 243 q 198 287 269 243 q 126 444 126 331 l 126 486 q 107 591 126 557 q 29 625 88 625 l 15 625 l 15 653 l 133 653 q 210 640 185 653 q 247 592 236 626 q 258 486 258 557 l 258 431 q 294 331 258 363 q 383 299 331 299 q 515 324 453 299 l 515 653 l 640 653 l 640 0 l 515 0 l 515 268 z "},"ш":{"ha":1025,"x_min":1,"x_max":925,"o":"m 119 486 q 100 591 119 557 q 22 625 81 625 l 1 625 l 1 653 l 119 653 q 197 640 171 653 q 233 592 222 626 q 244 486 244 557 l 244 56 l 460 56 l 460 653 l 585 653 l 585 56 l 800 56 l 800 653 l 925 653 l 925 0 l 119 0 l 119 486 z "},"щ":{"ha":1063,"x_min":1,"x_max":1029,"o":"m 974 -215 q 929 -49 963 -99 q 828 0 896 0 l 119 0 l 119 486 q 100 591 119 557 q 22 625 81 625 l 1 625 l 1 653 l 119 653 q 197 640 171 653 q 233 592 222 626 q 244 486 244 557 l 244 56 l 460 56 l 460 653 l 585 653 l 585 56 l 800 56 l 800 653 l 925 653 l 925 56 l 981 56 q 1015 42 1001 56 q 1029 7 1029 28 l 1029 -215 l 974 -215 z "},"ъ":{"ha":811,"x_min":49,"x_max":771,"o":"m 257 597 l 243 597 q 128 553 168 597 q 83 417 89 510 l 49 417 l 49 604 q 63 639 49 625 q 97 653 76 653 l 382 653 l 382 389 l 486 389 q 694 344 618 389 q 771 194 771 300 q 694 44 771 89 q 486 0 618 0 l 257 0 l 257 597 m 472 49 q 597 83 554 49 q 639 194 639 118 q 597 306 639 271 q 472 340 554 340 q 425 336 451 340 q 382 326 399 332 l 382 63 q 425 53 399 57 q 472 49 451 49 z "},"ы":{"ha":956,"x_min":1,"x_max":953,"o":"m 119 486 q 100 591 119 557 q 22 625 81 625 l 1 625 l 1 653 l 119 653 q 197 640 171 653 q 233 592 222 626 q 244 486 244 557 l 244 389 l 349 389 q 619 194 619 389 q 349 0 619 0 l 119 0 l 119 486 m 835 0 q 758 13 783 0 q 721 61 732 26 q 710 167 710 96 l 710 653 l 835 653 l 835 167 q 854 62 835 96 q 932 28 874 28 l 953 28 l 953 0 l 835 0 m 335 49 q 447 83 407 49 q 488 194 488 118 q 447 306 488 271 q 335 340 407 340 q 288 336 314 340 q 244 326 261 332 l 244 63 q 288 53 261 57 q 335 49 314 49 z "},"ь":{"ha":674,"x_min":1,"x_max":633,"o":"m 119 486 q 100 591 119 557 q 22 625 81 625 l 1 625 l 1 653 l 119 653 q 197 640 171 653 q 233 592 222 626 q 244 486 244 557 l 244 389 l 349 389 q 557 344 481 389 q 633 194 633 300 q 557 44 633 89 q 349 0 481 0 l 119 0 l 119 486 m 335 49 q 459 83 417 49 q 501 194 501 118 q 459 306 501 271 q 335 340 417 340 q 288 336 314 340 q 244 326 261 332 l 244 63 q 288 53 261 57 q 335 49 314 49 z "},"э":{"ha":679,"x_min":54,"x_max":617,"o":"m 311 -14 q 163 20 225 -14 q 54 132 100 54 l 82 153 q 167 69 121 96 q 283 42 213 42 q 428 110 376 42 q 485 292 479 179 l 193 292 l 193 347 l 485 347 q 428 538 479 464 q 283 611 378 611 q 157 567 206 611 q 103 438 108 524 l 75 438 q 81 560 75 526 q 110 618 86 594 q 311 667 158 667 q 480 622 411 667 q 583 499 549 576 q 617 326 617 422 q 583 153 617 231 q 480 31 549 76 q 311 -14 411 -14 z "},"ю":{"ha":960,"x_min":1,"x_max":897,"o":"m 613 -14 q 467 25 531 -14 q 367 135 404 64 q 328 299 331 206 l 244 299 l 244 0 l 119 0 l 119 486 q 100 591 119 557 q 22 625 81 625 l 1 625 l 1 653 l 119 653 q 197 640 171 653 q 233 592 222 626 q 244 486 244 557 l 244 354 l 328 354 q 367 518 331 447 q 467 628 404 589 q 613 667 531 667 q 763 624 699 667 q 863 503 828 581 q 897 326 897 426 q 863 149 897 226 q 763 29 828 72 q 613 -14 699 -14 m 613 42 q 724 115 682 42 q 765 326 765 189 q 724 538 765 464 q 613 611 682 611 q 501 538 543 611 q 460 326 460 464 q 501 115 460 189 q 613 42 543 42 z "},"я":{"ha":708,"x_min":24,"x_max":683,"o":"m 100 -14 q 24 0 65 -14 l 24 28 q 96 61 67 32 q 156 139 125 90 l 239 285 q 126 344 172 296 q 79 465 79 392 q 357 653 79 653 l 683 653 l 683 625 l 678 625 q 605 589 624 624 q 586 486 586 554 l 586 0 l 461 0 l 461 278 l 353 278 l 269 111 q 197 16 236 46 q 100 -14 157 -14 m 371 326 q 418 331 392 326 q 461 340 444 335 l 461 590 q 418 600 444 596 q 371 604 392 604 q 211 465 211 604 q 371 326 211 326 z "},"ё":{"ha":678,"x_min":63,"x_max":618,"o":"m 354 -14 q 194 31 260 -14 q 96 153 129 76 q 63 326 63 231 q 96 499 63 421 q 192 622 129 576 q 340 667 256 667 q 549 588 481 667 q 618 361 618 510 l 615 306 l 194 306 q 244 115 194 189 q 382 42 294 42 q 492 69 447 42 q 576 153 538 97 l 604 132 q 497 21 558 56 q 354 -14 436 -14 m 486 361 q 450 547 486 483 q 340 611 414 611 q 265 578 299 611 q 213 489 232 546 q 194 361 194 432 l 486 361 m 229 743 q 185 761 203 743 q 167 806 167 779 q 185 850 167 832 q 229 868 203 868 q 274 850 256 868 q 292 806 292 832 q 274 761 292 779 q 229 743 256 743 m 465 743 q 421 761 439 743 q 403 806 403 779 q 421 850 403 832 q 465 868 439 868 q 510 850 492 868 q 528 806 528 832 q 510 761 528 779 q 465 743 492 743 z "},"ђ":{"ha":736,"x_min":3,"x_max":642,"o":"m 385 -167 q 484 -96 451 -167 q 517 104 517 -25 l 517 347 q 473 490 517 444 q 364 535 429 535 q 225 461 290 535 l 225 0 l 100 0 l 100 694 l 3 694 l 3 750 l 100 750 l 100 833 l 169 917 l 225 917 l 225 750 l 392 750 l 392 694 l 225 694 l 225 528 q 301 577 254 557 q 406 597 347 597 q 576 542 510 597 q 642 347 642 486 l 642 104 q 619 -69 642 -4 q 540 -164 596 -133 q 385 -194 485 -194 l 385 -167 z "},"ѓ":{"ha":604,"x_min":3,"x_max":565,"o":"m 114 486 q 94 591 114 557 q 17 625 75 625 l 3 625 l 3 653 l 461 653 q 565 542 565 653 l 565 458 l 538 458 q 497 560 538 524 q 392 597 457 597 l 239 597 l 239 0 l 114 0 l 114 486 m 308 889 l 440 889 l 308 708 l 253 708 l 308 889 z "},"є":{"ha":679,"x_min":63,"x_max":625,"o":"m 368 -14 q 199 31 268 -14 q 97 153 131 76 q 63 326 63 231 q 97 499 63 422 q 199 622 131 576 q 368 667 268 667 q 569 618 521 667 q 599 560 593 594 q 604 438 604 526 l 576 438 q 522 567 571 524 q 396 611 474 611 q 251 538 301 611 q 194 347 200 464 l 486 347 l 486 292 l 194 292 q 251 110 200 179 q 396 42 303 42 q 513 69 467 42 q 597 153 558 96 l 625 132 q 517 20 579 54 q 368 -14 454 -14 z "},"ѕ":{"ha":619,"x_min":68,"x_max":561,"o":"m 318 -14 q 103 42 158 -14 q 74 95 79 65 q 68 188 68 125 l 96 188 q 156 80 108 118 q 290 42 204 42 q 405 68 367 42 q 443 139 443 94 q 413 208 443 179 q 318 264 383 238 l 235 299 q 110 376 151 332 q 68 486 68 421 q 132 619 68 571 q 297 667 196 667 q 506 611 450 667 q 535 558 529 588 q 540 465 540 529 l 513 465 q 454 573 501 535 q 325 611 407 611 q 223 584 260 611 q 186 514 186 557 q 297 396 186 442 l 381 361 q 518 278 475 322 q 561 167 561 235 q 493 34 561 82 q 318 -14 425 -14 z "},"і":{"ha":342,"x_min":-4,"x_max":246,"o":"m 174 736 q 119 763 142 736 q 96 825 96 789 q 113 871 96 854 q 160 888 131 888 q 215 861 192 888 q 238 799 238 835 q 220 753 238 769 q 174 736 203 736 m 121 486 q 101 591 121 557 q 24 625 82 625 l -4 625 l -4 653 l 121 653 q 198 640 172 653 q 235 592 224 626 q 246 486 246 557 l 246 0 l 121 0 l 121 486 z "},"ї":{"ha":342,"x_min":-6,"x_max":350,"o":"m 72 750 q 17 776 40 750 q -6 839 -6 803 q 12 885 -6 868 q 58 901 29 901 q 113 875 90 901 q 136 813 136 849 q 119 767 136 783 q 72 750 101 750 m 286 750 q 231 776 254 750 q 208 839 208 803 q 226 885 208 868 q 272 901 243 901 q 327 875 304 901 q 350 813 350 849 q 333 767 350 783 q 286 750 315 750 m 121 486 q 101 591 121 557 q 24 625 82 625 l -4 625 l -4 653 l 121 653 q 198 640 172 653 q 235 592 224 626 q 246 486 246 557 l 246 0 l 121 0 l 121 486 z "},"ј":{"ha":342,"x_min":-11,"x_max":246,"o":"m 174 736 q 119 763 142 736 q 96 825 96 789 q 113 871 96 854 q 160 888 131 888 q 215 861 192 888 q 238 799 238 835 q 220 753 238 769 q 174 736 203 736 m -11 -236 q 88 -165 56 -236 q 121 35 121 -94 l 121 486 q 101 591 121 557 q 24 625 82 625 l -4 625 l -4 653 l 121 653 q 198 640 172 653 q 235 592 224 626 q 246 486 246 557 l 246 35 q 223 -138 246 -74 q 144 -233 200 -203 q -11 -264 89 -264 l -11 -236 z "},"љ":{"ha":1072,"x_min":13,"x_max":1032,"o":"m 81 -14 q 47 -10 69 -14 q 13 -1 24 -6 l 13 33 q 143 129 93 33 q 193 486 193 225 q 173 591 193 557 q 94 625 153 625 l 94 653 l 643 653 l 643 389 l 747 389 q 956 344 879 389 q 1032 194 1032 300 q 956 44 1032 89 q 747 0 879 0 l 518 0 l 518 597 l 289 597 l 289 486 q 231 94 289 201 q 81 -14 174 -14 m 733 49 q 858 83 815 49 q 900 194 900 118 q 858 306 900 271 q 733 340 815 340 q 686 336 713 340 q 643 326 660 332 l 643 63 q 686 53 660 57 q 733 49 713 49 z "},"њ":{"ha":1060,"x_min":1,"x_max":1022,"o":"m 119 486 q 100 591 119 557 q 22 625 81 625 l 1 625 l 1 653 l 119 653 q 197 640 171 653 q 233 592 222 626 q 244 486 244 557 l 244 361 l 508 361 l 508 653 l 633 653 l 633 361 l 738 361 q 1022 181 1022 361 q 946 41 1022 82 q 738 0 869 0 l 508 0 l 508 306 l 244 306 l 244 0 l 119 0 l 119 486 m 724 49 q 847 81 804 49 q 890 181 890 114 q 847 280 890 247 q 724 313 804 313 q 676 308 703 313 q 633 299 650 304 l 633 63 q 676 53 650 57 q 724 49 703 49 z "},"ћ":{"ha":736,"x_min":3,"x_max":642,"o":"m 100 694 l 3 694 l 3 750 l 100 750 l 100 833 l 169 917 l 225 917 l 225 750 l 392 750 l 392 694 l 225 694 l 225 528 q 301 577 254 557 q 406 597 347 597 q 576 542 510 597 q 642 347 642 486 l 642 0 l 517 0 l 517 347 q 473 490 517 444 q 364 535 429 535 q 225 461 290 535 l 225 0 l 100 0 l 100 694 z "},"ќ":{"ha":690,"x_min":-1,"x_max":679,"o":"m 610 -14 q 408 97 497 -14 l 249 299 l 249 0 l 124 0 l 124 486 q 104 591 124 557 q 26 625 85 625 l -1 625 l -1 653 l 124 653 q 201 640 175 653 q 238 592 226 626 q 249 486 249 557 l 249 319 l 422 563 q 497 630 454 607 q 603 653 539 653 l 638 653 l 638 618 q 513 556 557 618 l 360 340 l 519 139 q 597 61 558 89 q 679 26 635 33 l 679 0 q 610 -14 649 -14 m 346 856 l 478 856 l 346 675 l 290 675 l 346 856 z "},"ў":{"ha":714,"x_min":-14,"x_max":674,"o":"m 146 -236 q 258 -205 214 -236 q 333 -90 301 -174 l 361 -14 l 139 528 q -14 639 100 628 l -14 667 l 104 667 q 271 556 225 667 l 429 171 l 604 653 l 674 653 l 403 -90 q 314 -239 363 -200 q 188 -278 265 -278 l 146 -278 l 146 -236 m 417 710 q 236 821 297 710 l 264 842 q 326 800 292 814 q 417 786 361 786 q 507 800 472 786 q 569 842 542 814 l 597 821 q 417 710 536 710 z "},"џ":{"ha":747,"x_min":1,"x_max":647,"o":"m 335 0 l 119 0 l 119 486 q 100 591 119 557 q 22 625 81 625 l 1 625 l 1 653 l 119 653 q 197 640 171 653 q 233 592 222 626 q 244 486 244 557 l 244 56 l 522 56 l 522 653 l 647 653 l 647 0 l 432 0 l 411 -208 l 356 -208 l 335 0 z "},"Ґ":{"ha":743,"x_min":22,"x_max":717,"o":"m 147 750 q 128 855 147 821 q 50 889 108 889 l 22 889 l 22 917 l 515 917 q 689 1076 689 917 l 717 1076 l 717 924 q 699 879 717 897 q 654 861 681 861 l 272 861 l 272 0 l 147 0 l 147 750 z "},"ґ":{"ha":600,"x_min":3,"x_max":565,"o":"m 114 486 q 94 591 114 557 q 17 625 75 625 l 3 625 l 3 653 l 392 653 q 497 690 457 653 q 538 792 538 726 l 565 792 l 565 653 q 510 597 565 597 l 239 597 l 239 0 l 114 0 l 114 486 z "},"–":{"ha":847,"x_min":97,"x_max":750,"o":"m 97 403 l 750 403 l 750 319 l 97 319 l 97 403 z "},"—":{"ha":1211,"x_min":92,"x_max":1119,"o":"m 92 403 l 1119 403 l 1119 319 l 92 319 l 92 403 z "},"‘":{"ha":314,"x_min":71,"x_max":244,"o":"m 161 590 q 95 616 119 590 q 71 688 71 642 q 224 944 71 858 l 238 924 q 154 841 182 886 q 126 736 126 796 l 168 750 q 222 728 200 750 q 244 674 244 706 q 221 614 244 638 q 161 590 197 590 z "},"’":{"ha":317,"x_min":79,"x_max":253,"o":"m 86 611 q 169 694 142 649 q 197 799 197 739 l 156 785 q 101 807 124 785 q 79 861 79 829 q 103 921 79 897 q 163 944 126 944 q 228 919 204 944 q 253 847 253 893 q 100 590 253 676 l 86 611 z "},"‚":{"ha":329,"x_min":78,"x_max":251,"o":"m 85 -194 q 168 -112 140 -157 q 196 -7 196 -67 l 154 -21 q 100 1 122 -21 q 78 56 78 24 q 101 115 78 92 q 161 139 125 139 q 227 113 203 139 q 251 42 251 88 q 99 -215 251 -129 l 85 -194 z "},"“":{"ha":564,"x_min":71,"x_max":494,"o":"m 161 590 q 95 616 119 590 q 71 688 71 642 q 224 944 71 858 l 238 924 q 154 841 182 886 q 126 736 126 796 l 168 750 q 222 728 200 750 q 244 674 244 706 q 221 614 244 638 q 161 590 197 590 m 411 590 q 345 616 369 590 q 321 688 321 642 q 474 944 321 858 l 488 924 q 404 841 432 886 q 376 736 376 796 l 418 750 q 472 728 450 750 q 494 674 494 706 q 471 614 494 638 q 411 590 447 590 z "},"”":{"ha":567,"x_min":79,"x_max":503,"o":"m 86 611 q 169 694 142 649 q 197 799 197 739 l 156 785 q 101 807 124 785 q 79 861 79 829 q 103 921 79 897 q 163 944 126 944 q 228 919 204 944 q 253 847 253 893 q 100 590 253 676 l 86 611 m 336 611 q 419 694 392 649 q 447 799 447 739 l 406 785 q 351 807 374 785 q 329 861 329 829 q 353 921 329 897 q 413 944 376 944 q 478 919 454 944 q 503 847 503 893 q 350 590 503 676 l 336 611 z "},"„":{"ha":579,"x_min":78,"x_max":501,"o":"m 85 -194 q 168 -112 140 -157 q 196 -7 196 -67 l 154 -21 q 100 1 122 -21 q 78 56 78 24 q 101 115 78 92 q 161 139 125 139 q 227 113 203 139 q 251 42 251 88 q 99 -215 251 -129 l 85 -194 m 335 -194 q 418 -112 390 -157 q 446 -7 446 -67 l 404 -21 q 350 1 372 -21 q 328 56 328 24 q 351 115 328 92 q 411 139 375 139 q 477 113 453 139 q 501 42 501 88 q 349 -215 501 -129 l 335 -194 z "},"†":{"ha":726,"x_min":38,"x_max":689,"o":"m 300 569 l 38 569 l 38 653 l 300 653 l 300 944 l 425 944 l 425 653 l 689 653 l 689 569 l 425 569 l 425 -264 l 300 -264 l 300 569 z "},"‡":{"ha":771,"x_min":60,"x_max":711,"o":"m 322 28 l 60 28 l 60 111 l 322 111 l 322 569 l 60 569 l 60 653 l 322 653 l 322 944 l 447 944 l 447 653 l 711 653 l 711 569 l 447 569 l 447 111 l 711 111 l 711 28 l 447 28 l 447 -264 l 322 -264 l 322 28 z "},"•":{"ha":472,"x_min":69,"x_max":403,"o":"m 236 292 q 116 338 163 292 q 69 458 69 385 q 116 578 69 532 q 236 625 163 625 q 356 578 310 625 q 403 458 403 532 q 356 338 403 385 q 236 292 310 292 z "},"…":{"ha":889,"x_min":78,"x_max":811,"o":"m 153 -19 q 100 3 122 -19 q 78 57 78 25 q 100 110 78 88 q 153 132 122 132 q 206 110 185 132 q 228 57 228 88 q 206 3 228 25 q 153 -19 183 -19 m 444 -19 q 392 3 414 -19 q 369 57 369 25 q 392 110 369 88 q 444 132 414 132 q 498 110 476 132 q 519 57 519 88 q 497 3 519 25 q 444 -19 475 -19 m 736 -19 q 683 3 706 -19 q 661 57 661 25 q 683 110 661 88 q 736 132 706 132 q 790 110 768 132 q 811 57 811 88 q 789 3 811 25 q 736 -19 767 -19 z "},"‰":{"ha":1397,"x_min":51,"x_max":1357,"o":"m 253 549 q 105 598 158 549 q 51 736 51 647 q 105 874 51 825 q 253 924 158 924 q 401 874 347 924 q 454 736 454 825 q 401 598 454 647 q 253 549 347 549 m 739 917 l 843 917 l 211 0 l 107 0 l 739 917 m 253 597 q 371 736 371 597 q 253 875 371 875 q 135 736 135 875 q 253 597 135 597 m 697 -7 q 549 42 603 -7 q 496 181 496 92 q 549 319 496 269 q 697 368 603 368 q 845 319 792 368 q 899 181 899 269 q 845 42 899 92 q 697 -7 792 -7 m 1156 -7 q 1008 42 1061 -7 q 954 181 954 92 q 1008 319 954 269 q 1156 368 1061 368 q 1303 319 1250 368 q 1357 181 1357 269 q 1303 42 1357 92 q 1156 -7 1250 -7 m 697 42 q 815 181 815 42 q 697 319 815 319 q 579 181 579 319 q 697 42 579 42 m 1156 42 q 1274 181 1274 42 q 1156 319 1274 319 q 1038 181 1038 319 q 1156 42 1038 42 z "},"‹":{"ha":419,"x_min":47,"x_max":346,"o":"m 47 313 l 290 583 l 346 583 l 193 313 l 346 42 l 290 42 l 47 313 z "},"›":{"ha":419,"x_min":74,"x_max":372,"o":"m 226 313 l 74 583 l 129 583 l 372 313 l 129 42 l 74 42 l 226 313 z "},"€":{"ha":1011,"x_min":39,"x_max":949,"o":"m 567 -28 q 363 22 453 -28 q 216 157 272 71 q 143 354 160 243 l 39 354 l 53 410 l 136 410 l 136 493 l 60 493 l 74 549 l 146 549 q 226 751 165 661 q 376 893 288 842 q 567 944 465 944 q 762 913 678 944 q 886 833 846 882 q 915 756 910 804 q 921 625 921 708 l 893 625 q 796 824 867 760 q 608 889 725 889 q 389 808 476 889 q 281 549 301 728 l 560 549 l 546 493 l 275 493 l 275 410 l 539 410 l 525 354 l 281 354 q 383 119 303 210 q 608 28 464 28 q 785 76 710 28 q 921 222 861 125 l 949 201 q 791 24 885 76 q 567 -28 697 -28 z "},"№":{"ha":1363,"x_min":19,"x_max":1318,"o":"m 1117 556 q 968 605 1021 556 q 915 743 915 654 q 968 881 915 832 q 1117 931 1021 931 q 1265 881 1213 931 q 1318 743 1318 832 q 1265 605 1318 654 q 1117 556 1213 556 m 214 729 l 214 0 l 158 0 l 158 750 q 130 853 158 817 q 33 889 101 889 l 19 889 l 19 917 l 110 917 q 218 896 174 917 q 297 833 263 875 l 783 229 l 783 917 l 839 917 l 839 -14 l 811 -14 l 214 729 m 1117 604 q 1235 743 1235 604 q 1117 882 1235 882 q 999 743 999 882 q 1117 604 999 604 m 950 486 l 1283 486 l 1283 431 l 950 431 l 950 486 z "},"™":{"ha":1229,"x_min":74,"x_max":1164,"o":"m 256 875 l 203 875 q 124 848 154 875 q 94 771 94 821 l 74 771 l 74 833 q 151 917 74 917 l 531 917 l 531 875 l 349 875 l 349 426 l 256 426 l 256 875 m 1164 406 q 1028 451 1068 406 q 988 583 988 496 l 988 808 l 817 426 l 796 426 l 619 818 l 619 426 l 578 426 l 578 917 l 676 917 l 832 572 l 988 917 l 1081 917 l 1081 583 q 1103 474 1081 521 q 1164 426 1126 426 l 1164 406 z "},"":{"ha":361,"x_min":0,"x_max":361,"o":"m 181 972 q 0 1097 56 972 l 28 1118 q 181 1056 78 1056 q 333 1118 283 1056 l 361 1097 q 181 972 306 972 z "},"ء":{"ha":654,"x_min":68,"x_max":585,"o":"m 531 144 q 572 131 558 144 q 585 97 585 117 q 576 67 585 81 q 558 54 568 54 q 248 17 394 39 q 88 -18 101 -4 q 68 33 68 7 q 92 84 68 64 q 150 104 117 104 q 183 97 165 104 q 122 188 149 129 q 94 311 94 246 q 168 480 94 414 q 368 546 242 546 q 492 515 461 546 q 522 444 522 483 q 500 384 522 404 q 450 364 478 364 q 417 374 426 364 q 385 449 418 419 q 314 482 353 478 q 247 436 276 476 q 218 322 218 396 q 282 176 218 217 q 438 135 346 135 q 531 144 494 135 z "},"ا":{"ha":340,"x_min":69,"x_max":271,"o":"m 207 0 q 156 22 167 0 q 146 89 146 43 l 146 711 q 122 817 146 771 q 69 882 99 863 q 105 905 78 893 q 161 917 132 917 q 239 881 207 917 q 271 763 271 846 l 271 89 q 259 22 271 44 q 207 0 247 0 z "},"ﺎ":{"ha":438,"x_min":69,"x_max":438,"o":"m 358 0 q 207 68 267 0 q 146 269 147 136 l 146 711 q 122 817 146 771 q 69 882 99 863 q 105 905 78 893 q 161 917 132 917 q 239 881 207 917 q 271 763 271 846 l 271 261 q 303 147 271 196 q 394 97 335 97 l 438 97 l 438 0 l 358 0 z "},"أ":{"ha":340,"x_min":18,"x_max":303,"o":"m 207 0 q 156 22 167 0 q 146 89 146 43 l 146 626 q 122 732 146 686 q 69 797 99 778 q 105 820 78 808 q 161 832 132 832 q 239 797 207 832 q 271 678 271 761 l 271 89 q 259 22 271 44 q 207 0 247 0 m 29 889 q 18 918 18 907 q 31 945 18 935 q 60 956 43 956 q 79 951 71 956 q 48 1002 63 969 q 33 1069 33 1035 q 73 1164 33 1128 q 183 1200 113 1200 q 269 1144 269 1200 q 257 1111 269 1122 q 229 1100 244 1100 q 211 1106 217 1100 q 195 1146 213 1131 q 156 1165 178 1161 q 126 1140 139 1161 q 113 1081 113 1118 q 226 974 113 974 q 274 979 260 974 q 303 953 303 979 q 299 937 303 944 q 289 929 294 929 q 117 909 197 921 q 29 889 38 897 z "},"ﺄ":{"ha":438,"x_min":18,"x_max":438,"o":"m 357 0 q 206 68 267 0 q 146 271 146 136 l 146 626 q 122 732 146 686 q 69 797 99 778 q 105 820 78 808 q 161 832 132 832 q 239 797 207 832 q 271 678 271 761 l 271 261 q 303 147 271 197 q 394 97 335 97 l 438 97 l 438 0 l 357 0 m 29 889 q 18 918 18 907 q 31 945 18 935 q 60 956 43 956 q 79 951 71 956 q 48 1002 63 969 q 33 1069 33 1035 q 73 1164 33 1128 q 183 1200 113 1200 q 269 1144 269 1200 q 257 1111 269 1122 q 229 1100 244 1100 q 211 1106 217 1100 q 195 1146 213 1131 q 156 1165 178 1161 q 126 1140 139 1161 q 113 1081 113 1118 q 226 974 113 974 q 274 979 260 974 q 303 953 303 979 q 299 937 303 944 q 289 929 294 929 q 117 909 197 921 q 29 889 38 897 z "},"إ":{"ha":340,"x_min":64,"x_max":349,"o":"m 207 0 q 156 22 167 0 q 146 89 146 43 l 146 711 q 122 817 146 771 q 69 882 99 863 q 105 905 78 893 q 161 917 132 917 q 239 881 207 917 q 271 763 271 846 l 271 89 q 259 22 271 44 q 207 0 247 0 m 75 -381 q 64 -351 64 -362 q 76 -324 64 -335 q 106 -314 89 -314 q 125 -318 117 -314 q 93 -267 107 -299 q 79 -200 79 -235 q 119 -106 79 -142 q 229 -69 158 -69 q 315 -125 315 -69 q 303 -158 315 -147 q 275 -169 290 -169 q 257 -164 263 -169 q 241 -124 258 -139 q 201 -104 224 -108 q 172 -130 185 -108 q 158 -189 158 -151 q 272 -296 158 -296 q 319 -290 306 -296 q 349 -317 349 -290 q 344 -333 349 -325 q 335 -340 340 -340 q 163 -360 243 -349 q 75 -381 83 -372 z "},"ﺈ":{"ha":438,"x_min":69,"x_max":438,"o":"m 358 0 q 207 68 267 0 q 146 269 147 136 l 146 711 q 122 817 146 771 q 69 882 99 863 q 105 905 78 893 q 161 917 132 917 q 239 881 207 917 q 271 763 271 846 l 271 261 q 303 147 271 196 q 394 97 335 97 l 438 97 l 438 0 l 358 0 m 88 -381 q 76 -351 76 -362 q 89 -324 76 -335 q 118 -314 101 -314 q 138 -318 129 -314 q 106 -267 119 -299 q 92 -200 92 -235 q 131 -106 92 -142 q 242 -69 171 -69 q 328 -125 328 -69 q 315 -158 328 -147 q 288 -169 303 -169 q 269 -164 275 -169 q 253 -124 271 -139 q 214 -104 236 -108 q 184 -130 197 -108 q 171 -189 171 -151 q 285 -296 171 -296 q 332 -290 318 -296 q 361 -317 361 -290 q 357 -333 361 -325 q 347 -340 353 -340 q 176 -360 256 -349 q 88 -381 96 -372 z "},"آ":{"ha":340,"x_min":-51,"x_max":374,"o":"m 207 0 q 156 22 167 0 q 146 89 146 43 l 146 626 q 122 732 146 686 q 69 797 99 778 q 105 820 78 808 q 161 832 132 832 q 239 797 207 832 q 271 678 271 761 l 271 89 q 259 22 271 44 q 207 0 247 0 m 249 889 q 189 897 217 889 q 125 922 161 906 q 71 944 93 936 q 25 951 49 951 q -19 940 -1 951 q -44 929 -37 929 q -42 954 -51 929 q -6 1000 -33 979 q 69 1021 22 1021 q 122 1014 97 1021 q 181 993 146 1007 q 235 974 211 981 q 286 967 260 967 q 319 971 307 967 q 346 983 332 975 q 369 992 360 992 q 364 960 374 988 q 326 911 354 933 q 249 889 299 889 z "},"ﺂ":{"ha":438,"x_min":-51,"x_max":438,"o":"m 357 0 q 206 68 267 0 q 146 271 146 136 l 146 626 q 122 732 146 686 q 69 797 99 778 q 105 820 78 808 q 161 832 132 832 q 239 797 207 832 q 271 678 271 761 l 271 261 q 303 147 271 197 q 394 97 335 97 l 438 97 l 438 0 l 357 0 m 249 889 q 189 897 217 889 q 125 922 161 906 q 71 944 93 936 q 25 951 49 951 q -19 940 -1 951 q -44 929 -37 929 q -42 954 -51 929 q -6 1000 -33 979 q 69 1021 22 1021 q 122 1014 97 1021 q 181 993 146 1007 q 235 974 211 981 q 286 967 260 967 q 319 971 307 967 q 346 983 332 975 q 369 992 360 992 q 364 960 374 988 q 326 911 354 933 q 249 889 299 889 z "},"ٱ":{"ha":340,"x_min":10,"x_max":311,"o":"m 207 0 q 156 22 167 0 q 146 89 146 43 l 146 626 q 122 732 146 686 q 69 797 99 778 q 105 820 78 808 q 161 832 132 832 q 239 797 207 832 q 271 678 271 761 l 271 89 q 259 22 271 44 q 207 0 247 0 m 21 885 q 10 911 10 885 q 21 936 10 936 l 56 936 q 70 983 56 949 q 119 1048 85 1018 q 206 1078 153 1078 q 285 1046 260 1078 q 311 967 311 1014 q 294 907 311 929 q 249 885 278 885 l 21 885 m 213 936 q 242 975 242 936 q 229 1012 242 997 q 189 1026 217 1026 q 136 1011 160 1026 q 99 974 113 996 q 86 936 86 953 l 213 936 z "},"ﭑ":{"ha":438,"x_min":10,"x_max":438,"o":"m 357 0 q 206 68 267 0 q 146 271 146 136 l 146 626 q 122 732 146 686 q 69 797 99 778 q 105 820 78 808 q 161 832 132 832 q 239 797 207 832 q 271 678 271 761 l 271 261 q 303 147 271 197 q 394 97 335 97 l 438 97 l 438 0 l 357 0 m 21 885 q 10 911 10 885 q 21 936 10 936 l 56 936 q 70 983 56 949 q 119 1048 85 1018 q 206 1078 153 1078 q 285 1046 260 1078 q 311 967 311 1014 q 294 907 311 929 q 249 885 278 885 l 21 885 m 213 936 q 242 975 242 936 q 229 1012 242 997 q 189 1026 217 1026 q 136 1011 160 1026 q 99 974 113 996 q 86 936 86 953 l 213 936 z "},"ٮ":{"ha":1033,"x_min":90,"x_max":943,"o":"m 271 0 q 133 54 176 0 q 90 196 90 108 l 90 533 q 153 593 90 593 q 215 532 215 593 l 215 236 q 240 128 215 158 q 331 97 264 97 l 665 97 q 790 178 761 97 q 818 333 818 260 q 795 499 818 421 q 700 639 772 578 q 776 667 731 667 q 903 581 864 667 q 943 375 943 494 q 878 111 943 222 q 656 0 813 0 l 271 0 z "},"ب":{"ha":1033,"x_min":90,"x_max":943,"o":"m 271 0 q 133 54 176 0 q 90 196 90 108 l 90 533 q 153 593 90 593 q 215 532 215 593 l 215 236 q 240 128 215 158 q 331 97 264 97 l 665 97 q 790 178 761 97 q 818 333 818 260 q 795 499 818 421 q 700 639 772 578 q 776 667 731 667 q 903 581 864 667 q 943 375 943 494 q 878 111 943 222 q 656 0 813 0 l 271 0 m 488 -271 q 429 -247 453 -271 q 406 -192 406 -224 q 429 -135 406 -158 q 488 -111 453 -111 q 543 -135 519 -111 q 567 -192 567 -158 q 543 -247 567 -224 q 488 -271 519 -271 z "},"ﺐ":{"ha":1110,"x_min":90,"x_max":1110,"o":"m 1110 97 l 1110 0 l 929 0 q 853 9 883 0 q 799 36 824 18 q 656 0 738 0 l 271 0 q 133 54 176 0 q 90 196 90 108 l 90 533 q 153 593 90 593 q 215 532 215 593 l 215 236 q 240 128 215 158 q 331 97 264 97 l 665 97 q 790 178 761 97 q 818 333 818 260 q 795 499 818 421 q 700 639 772 578 q 776 667 731 667 q 903 581 864 667 q 943 375 943 494 q 867 97 943 197 l 1110 97 m 474 -271 q 415 -247 439 -271 q 392 -192 392 -224 q 415 -135 392 -158 q 474 -111 439 -111 q 529 -135 506 -111 q 553 -192 553 -158 q 529 -247 553 -224 q 474 -271 506 -271 z "},"ﺒ":{"ha":457,"x_min":0,"x_max":457,"o":"m 457 97 l 457 0 l 325 0 q 249 9 279 0 q 194 36 219 18 q 79 0 144 4 l 0 0 l 0 97 l 79 97 q 158 114 121 99 l 158 603 q 221 667 158 667 q 283 604 283 667 l 283 211 q 290 129 283 161 q 319 97 296 97 l 457 97 m 222 -271 q 164 -247 188 -271 q 140 -192 140 -224 q 164 -135 140 -158 q 222 -111 188 -111 q 278 -135 254 -111 q 301 -192 301 -158 q 278 -247 301 -224 q 222 -271 254 -271 z "},"ﺑ":{"ha":461,"x_min":0,"x_max":371,"o":"m 0 97 l 93 97 q 217 175 189 97 q 246 333 246 253 q 223 499 246 421 q 128 639 200 578 q 204 667 158 667 q 331 581 292 667 q 371 375 371 494 q 306 111 371 222 q 83 0 240 0 l 0 0 l 0 97 m 206 -271 q 147 -247 171 -271 q 124 -192 124 -224 q 147 -135 124 -158 q 206 -111 171 -111 q 261 -135 238 -111 q 285 -192 285 -158 q 261 -247 285 -224 q 206 -271 238 -271 z "},"پ":{"ha":1033,"x_min":90,"x_max":943,"o":"m 271 0 q 133 54 176 0 q 90 196 90 108 l 90 533 q 153 593 90 593 q 215 532 215 593 l 215 236 q 240 128 215 158 q 331 97 264 97 l 665 97 q 790 178 761 97 q 818 333 818 260 q 795 499 818 421 q 700 639 772 578 q 776 667 731 667 q 903 581 864 667 q 943 375 943 494 q 878 111 943 222 q 656 0 813 0 l 271 0 m 385 -271 q 329 -247 353 -271 q 306 -192 306 -224 q 329 -135 306 -158 q 385 -111 353 -111 q 441 -135 418 -111 q 464 -192 464 -158 q 441 -247 464 -224 q 385 -271 418 -271 m 588 -271 q 532 -247 556 -271 q 508 -192 508 -224 q 532 -135 508 -158 q 588 -111 556 -111 q 644 -135 621 -111 q 667 -192 667 -158 q 644 -247 667 -224 q 588 -271 621 -271 m 486 -436 q 434 -415 456 -436 q 413 -362 413 -393 q 434 -310 413 -332 q 486 -289 456 -289 q 538 -310 517 -289 q 560 -362 560 -332 q 538 -415 560 -393 q 486 -436 517 -436 z "},"ﭗ":{"ha":1110,"x_min":90,"x_max":1110,"o":"m 1110 97 l 1110 0 l 929 0 q 853 9 883 0 q 799 36 824 18 q 656 0 738 0 l 271 0 q 133 54 176 0 q 90 196 90 108 l 90 533 q 153 593 90 593 q 215 532 215 593 l 215 236 q 240 128 215 158 q 331 97 264 97 l 665 97 q 790 178 761 97 q 818 333 818 260 q 795 499 818 421 q 700 639 772 578 q 776 667 731 667 q 903 581 864 667 q 943 375 943 494 q 867 97 943 197 l 1110 97 m 371 -271 q 315 -247 339 -271 q 292 -192 292 -224 q 315 -135 292 -158 q 371 -111 339 -111 q 427 -135 404 -111 q 450 -192 450 -158 q 427 -247 450 -224 q 371 -271 404 -271 m 574 -271 q 518 -247 542 -271 q 494 -192 494 -224 q 518 -135 494 -158 q 574 -111 542 -111 q 630 -135 607 -111 q 653 -192 653 -158 q 630 -247 653 -224 q 574 -271 607 -271 m 472 -436 q 420 -415 442 -436 q 399 -362 399 -393 q 420 -310 399 -332 q 472 -289 442 -289 q 524 -310 503 -289 q 546 -362 546 -332 q 524 -415 546 -393 q 472 -436 503 -436 z "},"ﭙ":{"ha":457,"x_min":0,"x_max":457,"o":"m 457 97 l 457 0 l 325 0 q 249 9 279 0 q 194 36 219 18 q 79 0 144 4 l 0 0 l 0 97 l 79 97 q 158 114 121 99 l 158 603 q 221 667 158 667 q 283 604 283 667 l 283 211 q 290 129 283 161 q 319 97 296 97 l 457 97 m 119 -271 q 64 -247 88 -271 q 40 -192 40 -224 q 64 -135 40 -158 q 119 -111 88 -111 q 176 -135 153 -111 q 199 -192 199 -158 q 176 -247 199 -224 q 119 -271 153 -271 m 322 -271 q 267 -247 290 -271 q 243 -192 243 -224 q 267 -135 243 -158 q 322 -111 290 -111 q 378 -135 356 -111 q 401 -192 401 -158 q 378 -247 401 -224 q 322 -271 356 -271 m 221 -436 q 169 -415 190 -436 q 147 -362 147 -393 q 169 -310 147 -332 q 221 -289 190 -289 q 273 -310 251 -289 q 294 -362 294 -332 q 273 -415 294 -393 q 221 -436 251 -436 z "},"ﭘ":{"ha":461,"x_min":0,"x_max":385,"o":"m 0 97 l 93 97 q 217 175 189 97 q 246 333 246 253 q 223 499 246 421 q 128 639 200 578 q 204 667 158 667 q 331 581 292 667 q 371 375 371 494 q 306 111 371 222 q 83 0 240 0 l 0 0 l 0 97 m 103 -271 q 47 -247 71 -271 q 24 -192 24 -224 q 47 -135 24 -158 q 103 -111 71 -111 q 159 -135 136 -111 q 182 -192 182 -158 q 159 -247 182 -224 q 103 -271 136 -271 m 306 -271 q 250 -247 274 -271 q 226 -192 226 -224 q 250 -135 226 -158 q 306 -111 274 -111 q 362 -135 339 -111 q 385 -192 385 -158 q 362 -247 385 -224 q 306 -271 339 -271 m 204 -436 q 152 -415 174 -436 q 131 -362 131 -393 q 152 -310 131 -332 q 204 -289 174 -289 q 256 -310 235 -289 q 278 -362 278 -332 q 256 -415 278 -393 q 204 -436 235 -436 z "},"ﯩ":{"ha":457,"x_min":0,"x_max":457,"o":"m 457 97 l 457 0 l 325 0 q 249 9 279 0 q 194 36 219 18 q 79 0 144 4 l 0 0 l 0 97 l 79 97 q 158 114 121 99 l 158 603 q 221 667 158 667 q 283 604 283 667 l 283 211 q 290 129 283 161 q 319 97 296 97 l 457 97 z "},"ﯨ":{"ha":461,"x_min":0,"x_max":371,"o":"m 0 97 l 93 97 q 217 175 189 97 q 246 333 246 253 q 223 499 246 421 q 128 639 200 578 q 204 667 158 667 q 331 581 292 667 q 371 375 371 494 q 306 111 371 222 q 83 0 240 0 l 0 0 l 0 97 z "},"ت":{"ha":1033,"x_min":90,"x_max":943,"o":"m 271 0 q 133 54 176 0 q 90 196 90 108 l 90 533 q 153 593 90 593 q 215 532 215 593 l 215 236 q 240 128 215 158 q 331 97 264 97 l 665 97 q 790 178 761 97 q 818 333 818 260 q 795 499 818 421 q 700 639 772 578 q 776 667 731 667 q 903 581 864 667 q 943 375 943 494 q 878 111 943 222 q 656 0 813 0 l 271 0 m 386 694 q 331 718 354 694 q 307 774 307 742 q 331 831 307 807 q 386 854 354 854 q 442 831 419 854 q 465 774 465 807 q 442 718 465 742 q 386 694 419 694 m 589 694 q 533 718 557 694 q 510 774 510 742 q 533 831 510 807 q 589 854 557 854 q 645 831 622 854 q 668 774 668 807 q 645 718 668 742 q 589 694 622 694 z "},"ﺖ":{"ha":1110,"x_min":90,"x_max":1110,"o":"m 1110 97 l 1110 0 l 929 0 q 853 9 883 0 q 799 36 824 18 q 656 0 738 0 l 271 0 q 133 54 176 0 q 90 196 90 108 l 90 533 q 153 593 90 593 q 215 532 215 593 l 215 236 q 240 128 215 158 q 331 97 264 97 l 665 97 q 790 178 761 97 q 818 333 818 260 q 795 499 818 421 q 700 639 772 578 q 776 667 731 667 q 903 581 864 667 q 943 375 943 494 q 867 97 943 197 l 1110 97 m 372 694 q 317 718 340 694 q 293 774 293 742 q 317 831 293 807 q 372 854 340 854 q 428 831 406 854 q 451 774 451 807 q 428 718 451 742 q 372 694 406 694 m 575 694 q 519 718 543 694 q 496 774 496 742 q 519 831 496 807 q 575 854 543 854 q 631 831 608 854 q 654 774 654 807 q 631 718 654 742 q 575 694 608 694 z "},"ﺘ":{"ha":457,"x_min":0,"x_max":457,"o":"m 457 97 l 457 0 l 325 0 q 249 9 279 0 q 194 36 219 18 q 79 0 144 4 l 0 0 l 0 97 l 79 97 q 158 114 121 99 l 158 603 q 221 667 158 667 q 283 604 283 667 l 283 211 q 290 129 283 161 q 319 97 296 97 l 457 97 m 121 757 q 65 781 89 757 q 42 836 42 804 q 65 893 42 869 q 121 917 89 917 q 177 893 154 917 q 200 836 200 869 q 177 781 200 804 q 121 757 154 757 m 324 757 q 268 781 292 757 q 244 836 244 804 q 268 893 244 869 q 324 917 292 917 q 380 893 357 917 q 403 836 403 869 q 380 781 403 804 q 324 757 357 757 z "},"ﺗ":{"ha":461,"x_min":0,"x_max":386,"o":"m 0 97 l 93 97 q 217 175 189 97 q 246 333 246 253 q 223 499 246 421 q 128 639 200 578 q 204 667 158 667 q 331 581 292 667 q 371 375 371 494 q 306 111 371 222 q 83 0 240 0 l 0 0 l 0 97 m 104 757 q 49 781 72 757 q 25 836 25 804 q 49 893 25 869 q 104 917 72 917 q 160 893 138 917 q 183 836 183 869 q 160 781 183 804 q 104 757 138 757 m 307 757 q 251 781 275 757 q 228 836 228 804 q 251 893 228 869 q 307 917 275 917 q 363 893 340 917 q 386 836 386 869 q 363 781 386 804 q 307 757 340 757 z "},"ث":{"ha":1033,"x_min":90,"x_max":943,"o":"m 271 0 q 133 54 176 0 q 90 196 90 108 l 90 533 q 153 593 90 593 q 215 532 215 593 l 215 236 q 240 128 215 158 q 331 97 264 97 l 665 97 q 790 178 761 97 q 818 333 818 260 q 795 499 818 421 q 700 639 772 578 q 776 667 731 667 q 903 581 864 667 q 943 375 943 494 q 878 111 943 222 q 656 0 813 0 l 271 0 m 486 1019 q 538 998 517 1019 q 560 946 560 976 q 538 894 560 915 q 486 872 517 872 q 434 894 456 872 q 413 946 413 915 q 434 998 413 976 q 486 1019 456 1019 m 385 854 q 441 831 418 854 q 464 775 464 807 q 441 718 464 742 q 385 694 418 694 q 329 718 353 694 q 306 775 306 742 q 329 831 306 807 q 385 854 353 854 m 588 854 q 644 831 621 854 q 667 775 667 807 q 644 718 667 742 q 588 694 621 694 q 532 718 556 694 q 508 775 508 742 q 532 831 508 807 q 588 854 556 854 z "},"ﺚ":{"ha":1110,"x_min":90,"x_max":1110,"o":"m 1110 97 l 1110 0 l 929 0 q 853 9 883 0 q 799 36 824 18 q 656 0 738 0 l 271 0 q 133 54 176 0 q 90 196 90 108 l 90 533 q 153 593 90 593 q 215 532 215 593 l 215 236 q 240 128 215 158 q 331 97 264 97 l 665 97 q 790 178 761 97 q 818 333 818 260 q 795 499 818 421 q 700 639 772 578 q 776 667 731 667 q 903 581 864 667 q 943 375 943 494 q 867 97 943 197 l 1110 97 m 472 1019 q 524 998 503 1019 q 546 946 546 976 q 524 894 546 915 q 472 872 503 872 q 420 894 442 872 q 399 946 399 915 q 420 998 399 976 q 472 1019 442 1019 m 371 854 q 427 831 404 854 q 450 775 450 807 q 427 718 450 742 q 371 694 404 694 q 315 718 339 694 q 292 775 292 742 q 315 831 292 807 q 371 854 339 854 m 574 854 q 630 831 607 854 q 653 775 653 807 q 630 718 653 742 q 574 694 607 694 q 518 718 542 694 q 494 775 494 742 q 518 831 494 807 q 574 854 542 854 z "},"ﺜ":{"ha":457,"x_min":0,"x_max":457,"o":"m 457 97 l 457 0 l 325 0 q 249 9 279 0 q 194 36 219 18 q 79 0 144 4 l 0 0 l 0 97 l 79 97 q 158 114 121 99 l 158 603 q 221 667 158 667 q 283 604 283 667 l 283 211 q 290 129 283 161 q 319 97 296 97 l 457 97 m 221 1082 q 273 1060 251 1082 q 294 1008 294 1039 q 273 956 294 978 q 221 935 251 935 q 169 956 190 935 q 147 1008 147 978 q 169 1060 147 1039 q 221 1082 190 1082 m 119 917 q 176 893 153 917 q 199 838 199 869 q 176 781 199 804 q 119 757 153 757 q 64 781 88 757 q 40 838 40 804 q 64 893 40 869 q 119 917 88 917 m 322 917 q 378 893 356 917 q 401 838 401 869 q 378 781 401 804 q 322 757 356 757 q 267 781 290 757 q 243 838 243 804 q 267 893 243 869 q 322 917 290 917 z "},"ﺛ":{"ha":461,"x_min":0,"x_max":385,"o":"m 0 97 l 93 97 q 217 175 189 97 q 246 333 246 253 q 223 499 246 421 q 128 639 200 578 q 204 667 158 667 q 331 581 292 667 q 371 375 371 494 q 306 111 371 222 q 83 0 240 0 l 0 0 l 0 97 m 204 1082 q 256 1060 235 1082 q 278 1008 278 1039 q 256 956 278 978 q 204 935 235 935 q 152 956 174 935 q 131 1008 131 978 q 152 1060 131 1039 q 204 1082 174 1082 m 103 917 q 159 893 136 917 q 182 838 182 869 q 159 781 182 804 q 103 757 136 757 q 47 781 71 757 q 24 838 24 804 q 47 893 24 869 q 103 917 71 917 m 306 917 q 362 893 339 917 q 385 838 385 869 q 362 781 385 804 q 306 757 339 757 q 250 781 274 757 q 226 838 226 804 q 250 893 226 869 q 306 917 274 917 z "},"ٹ":{"ha":1033,"x_min":90,"x_max":943,"o":"m 271 0 q 133 54 176 0 q 90 196 90 108 l 90 533 q 153 593 90 593 q 215 532 215 593 l 215 236 q 240 128 215 158 q 331 97 264 97 l 665 97 q 790 178 761 97 q 818 333 818 260 q 795 499 818 421 q 700 639 772 578 q 776 667 731 667 q 903 581 864 667 q 943 375 943 494 q 878 111 943 222 q 656 0 813 0 l 271 0 m 351 694 q 340 721 340 694 q 351 746 340 746 l 374 746 l 374 922 q 356 964 374 946 q 365 969 357 967 q 379 972 372 972 q 402 963 392 972 q 413 935 413 954 l 413 821 q 459 869 433 851 q 526 888 485 888 q 607 856 581 888 q 633 776 633 824 q 617 717 633 739 q 571 694 600 694 l 351 694 m 535 746 q 556 756 549 746 q 564 785 564 767 q 551 822 564 807 q 511 836 539 836 q 458 821 482 836 q 421 784 435 806 q 407 746 407 763 l 535 746 z "},"ﭧ":{"ha":1110,"x_min":90,"x_max":1110,"o":"m 1110 97 l 1110 0 l 929 0 q 853 9 883 0 q 799 36 824 18 q 656 0 738 0 l 271 0 q 133 54 176 0 q 90 196 90 108 l 90 533 q 153 593 90 593 q 215 532 215 593 l 215 236 q 240 128 215 158 q 331 97 264 97 l 665 97 q 790 178 761 97 q 818 333 818 260 q 795 499 818 421 q 700 639 772 578 q 776 667 731 667 q 903 581 864 667 q 943 375 943 494 q 867 97 943 197 l 1110 97 m 338 694 q 326 721 326 694 q 338 746 326 746 l 360 746 l 360 922 q 342 964 360 946 q 351 969 343 967 q 365 972 358 972 q 388 963 378 972 q 399 935 399 954 l 399 821 q 445 869 419 851 q 513 888 471 888 q 593 856 567 888 q 619 776 619 824 q 603 717 619 739 q 557 694 586 694 l 338 694 m 521 746 q 542 756 535 746 q 550 785 550 767 q 538 822 550 807 q 497 836 525 836 q 444 821 468 836 q 407 784 421 806 q 393 746 393 763 l 521 746 z "},"ﭩ":{"ha":457,"x_min":0,"x_max":457,"o":"m 457 97 l 457 0 l 325 0 q 249 9 279 0 q 194 36 219 18 q 79 0 144 4 l 0 0 l 0 97 l 79 97 q 158 114 121 99 l 158 603 q 221 667 158 667 q 283 604 283 667 l 283 211 q 290 129 283 161 q 319 97 296 97 l 457 97 m 86 757 q 75 783 75 757 q 86 808 75 808 l 108 808 l 108 985 q 90 1026 108 1008 q 99 1032 92 1029 q 114 1035 107 1035 q 137 1026 126 1035 q 147 997 147 1017 l 147 883 q 194 932 168 914 q 261 950 219 950 q 342 918 315 950 q 368 839 368 886 q 351 779 368 801 q 306 757 335 757 l 86 757 m 269 808 q 291 819 283 808 q 299 847 299 829 q 286 884 299 869 q 246 899 274 899 q 193 883 217 899 q 156 847 169 868 q 142 808 142 825 l 269 808 z "},"ﭨ":{"ha":461,"x_min":0,"x_max":371,"o":"m 0 97 l 93 97 q 217 175 189 97 q 246 333 246 253 q 223 499 246 421 q 128 639 200 578 q 204 667 158 667 q 331 581 292 667 q 371 375 371 494 q 306 111 371 222 q 83 0 240 0 l 0 0 l 0 97 m 69 757 q 58 783 58 757 q 69 808 58 808 l 92 808 l 92 985 q 74 1026 92 1008 q 83 1032 75 1029 q 97 1035 90 1035 q 120 1026 110 1035 q 131 997 131 1017 l 131 883 q 177 932 151 914 q 244 950 203 950 q 325 918 299 950 q 351 839 351 886 q 335 779 351 801 q 289 757 318 757 l 69 757 m 253 808 q 274 819 267 808 q 282 847 282 829 q 269 884 282 869 q 229 899 257 899 q 176 883 200 899 q 139 847 153 868 q 125 808 125 825 l 253 808 z "},"ج":{"ha":817,"x_min":69,"x_max":747,"o":"m 347 667 q 651 579 554 667 q 747 324 747 492 q 673 86 747 172 q 456 0 599 0 l 193 0 q 219 -203 193 -115 q 313 -346 246 -290 q 278 -362 303 -354 q 231 -369 254 -369 q 135 -318 171 -369 q 84 -199 99 -267 q 69 -81 69 -132 q 232 97 69 97 l 367 97 q 495 106 447 97 q 583 164 543 115 q 622 321 622 213 q 551 508 622 446 q 303 569 481 569 l 222 568 q 163 590 185 568 q 131 640 140 611 q 124 694 121 671 q 165 671 143 681 q 221 661 188 661 l 260 663 q 347 667 293 667 m 410 -233 q 351 -210 375 -233 q 328 -154 328 -186 q 351 -97 328 -121 q 410 -74 375 -74 q 465 -97 442 -74 q 489 -154 489 -121 q 465 -210 489 -186 q 410 -233 442 -233 z "},"ﺞ":{"ha":782,"x_min":69,"x_max":782,"o":"m 782 97 l 782 0 l 742 0 q 666 9 696 0 q 611 36 636 18 q 456 0 547 0 l 193 0 q 219 -203 193 -115 q 313 -346 246 -290 q 278 -362 303 -354 q 231 -369 254 -369 q 135 -318 171 -369 q 84 -199 99 -267 q 69 -81 69 -132 q 232 97 69 97 l 367 97 q 495 106 447 97 q 583 164 543 115 q 622 321 622 213 q 551 508 622 446 q 303 569 481 569 l 222 568 q 163 590 185 568 q 131 640 140 611 q 124 694 121 671 q 165 671 143 681 q 221 661 188 661 l 260 663 q 347 667 293 667 q 651 579 554 667 q 747 324 747 492 q 682 97 747 182 l 782 97 m 410 -74 q 465 -97 442 -74 q 489 -154 489 -121 q 465 -210 489 -186 q 410 -233 442 -233 q 351 -210 375 -233 q 328 -154 328 -186 q 351 -97 328 -121 q 410 -74 375 -74 z "},"ﺠ":{"ha":736,"x_min":0,"x_max":736,"o":"m 736 97 l 736 0 l 667 0 q 591 9 621 0 q 536 36 561 18 q 381 0 472 0 l 0 0 l 0 97 l 292 97 q 419 106 371 97 q 507 163 467 114 q 547 319 547 211 q 476 507 547 444 q 228 569 406 569 l 147 568 q 83 588 104 568 q 54 644 63 607 q 49 694 46 682 q 90 671 68 681 q 146 661 113 661 l 185 663 q 272 667 218 667 q 576 579 479 667 q 672 324 672 492 q 607 97 672 182 l 736 97 m 372 -271 q 314 -247 338 -271 q 290 -192 290 -224 q 314 -135 290 -158 q 372 -111 338 -111 q 428 -135 404 -111 q 451 -192 451 -158 q 428 -247 451 -224 q 372 -271 404 -271 z "},"ﺟ":{"ha":742,"x_min":0,"x_max":672,"o":"m 0 97 l 292 97 q 419 106 371 97 q 507 163 467 114 q 547 319 547 211 q 476 507 547 444 q 228 569 406 569 l 147 568 q 83 588 104 568 q 54 644 63 607 q 49 694 46 682 q 90 671 68 681 q 146 661 113 661 l 185 663 q 272 667 218 667 q 576 579 479 667 q 672 324 672 492 q 598 86 672 172 q 381 0 524 0 l 0 0 l 0 97 m 372 -271 q 314 -247 338 -271 q 290 -192 290 -224 q 314 -135 290 -158 q 372 -111 338 -111 q 428 -135 404 -111 q 451 -192 451 -158 q 428 -247 451 -224 q 372 -271 404 -271 z "},"چ":{"ha":817,"x_min":69,"x_max":747,"o":"m 347 667 q 651 579 554 667 q 747 324 747 492 q 673 86 747 172 q 456 0 599 0 l 193 0 q 219 -203 193 -115 q 313 -346 246 -290 q 278 -362 303 -354 q 231 -369 254 -369 q 135 -318 171 -369 q 84 -199 99 -267 q 69 -81 69 -132 q 232 97 69 97 l 367 97 q 495 106 447 97 q 583 164 543 115 q 622 321 622 213 q 551 508 622 446 q 303 569 481 569 l 222 568 q 163 590 185 568 q 131 640 140 611 q 124 694 121 671 q 165 671 143 681 q 221 661 188 661 l 260 663 q 347 667 293 667 m 399 -242 q 343 -218 367 -242 q 319 -162 319 -194 q 343 -106 319 -129 q 399 -82 367 -82 q 455 -106 432 -82 q 478 -162 478 -129 q 455 -218 478 -194 q 399 -242 432 -242 m 601 -242 q 546 -218 569 -242 q 522 -162 522 -194 q 546 -106 522 -129 q 601 -82 569 -82 q 658 -106 635 -82 q 681 -162 681 -129 q 658 -218 681 -194 q 601 -242 635 -242 m 500 -407 q 448 -385 469 -407 q 426 -333 426 -364 q 448 -281 426 -303 q 500 -260 469 -260 q 552 -281 531 -260 q 574 -333 574 -303 q 552 -385 574 -364 q 500 -407 531 -407 z "},"ﭻ":{"ha":782,"x_min":69,"x_max":782,"o":"m 782 97 l 782 0 l 742 0 q 666 9 696 0 q 611 36 636 18 q 456 0 547 0 l 193 0 q 219 -203 193 -115 q 313 -346 246 -290 q 278 -362 303 -354 q 231 -369 254 -369 q 135 -318 171 -369 q 84 -199 99 -267 q 69 -81 69 -132 q 232 97 69 97 l 367 97 q 495 106 447 97 q 583 164 543 115 q 622 321 622 213 q 551 508 622 446 q 303 569 481 569 l 222 568 q 163 590 185 568 q 131 640 140 611 q 124 694 121 671 q 165 671 143 681 q 221 661 188 661 l 260 663 q 347 667 293 667 q 651 579 554 667 q 747 324 747 492 q 682 97 747 182 l 782 97 m 478 -162 q 455 -218 478 -194 q 399 -242 432 -242 q 343 -218 367 -242 q 319 -162 319 -194 q 343 -106 319 -129 q 399 -82 367 -82 q 455 -106 432 -82 q 478 -162 478 -129 m 601 -82 q 658 -106 635 -82 q 681 -162 681 -129 q 658 -218 681 -194 q 601 -242 635 -242 q 546 -218 569 -242 q 522 -162 522 -194 q 546 -106 522 -129 q 601 -82 569 -82 m 500 -260 q 552 -281 531 -260 q 574 -333 574 -303 q 552 -385 574 -364 q 500 -407 531 -407 q 448 -385 469 -407 q 426 -333 426 -364 q 448 -281 426 -303 q 500 -260 469 -260 z "},"ﭽ":{"ha":736,"x_min":0,"x_max":736,"o":"m 736 97 l 736 0 l 667 0 q 591 9 621 0 q 536 36 561 18 q 381 0 472 0 l 0 0 l 0 97 l 292 97 q 419 106 371 97 q 507 163 467 114 q 547 319 547 211 q 476 507 547 444 q 228 569 406 569 l 147 568 q 83 588 104 568 q 54 644 63 607 q 49 694 46 682 q 90 671 68 681 q 146 661 113 661 l 185 663 q 272 667 218 667 q 576 579 479 667 q 672 324 672 492 q 607 97 672 182 l 736 97 m 269 -271 q 214 -247 238 -271 q 190 -192 190 -224 q 214 -135 190 -158 q 269 -111 238 -111 q 326 -135 303 -111 q 349 -192 349 -158 q 326 -247 349 -224 q 269 -271 303 -271 m 472 -271 q 417 -247 440 -271 q 393 -192 393 -224 q 417 -135 393 -158 q 472 -111 440 -111 q 528 -135 506 -111 q 551 -192 551 -158 q 528 -247 551 -224 q 472 -271 506 -271 m 371 -436 q 319 -415 340 -436 q 297 -362 297 -393 q 319 -310 297 -332 q 371 -289 340 -289 q 423 -310 401 -289 q 444 -362 444 -332 q 423 -415 444 -393 q 371 -436 401 -436 z "},"ﭼ":{"ha":742,"x_min":0,"x_max":672,"o":"m 0 97 l 292 97 q 419 106 371 97 q 507 163 467 114 q 547 319 547 211 q 476 507 547 444 q 228 569 406 569 l 147 568 q 83 588 104 568 q 54 644 63 607 q 49 694 46 682 q 90 671 68 681 q 146 661 113 661 l 185 663 q 272 667 218 667 q 576 579 479 667 q 672 324 672 492 q 598 86 672 172 q 381 0 524 0 l 0 0 l 0 97 m 269 -271 q 214 -247 238 -271 q 190 -192 190 -224 q 214 -135 190 -158 q 269 -111 238 -111 q 326 -135 303 -111 q 349 -192 349 -158 q 326 -247 349 -224 q 269 -271 303 -271 m 472 -271 q 417 -247 440 -271 q 393 -192 393 -224 q 417 -135 393 -158 q 472 -111 440 -111 q 528 -135 506 -111 q 551 -192 551 -158 q 528 -247 551 -224 q 472 -271 506 -271 m 371 -436 q 319 -415 340 -436 q 297 -362 297 -393 q 319 -310 297 -332 q 371 -289 340 -289 q 423 -310 401 -289 q 444 -362 444 -332 q 423 -415 444 -393 q 371 -436 401 -436 z "},"ح":{"ha":817,"x_min":69,"x_max":747,"o":"m 347 667 q 651 579 554 667 q 747 324 747 492 q 673 86 747 172 q 456 0 599 0 l 193 0 q 219 -203 193 -115 q 313 -346 246 -290 q 278 -362 303 -354 q 231 -369 254 -369 q 135 -318 171 -369 q 84 -199 99 -267 q 69 -81 69 -132 q 232 97 69 97 l 367 97 q 495 106 447 97 q 583 164 543 115 q 622 321 622 213 q 551 508 622 446 q 303 569 481 569 l 222 568 q 163 590 185 568 q 131 640 140 611 q 124 694 121 671 q 165 671 143 681 q 221 661 188 661 l 260 663 q 347 667 293 667 z "},"ﺢ":{"ha":782,"x_min":69,"x_max":782,"o":"m 782 97 l 782 0 l 742 0 q 666 9 696 0 q 611 36 636 18 q 456 0 547 0 l 193 0 q 219 -203 193 -115 q 313 -346 246 -290 q 278 -362 303 -354 q 231 -369 254 -369 q 135 -318 171 -369 q 84 -199 99 -267 q 69 -81 69 -132 q 232 97 69 97 l 367 97 q 495 106 447 97 q 583 164 543 115 q 622 321 622 213 q 551 508 622 446 q 303 569 481 569 l 222 568 q 163 590 185 568 q 131 640 140 611 q 124 694 121 671 q 165 671 143 681 q 221 661 188 661 l 260 663 q 347 667 293 667 q 651 579 554 667 q 747 324 747 492 q 682 97 747 182 l 782 97 z "},"ﺤ":{"ha":736,"x_min":0,"x_max":736,"o":"m 736 97 l 736 0 l 667 0 q 591 9 621 0 q 536 36 561 18 q 381 0 472 0 l 0 0 l 0 97 l 292 97 q 419 106 371 97 q 507 163 467 114 q 547 319 547 211 q 476 507 547 444 q 228 569 406 569 l 147 568 q 83 588 104 568 q 54 644 63 607 q 49 694 46 682 q 90 671 68 681 q 146 661 113 661 l 185 663 q 272 667 218 667 q 576 579 479 667 q 672 324 672 492 q 607 97 672 182 l 736 97 z "},"ﺣ":{"ha":742,"x_min":0,"x_max":672,"o":"m 0 97 l 292 97 q 419 106 371 97 q 507 163 467 114 q 547 319 547 211 q 476 507 547 444 q 228 569 406 569 l 147 568 q 83 588 104 568 q 54 644 63 607 q 49 694 46 682 q 90 671 68 681 q 146 661 113 661 l 185 663 q 272 667 218 667 q 576 579 479 667 q 672 324 672 492 q 598 86 672 172 q 381 0 524 0 l 0 0 l 0 97 z "},"خ":{"ha":817,"x_min":69,"x_max":747,"o":"m 347 667 q 651 579 554 667 q 747 324 747 492 q 673 86 747 172 q 456 0 599 0 l 193 0 q 219 -203 193 -115 q 313 -346 246 -290 q 278 -362 303 -354 q 231 -369 254 -369 q 135 -318 171 -369 q 84 -199 99 -267 q 69 -81 69 -132 q 232 97 69 97 l 367 97 q 495 106 447 97 q 583 164 543 115 q 622 321 622 213 q 551 508 622 446 q 303 569 481 569 l 222 568 q 163 590 185 568 q 131 640 140 611 q 124 694 121 671 q 165 671 143 681 q 221 661 188 661 l 260 663 q 347 667 293 667 m 410 757 q 351 781 375 757 q 328 836 328 804 q 351 893 328 869 q 410 917 375 917 q 465 893 442 917 q 489 836 489 869 q 465 781 489 804 q 410 757 442 757 z "},"ﺦ":{"ha":782,"x_min":69,"x_max":782,"o":"m 782 97 l 782 0 l 742 0 q 666 9 696 0 q 611 36 636 18 q 456 0 547 0 l 193 0 q 219 -203 193 -115 q 313 -346 246 -290 q 278 -362 303 -354 q 231 -369 254 -369 q 135 -318 171 -369 q 84 -199 99 -267 q 69 -81 69 -132 q 232 97 69 97 l 367 97 q 495 106 447 97 q 583 164 543 115 q 622 321 622 213 q 551 508 622 446 q 303 569 481 569 l 222 568 q 163 590 185 568 q 131 640 140 611 q 124 694 121 671 q 165 671 143 681 q 221 661 188 661 l 260 663 q 347 667 293 667 q 651 579 554 667 q 747 324 747 492 q 682 97 747 182 l 782 97 m 410 757 q 351 781 375 757 q 328 836 328 804 q 351 893 328 869 q 410 917 375 917 q 465 893 442 917 q 489 836 489 869 q 465 781 489 804 q 410 757 442 757 z "},"ﺨ":{"ha":736,"x_min":0,"x_max":736,"o":"m 736 97 l 736 0 l 667 0 q 591 9 621 0 q 536 36 561 18 q 381 0 472 0 l 0 0 l 0 97 l 292 97 q 419 106 371 97 q 507 163 467 114 q 547 319 547 211 q 476 507 547 444 q 228 569 406 569 l 147 568 q 83 588 104 568 q 54 644 63 607 q 49 694 46 682 q 90 671 68 681 q 146 661 113 661 l 185 663 q 272 667 218 667 q 576 579 479 667 q 672 324 672 492 q 607 97 672 182 l 736 97 m 372 757 q 314 781 338 757 q 290 836 290 804 q 314 893 290 869 q 372 917 338 917 q 428 893 404 917 q 451 836 451 869 q 428 781 451 804 q 372 757 404 757 z "},"ﺧ":{"ha":742,"x_min":0,"x_max":672,"o":"m 0 97 l 292 97 q 419 106 371 97 q 507 163 467 114 q 547 319 547 211 q 476 507 547 444 q 228 569 406 569 l 147 568 q 83 588 104 568 q 54 644 63 607 q 49 694 46 682 q 90 671 68 681 q 146 661 113 661 l 185 663 q 272 667 218 667 q 576 579 479 667 q 672 324 672 492 q 598 86 672 172 q 381 0 524 0 l 0 0 l 0 97 m 372 757 q 314 781 338 757 q 290 836 290 804 q 314 893 290 869 q 372 917 338 917 q 428 893 404 917 q 451 836 451 869 q 428 781 451 804 q 372 757 404 757 z "},"د":{"ha":672,"x_min":69,"x_max":603,"o":"m 311 667 q 474 621 408 667 q 572 504 540 575 q 603 360 603 433 q 572 201 603 285 q 476 59 542 118 q 310 0 410 0 l 107 0 q 78 14 88 0 q 69 46 69 28 q 82 82 69 67 q 122 97 94 97 l 196 97 q 408 173 339 97 q 478 360 478 249 q 431 512 478 453 q 307 569 385 571 q 228 519 256 553 q 200 426 200 486 q 136 436 164 424 q 90 513 90 457 q 152 623 90 579 q 311 667 214 667 m 274 565 l 271 565 l 274 565 z "},"ﺪ":{"ha":743,"x_min":69,"x_max":743,"o":"m 743 97 l 743 0 l 574 0 q 498 9 528 0 q 443 36 468 18 q 310 0 385 0 l 107 0 q 78 14 88 0 q 69 46 69 28 q 82 82 69 67 q 122 97 94 97 l 196 97 q 408 173 339 97 q 478 360 478 249 q 431 512 478 453 q 307 569 385 571 q 228 519 256 553 q 200 426 200 486 q 136 436 164 424 q 90 513 90 457 q 152 623 90 579 q 311 667 214 667 q 474 621 408 667 q 572 504 540 575 q 603 360 603 433 q 581 224 603 296 q 514 97 558 151 l 743 97 m 274 565 l 271 565 l 274 565 z "},"ذ":{"ha":672,"x_min":69,"x_max":603,"o":"m 311 667 q 474 621 408 667 q 572 504 540 575 q 603 360 603 433 q 572 201 603 285 q 476 59 542 118 q 310 0 410 0 l 107 0 q 78 14 88 0 q 69 46 69 28 q 82 82 69 67 q 122 97 94 97 l 196 97 q 408 173 339 97 q 478 360 478 249 q 431 512 478 453 q 307 569 385 571 q 228 519 256 553 q 200 426 200 486 q 136 436 164 424 q 90 513 90 457 q 152 623 90 579 q 311 667 214 667 m 274 565 l 271 565 l 274 565 m 338 757 q 279 781 303 757 q 256 836 256 804 q 279 893 256 869 q 338 917 303 917 q 393 893 369 917 q 417 836 417 869 q 393 781 417 804 q 338 757 369 757 z "},"ﺬ":{"ha":743,"x_min":69,"x_max":743,"o":"m 743 97 l 743 0 l 574 0 q 498 9 528 0 q 443 36 468 18 q 310 0 385 0 l 107 0 q 78 14 88 0 q 69 46 69 28 q 82 82 69 67 q 122 97 94 97 l 196 97 q 408 173 339 97 q 478 360 478 249 q 431 512 478 453 q 307 569 385 571 q 228 519 256 553 q 200 426 200 486 q 136 436 164 424 q 90 513 90 457 q 152 623 90 579 q 311 667 214 667 q 474 621 408 667 q 572 504 540 575 q 603 360 603 433 q 581 224 603 296 q 514 97 558 151 l 743 97 m 274 565 l 271 565 l 274 565 m 338 757 q 279 781 303 757 q 256 836 256 804 q 279 893 256 869 q 338 917 303 917 q 393 893 369 917 q 417 836 417 869 q 393 781 417 804 q 338 757 369 757 z "},"ڈ":{"ha":672,"x_min":69,"x_max":603,"o":"m 311 667 q 474 621 408 667 q 572 504 540 575 q 603 360 603 433 q 572 201 603 285 q 476 59 542 118 q 310 0 410 0 l 107 0 q 78 14 88 0 q 69 46 69 28 q 82 82 69 67 q 122 97 94 97 l 196 97 q 408 173 339 97 q 478 360 478 249 q 431 512 478 453 q 307 569 385 571 q 228 519 256 553 q 200 426 200 486 q 136 436 164 424 q 90 513 90 457 q 152 623 90 579 q 311 667 214 667 m 274 565 l 271 565 l 274 565 m 201 757 q 190 783 190 757 q 201 808 190 808 l 224 808 l 224 985 q 206 1026 224 1008 q 215 1032 207 1029 q 229 1035 222 1035 q 252 1026 242 1035 q 263 997 263 1017 l 263 883 q 309 932 283 914 q 376 950 335 950 q 457 918 431 950 q 483 839 483 886 q 467 779 483 801 q 421 757 450 757 l 201 757 m 385 808 q 406 819 399 808 q 414 847 414 829 q 401 884 414 869 q 361 899 389 899 q 308 883 332 899 q 271 847 285 868 q 257 808 257 825 l 385 808 z "},"ﮉ":{"ha":743,"x_min":69,"x_max":743,"o":"m 743 97 l 743 0 l 574 0 q 498 9 528 0 q 443 36 468 18 q 310 0 385 0 l 107 0 q 78 14 88 0 q 69 46 69 28 q 82 82 69 67 q 122 97 94 97 l 196 97 q 408 173 339 97 q 478 360 478 249 q 431 512 478 453 q 307 569 385 571 q 228 519 256 553 q 200 426 200 486 q 136 436 164 424 q 90 513 90 457 q 152 623 90 579 q 311 667 214 667 q 474 621 408 667 q 572 504 540 575 q 603 360 603 433 q 581 224 603 296 q 514 97 558 151 l 743 97 m 274 565 l 271 565 l 274 565 m 201 757 q 190 783 190 757 q 201 808 190 808 l 224 808 l 224 985 q 206 1026 224 1008 q 215 1032 207 1029 q 229 1035 222 1035 q 252 1026 242 1035 q 263 997 263 1017 l 263 883 q 309 932 283 914 q 376 950 335 950 q 457 918 431 950 q 483 839 483 886 q 467 779 483 801 q 421 757 450 757 l 201 757 m 385 808 q 406 819 399 808 q 414 847 414 829 q 401 884 414 869 q 361 899 389 899 q 308 883 332 899 q 271 847 285 868 q 257 808 257 825 l 385 808 z "},"ر":{"ha":368,"x_min":-62,"x_max":306,"o":"m 100 -318 q -10 -292 29 -318 q -62 -246 -49 -267 q 24 -257 -22 -257 q 114 -235 78 -257 q 166 -181 150 -212 q 182 -118 182 -149 l 181 608 q 243 667 181 667 q 288 653 269 667 q 306 610 306 640 l 306 -101 q 288 -194 306 -144 q 224 -281 269 -243 q 100 -318 178 -318 z "},"ﺮ":{"ha":443,"x_min":-62,"x_max":443,"o":"m 443 0 l 306 0 l 306 -101 q 288 -194 306 -144 q 224 -281 269 -243 q 100 -318 178 -318 q -10 -292 29 -318 q -62 -246 -49 -267 q 24 -257 -22 -257 q 114 -235 78 -257 q 166 -181 150 -212 q 182 -118 182 -149 l 181 608 q 243 667 181 667 q 288 653 269 667 q 306 610 306 640 l 306 97 l 443 97 l 443 0 z "},"ز":{"ha":368,"x_min":-62,"x_max":324,"o":"m 100 -318 q -10 -292 29 -318 q -62 -246 -49 -267 q 24 -257 -22 -257 q 114 -235 78 -257 q 166 -181 150 -212 q 182 -118 182 -149 l 181 608 q 243 667 181 667 q 288 653 269 667 q 306 610 306 640 l 306 -101 q 288 -194 306 -144 q 224 -281 269 -243 q 100 -318 178 -318 m 244 757 q 186 781 210 757 q 163 836 163 804 q 186 893 163 869 q 244 917 210 917 q 300 893 276 917 q 324 836 324 869 q 300 781 324 804 q 244 757 276 757 z "},"ﺰ":{"ha":443,"x_min":-62,"x_max":443,"o":"m 443 0 l 306 0 l 306 -101 q 288 -194 306 -144 q 224 -281 269 -243 q 100 -318 178 -318 q -10 -292 29 -318 q -62 -246 -49 -267 q 24 -257 -22 -257 q 114 -235 78 -257 q 166 -181 150 -212 q 182 -118 182 -149 l 181 608 q 243 667 181 667 q 288 653 269 667 q 306 610 306 640 l 306 97 l 443 97 l 443 0 m 244 757 q 186 781 210 757 q 163 836 163 804 q 186 893 163 869 q 244 917 210 917 q 300 893 276 917 q 324 836 324 869 q 300 781 324 804 q 244 757 276 757 z "},"ڑ":{"ha":368,"x_min":-62,"x_max":390,"o":"m 100 -318 q -10 -292 29 -318 q -62 -246 -49 -267 q 24 -257 -22 -257 q 114 -235 78 -257 q 166 -181 150 -212 q 182 -118 182 -149 l 181 608 q 243 667 181 667 q 288 653 269 667 q 306 610 306 640 l 306 -101 q 288 -194 306 -144 q 224 -281 269 -243 q 100 -318 178 -318 m 108 757 q 97 783 97 757 q 108 808 97 808 l 131 808 l 131 985 q 113 1026 131 1008 q 122 1032 114 1029 q 136 1035 129 1035 q 159 1026 149 1035 q 169 997 169 1017 l 169 883 q 216 932 190 914 q 283 950 242 950 q 364 918 338 950 q 390 839 390 886 q 374 779 390 801 q 328 757 357 757 l 108 757 m 292 808 q 313 819 306 808 q 321 847 321 829 q 308 884 321 869 q 268 899 296 899 q 215 883 239 899 q 178 847 192 868 q 164 808 164 825 l 292 808 z "},"ﮍ":{"ha":443,"x_min":-62,"x_max":443,"o":"m 443 0 l 306 0 l 306 -101 q 288 -194 306 -144 q 224 -281 269 -243 q 100 -318 178 -318 q -10 -292 29 -318 q -62 -246 -49 -267 q 24 -257 -22 -257 q 114 -235 78 -257 q 166 -181 150 -212 q 182 -118 182 -149 l 181 608 q 243 667 181 667 q 288 653 269 667 q 306 610 306 640 l 306 97 l 443 97 l 443 0 m 108 757 q 97 783 97 757 q 108 808 97 808 l 131 808 l 131 985 q 113 1026 131 1008 q 122 1032 114 1029 q 136 1035 129 1035 q 159 1026 149 1035 q 169 997 169 1017 l 169 883 q 216 932 190 914 q 283 950 242 950 q 364 918 338 950 q 390 839 390 886 q 374 779 390 801 q 328 757 357 757 l 108 757 m 292 808 q 313 819 306 808 q 321 847 321 829 q 308 884 321 869 q 268 899 296 899 q 215 883 239 899 q 178 847 192 868 q 164 808 164 825 l 292 808 z "},"ژ":{"ha":368,"x_min":-62,"x_max":424,"o":"m 100 -318 q -10 -292 29 -318 q -62 -246 -49 -267 q 24 -257 -22 -257 q 114 -235 78 -257 q 166 -181 150 -212 q 182 -118 182 -149 l 181 608 q 243 667 181 667 q 288 653 269 667 q 306 610 306 640 l 306 -101 q 288 -194 306 -144 q 224 -281 269 -243 q 100 -318 178 -318 m 243 1082 q 295 1060 274 1082 q 317 1008 317 1039 q 295 956 317 978 q 243 935 274 935 q 191 956 213 935 q 169 1008 169 978 q 191 1060 169 1039 q 243 1082 213 1082 m 142 917 q 198 893 175 917 q 221 838 221 869 q 198 781 221 804 q 142 757 175 757 q 86 781 110 757 q 63 838 63 804 q 86 893 63 869 q 142 917 110 917 m 344 917 q 401 893 378 917 q 424 838 424 869 q 401 781 424 804 q 344 757 378 757 q 289 781 313 757 q 265 838 265 804 q 289 893 265 869 q 344 917 313 917 z "},"ﮋ":{"ha":443,"x_min":-62,"x_max":443,"o":"m 443 0 l 306 0 l 306 -101 q 288 -194 306 -144 q 224 -281 269 -243 q 100 -318 178 -318 q -10 -292 29 -318 q -62 -246 -49 -267 q 24 -257 -22 -257 q 114 -235 78 -257 q 166 -181 150 -212 q 182 -118 182 -149 l 181 608 q 243 667 181 667 q 288 653 269 667 q 306 610 306 640 l 306 97 l 443 97 l 443 0 m 243 1082 q 295 1060 274 1082 q 317 1008 317 1039 q 295 956 317 978 q 243 935 274 935 q 191 956 213 935 q 169 1008 169 978 q 191 1060 169 1039 q 243 1082 213 1082 m 142 917 q 198 893 175 917 q 221 838 221 869 q 198 781 221 804 q 142 757 175 757 q 86 781 110 757 q 63 838 63 804 q 86 893 63 869 q 142 917 110 917 m 344 917 q 401 893 378 917 q 424 838 424 869 q 401 781 424 804 q 344 757 378 757 q 289 781 313 757 q 265 838 265 804 q 289 893 265 869 q 344 917 313 917 z "},"س":{"ha":1775,"x_min":90,"x_max":1685,"o":"m 1518 667 q 1645 581 1606 667 q 1685 375 1685 494 q 1619 112 1685 224 q 1397 0 1553 0 l 1381 0 q 1257 17 1304 0 q 1165 81 1210 35 q 1098 24 1138 47 q 1017 0 1058 0 l 908 0 q 806 28 849 0 q 757 -207 801 -124 q 639 -322 713 -290 q 460 -353 565 -353 q 200 -272 310 -353 q 90 56 90 -190 q 124 259 90 189 q 198 351 158 329 q 269 372 238 372 q 311 364 290 372 q 344 344 332 356 q 253 213 294 304 q 211 8 211 122 q 280 -206 211 -142 q 458 -269 349 -269 q 610 -222 561 -269 q 669 -109 658 -175 q 681 57 681 -43 l 681 526 q 743 590 681 590 q 806 526 806 590 l 806 246 l 806 244 q 815 131 806 165 q 864 97 825 97 l 969 97 q 1068 124 1040 97 q 1096 201 1096 151 l 1096 558 q 1157 624 1096 624 q 1219 558 1219 624 l 1219 279 q 1242 153 1219 210 q 1322 97 1264 97 l 1407 97 q 1531 181 1501 97 q 1560 342 1560 264 q 1442 639 1560 539 q 1518 667 1472 667 z "},"ﺲ":{"ha":1882,"x_min":90,"x_max":1882,"o":"m 1882 97 l 1882 0 l 1669 0 q 1594 9 1624 0 q 1539 36 1564 18 q 1397 0 1478 0 l 1381 0 q 1257 17 1304 0 q 1165 81 1210 35 q 1098 24 1138 47 q 1017 0 1058 0 l 908 0 q 806 28 849 0 q 757 -207 801 -124 q 639 -322 713 -290 q 460 -353 565 -353 q 200 -272 310 -353 q 90 56 90 -190 q 124 259 90 189 q 198 351 158 329 q 269 372 238 372 q 311 364 290 372 q 344 344 332 356 q 253 213 294 304 q 211 8 211 122 q 280 -206 211 -142 q 458 -269 349 -269 q 610 -222 561 -269 q 669 -109 658 -175 q 681 57 681 -43 l 681 526 q 743 590 681 590 q 806 526 806 590 l 806 246 l 806 244 q 815 131 806 165 q 864 97 825 97 l 969 97 q 1068 124 1040 97 q 1096 201 1096 151 l 1096 558 q 1157 624 1096 624 q 1219 558 1219 624 l 1219 279 q 1242 153 1219 210 q 1322 97 1264 97 l 1407 97 q 1531 181 1501 97 q 1560 342 1560 264 q 1442 639 1560 539 q 1518 667 1472 667 q 1645 581 1606 667 q 1685 375 1685 494 q 1667 224 1685 297 q 1608 97 1649 151 l 1882 97 z "},"ﺴ":{"ha":1388,"x_min":0,"x_max":1388,"o":"m 1388 97 l 1388 0 l 1168 0 q 1092 9 1122 0 q 1038 36 1063 18 q 894 0 976 0 l 879 0 q 756 17 803 0 q 664 81 708 35 q 597 24 636 47 q 515 0 557 0 l 385 0 q 233 50 296 0 q 96 0 172 0 l 0 0 l 0 97 l 53 97 q 135 113 108 97 q 170 151 163 128 q 178 210 178 174 l 178 526 q 240 590 178 590 q 287 576 271 590 q 303 526 303 561 l 303 246 q 313 131 303 165 q 361 97 322 97 l 467 97 q 565 124 538 97 q 593 201 593 151 l 593 558 q 610 606 593 589 q 660 624 628 624 q 718 558 718 624 l 718 279 q 740 153 718 208 q 819 97 761 97 l 904 97 q 1028 178 1000 97 q 1057 333 1057 260 q 1034 499 1057 421 q 939 639 1011 578 q 1015 667 969 667 q 1142 581 1103 667 q 1182 375 1182 494 q 1106 97 1182 197 l 1388 97 z "},"ﺳ":{"ha":1272,"x_min":0,"x_max":1182,"o":"m 1015 667 q 1142 581 1103 667 q 1182 375 1182 494 q 1117 111 1182 222 q 894 0 1051 0 l 879 0 q 756 17 803 0 q 664 81 708 35 q 597 24 636 47 q 515 0 557 0 l 385 0 q 233 50 296 0 q 96 0 172 0 l 0 0 l 0 97 l 53 97 q 135 113 108 97 q 170 151 163 128 q 178 210 178 174 l 178 526 q 240 590 178 590 q 287 576 271 590 q 303 526 303 561 l 303 246 q 313 131 303 165 q 361 97 322 97 l 467 97 q 565 124 538 97 q 593 201 593 151 l 593 558 q 610 606 593 589 q 660 624 628 624 q 718 558 718 624 l 718 279 q 740 153 718 208 q 819 97 761 97 l 904 97 q 1028 178 1000 97 q 1057 333 1057 260 q 1034 499 1057 421 q 939 639 1011 578 q 1015 667 969 667 z "},"ش":{"ha":1775,"x_min":90,"x_max":1685,"o":"m 1518 667 q 1645 581 1606 667 q 1685 375 1685 494 q 1619 112 1685 224 q 1397 0 1553 0 l 1381 0 q 1257 17 1304 0 q 1165 81 1210 35 q 1098 24 1138 47 q 1017 0 1058 0 l 908 0 q 806 28 849 0 q 757 -207 801 -124 q 639 -322 713 -290 q 460 -353 565 -353 q 200 -272 310 -353 q 90 56 90 -190 q 124 259 90 189 q 198 351 158 329 q 269 372 238 372 q 311 364 290 372 q 344 344 332 356 q 253 213 294 304 q 211 8 211 122 q 280 -206 211 -142 q 458 -269 349 -269 q 610 -222 561 -269 q 669 -109 658 -175 q 681 57 681 -43 l 681 526 q 743 590 681 590 q 806 526 806 590 l 806 246 l 806 244 q 815 131 806 165 q 864 97 825 97 l 969 97 q 1068 124 1040 97 q 1096 201 1096 151 l 1096 558 q 1157 624 1096 624 q 1219 558 1219 624 l 1219 279 q 1242 153 1219 210 q 1322 97 1264 97 l 1407 97 q 1531 181 1501 97 q 1560 342 1560 264 q 1442 639 1560 539 q 1518 667 1472 667 m 1154 1082 q 1206 1060 1185 1082 q 1228 1008 1228 1039 q 1206 956 1228 978 q 1154 935 1185 935 q 1102 956 1124 935 q 1081 1008 1081 978 q 1102 1060 1081 1039 q 1154 1082 1124 1082 m 1053 917 q 1109 893 1086 917 q 1132 838 1132 869 q 1109 781 1132 804 q 1053 757 1086 757 q 997 781 1021 757 q 974 838 974 804 q 997 893 974 869 q 1053 917 1021 917 m 1256 917 q 1312 893 1289 917 q 1335 838 1335 869 q 1312 781 1335 804 q 1256 757 1289 757 q 1200 781 1224 757 q 1176 838 1176 804 q 1200 893 1176 869 q 1256 917 1224 917 z "},"ﺶ":{"ha":1882,"x_min":90,"x_max":1882,"o":"m 1882 97 l 1882 0 l 1669 0 q 1594 9 1624 0 q 1539 36 1564 18 q 1397 0 1478 0 l 1381 0 q 1257 17 1304 0 q 1165 81 1210 35 q 1098 24 1138 47 q 1017 0 1058 0 l 908 0 q 806 28 849 0 q 757 -207 801 -124 q 639 -322 713 -290 q 460 -353 565 -353 q 200 -272 310 -353 q 90 56 90 -190 q 124 259 90 189 q 198 351 158 329 q 269 372 238 372 q 311 364 290 372 q 344 344 332 356 q 253 213 294 304 q 211 8 211 122 q 280 -206 211 -142 q 458 -269 349 -269 q 610 -222 561 -269 q 669 -109 658 -175 q 681 57 681 -43 l 681 526 q 743 590 681 590 q 806 526 806 590 l 806 246 l 806 244 q 815 131 806 165 q 864 97 825 97 l 969 97 q 1068 124 1040 97 q 1096 201 1096 151 l 1096 558 q 1157 624 1096 624 q 1219 558 1219 624 l 1219 279 q 1242 153 1219 210 q 1322 97 1264 97 l 1407 97 q 1531 181 1501 97 q 1560 342 1560 264 q 1442 639 1560 539 q 1518 667 1472 667 q 1645 581 1606 667 q 1685 375 1685 494 q 1667 224 1685 297 q 1608 97 1649 151 l 1882 97 m 1154 1082 q 1206 1060 1185 1082 q 1228 1008 1228 1039 q 1206 956 1228 978 q 1154 935 1185 935 q 1102 956 1124 935 q 1081 1008 1081 978 q 1102 1060 1081 1039 q 1154 1082 1124 1082 m 1053 917 q 1109 893 1086 917 q 1132 838 1132 869 q 1109 781 1132 804 q 1053 757 1086 757 q 997 781 1021 757 q 974 838 974 804 q 997 893 974 869 q 1053 917 1021 917 m 1256 917 q 1312 893 1289 917 q 1335 838 1335 869 q 1312 781 1335 804 q 1256 757 1289 757 q 1200 781 1224 757 q 1176 838 1176 804 q 1200 893 1176 869 q 1256 917 1224 917 z "},"ﺸ":{"ha":1388,"x_min":0,"x_max":1388,"o":"m 1388 97 l 1388 0 l 1168 0 q 1092 9 1122 0 q 1038 36 1063 18 q 894 0 976 0 l 879 0 q 756 17 803 0 q 664 81 708 35 q 597 24 636 47 q 515 0 557 0 l 385 0 q 233 50 296 0 q 96 0 172 0 l 0 0 l 0 97 l 53 97 q 135 113 108 97 q 170 151 163 128 q 178 210 178 174 l 178 526 q 240 590 178 590 q 287 576 271 590 q 303 526 303 561 l 303 246 q 313 131 303 165 q 361 97 322 97 l 467 97 q 565 124 538 97 q 593 201 593 151 l 593 558 q 610 606 593 589 q 660 624 628 624 q 718 558 718 624 l 718 279 q 740 153 718 208 q 819 97 761 97 l 904 97 q 1028 178 1000 97 q 1057 333 1057 260 q 1034 499 1057 421 q 939 639 1011 578 q 1015 667 969 667 q 1142 581 1103 667 q 1182 375 1182 494 q 1106 97 1182 197 l 1388 97 m 660 1082 q 712 1060 690 1082 q 733 1008 733 1039 q 712 956 733 978 q 660 935 690 935 q 608 956 629 935 q 586 1008 586 978 q 608 1060 586 1039 q 660 1082 629 1082 m 558 917 q 615 893 592 917 q 638 838 638 869 q 615 781 638 804 q 558 757 592 757 q 503 781 526 757 q 479 838 479 804 q 503 893 479 869 q 558 917 526 917 m 761 917 q 817 893 794 917 q 840 838 840 869 q 817 781 840 804 q 761 757 794 757 q 706 781 729 757 q 682 838 682 804 q 706 893 682 869 q 761 917 729 917 z "},"ﺷ":{"ha":1272,"x_min":0,"x_max":1182,"o":"m 1015 667 q 1142 581 1103 667 q 1182 375 1182 494 q 1117 111 1182 222 q 894 0 1051 0 l 879 0 q 756 17 803 0 q 664 81 708 35 q 597 24 636 47 q 515 0 557 0 l 385 0 q 233 50 296 0 q 96 0 172 0 l 0 0 l 0 97 l 53 97 q 135 113 108 97 q 170 151 163 128 q 178 210 178 174 l 178 526 q 240 590 178 590 q 287 576 271 590 q 303 526 303 561 l 303 246 q 313 131 303 165 q 361 97 322 97 l 467 97 q 565 124 538 97 q 593 201 593 151 l 593 558 q 610 606 593 589 q 660 624 628 624 q 718 558 718 624 l 718 279 q 740 153 718 208 q 819 97 761 97 l 904 97 q 1028 178 1000 97 q 1057 333 1057 260 q 1034 499 1057 421 q 939 639 1011 578 q 1015 667 969 667 m 660 1082 q 712 1060 690 1082 q 733 1008 733 1039 q 712 956 733 978 q 660 935 690 935 q 608 956 629 935 q 586 1008 586 978 q 608 1060 586 1039 q 660 1082 629 1082 m 558 917 q 615 893 592 917 q 638 838 638 869 q 615 781 638 804 q 558 757 592 757 q 503 781 526 757 q 479 838 479 804 q 503 893 479 869 q 558 917 526 917 m 761 917 q 817 893 794 917 q 840 838 840 869 q 817 781 840 804 q 761 757 794 757 q 706 781 729 757 q 682 838 682 804 q 706 893 682 869 q 761 917 729 917 z "},"ص":{"ha":1554,"x_min":90,"x_max":1464,"o":"m 1090 667 q 1265 635 1181 667 q 1407 526 1350 603 q 1464 326 1464 450 q 1405 105 1464 210 q 1179 0 1346 0 l 804 0 q 751 -217 796 -140 q 633 -324 706 -294 q 460 -353 561 -353 q 200 -272 310 -353 q 90 56 90 -190 q 124 259 90 189 q 198 351 158 329 q 269 372 238 372 q 311 364 290 372 q 344 344 332 356 q 253 213 294 304 q 211 8 211 122 q 280 -206 211 -142 q 458 -269 349 -269 q 610 -222 561 -269 q 669 -109 658 -175 q 681 57 681 -43 l 681 435 q 659 506 681 469 q 611 564 638 542 q 646 585 624 575 q 693 594 668 594 q 779 549 749 594 q 907 631 824 594 q 1090 667 990 667 m 1125 97 q 1294 174 1250 97 q 1339 328 1339 250 q 1296 468 1339 414 q 1190 546 1253 522 q 1060 569 1126 569 q 903 535 975 569 q 804 464 832 501 q 806 438 806 456 l 806 97 l 1125 97 z "},"ﺺ":{"ha":1549,"x_min":90,"x_max":1549,"o":"m 1549 97 l 1549 0 l 1431 0 q 1313 28 1361 0 q 1179 0 1260 0 l 804 0 q 751 -217 796 -140 q 633 -324 706 -294 q 460 -353 561 -353 q 200 -272 310 -353 q 90 56 90 -190 q 124 259 90 189 q 198 351 158 329 q 269 372 238 372 q 311 364 290 372 q 344 344 332 356 q 253 213 294 304 q 211 8 211 122 q 280 -206 211 -142 q 458 -269 349 -269 q 610 -222 561 -269 q 669 -109 658 -175 q 681 57 681 -43 l 681 435 q 659 506 681 469 q 611 564 638 542 q 646 585 624 575 q 693 594 668 594 q 779 549 749 594 q 907 631 824 594 q 1090 667 990 667 q 1265 635 1181 667 q 1407 526 1350 603 q 1464 326 1464 450 q 1450 209 1464 271 q 1399 97 1436 147 l 1549 97 m 1125 97 q 1294 174 1250 97 q 1339 328 1339 250 q 1296 468 1339 414 q 1190 546 1253 522 q 1060 569 1126 569 q 903 535 975 569 q 804 464 832 501 q 806 438 806 456 l 806 97 l 1125 97 z "},"ﺼ":{"ha":1072,"x_min":0,"x_max":1072,"o":"m 1072 97 l 1072 0 l 908 0 q 781 33 833 0 q 635 0 721 0 l 0 0 l 0 97 l 136 97 l 136 435 q 115 506 136 469 q 67 564 93 542 q 101 585 79 575 q 149 594 124 594 q 235 549 204 594 q 363 631 279 594 q 546 667 446 667 q 721 635 636 667 q 863 526 806 603 q 919 326 919 450 q 906 209 919 271 q 854 97 892 147 l 1072 97 m 581 97 q 750 174 706 97 q 794 328 794 250 q 751 468 794 414 q 645 546 708 522 q 515 569 582 569 q 359 535 431 569 q 260 464 288 501 q 261 438 261 456 l 261 97 l 581 97 z "},"ﺻ":{"ha":1010,"x_min":0,"x_max":919,"o":"m 546 667 q 721 635 636 667 q 863 526 806 603 q 919 326 919 450 q 860 105 919 210 q 635 0 801 0 l 0 0 l 0 97 l 136 97 l 136 435 q 115 506 136 469 q 67 564 93 542 q 101 585 79 575 q 149 594 124 594 q 235 549 204 594 q 363 631 279 594 q 546 667 446 667 m 581 97 q 750 174 706 97 q 794 328 794 250 q 751 468 794 414 q 645 546 708 522 q 515 569 582 569 q 359 535 431 569 q 260 464 288 501 q 261 438 261 456 l 261 97 l 581 97 z "},"ض":{"ha":1554,"x_min":90,"x_max":1464,"o":"m 1090 667 q 1265 635 1181 667 q 1407 526 1350 603 q 1464 326 1464 450 q 1405 105 1464 210 q 1179 0 1346 0 l 804 0 q 751 -217 796 -140 q 633 -324 706 -294 q 460 -353 561 -353 q 200 -272 310 -353 q 90 56 90 -190 q 124 259 90 189 q 198 351 158 329 q 269 372 238 372 q 311 364 290 372 q 344 344 332 356 q 253 213 294 304 q 211 8 211 122 q 280 -206 211 -142 q 458 -269 349 -269 q 610 -222 561 -269 q 669 -109 658 -175 q 681 57 681 -43 l 681 435 q 659 506 681 469 q 611 564 638 542 q 646 585 624 575 q 693 594 668 594 q 779 549 749 594 q 907 631 824 594 q 1090 667 990 667 m 1125 97 q 1294 174 1250 97 q 1339 328 1339 250 q 1296 468 1339 414 q 1190 546 1253 522 q 1060 569 1126 569 q 903 535 975 569 q 804 464 832 501 q 806 438 806 456 l 806 97 l 1125 97 m 1096 757 q 1038 781 1061 757 q 1014 836 1014 804 q 1038 893 1014 869 q 1096 917 1061 917 q 1151 893 1128 917 q 1175 836 1175 869 q 1151 781 1175 804 q 1096 757 1128 757 z "},"ﺾ":{"ha":1549,"x_min":90,"x_max":1549,"o":"m 1549 97 l 1549 0 l 1431 0 q 1313 28 1361 0 q 1179 0 1260 0 l 804 0 q 751 -217 796 -140 q 633 -324 706 -294 q 460 -353 561 -353 q 200 -272 310 -353 q 90 56 90 -190 q 124 259 90 189 q 198 351 158 329 q 269 372 238 372 q 311 364 290 372 q 344 344 332 356 q 253 213 294 304 q 211 8 211 122 q 280 -206 211 -142 q 458 -269 349 -269 q 610 -222 561 -269 q 669 -109 658 -175 q 681 57 681 -43 l 681 435 q 659 506 681 469 q 611 564 638 542 q 646 585 624 575 q 693 594 668 594 q 779 549 749 594 q 907 631 824 594 q 1090 667 990 667 q 1265 635 1181 667 q 1407 526 1350 603 q 1464 326 1464 450 q 1450 209 1464 271 q 1399 97 1436 147 l 1549 97 m 1125 97 q 1294 174 1250 97 q 1339 328 1339 250 q 1296 468 1339 414 q 1190 546 1253 522 q 1060 569 1126 569 q 903 535 975 569 q 804 464 832 501 q 806 438 806 456 l 806 97 l 1125 97 m 1032 757 q 974 781 997 757 q 950 836 950 804 q 974 893 950 869 q 1032 917 997 917 q 1088 893 1064 917 q 1111 836 1111 869 q 1088 781 1111 804 q 1032 757 1064 757 z "},"ﻀ":{"ha":1072,"x_min":0,"x_max":1072,"o":"m 1072 97 l 1072 0 l 908 0 q 781 33 833 0 q 635 0 721 0 l 0 0 l 0 97 l 136 97 l 136 435 q 115 506 136 469 q 67 564 93 542 q 101 585 79 575 q 149 594 124 594 q 235 549 204 594 q 363 631 279 594 q 546 667 446 667 q 721 635 636 667 q 863 526 806 603 q 919 326 919 450 q 906 209 919 271 q 854 97 892 147 l 1072 97 m 581 97 q 750 174 706 97 q 794 328 794 250 q 751 468 794 414 q 645 546 708 522 q 515 569 582 569 q 359 535 431 569 q 260 464 288 501 q 261 438 261 456 l 261 97 l 581 97 m 551 757 q 493 781 517 757 q 469 836 469 804 q 493 893 469 869 q 551 917 517 917 q 607 893 583 917 q 631 836 631 869 q 607 781 631 804 q 551 757 583 757 z "},"ﺿ":{"ha":1010,"x_min":0,"x_max":919,"o":"m 546 667 q 721 635 636 667 q 863 526 806 603 q 919 326 919 450 q 860 105 919 210 q 635 0 801 0 l 0 0 l 0 97 l 136 97 l 136 435 q 115 506 136 469 q 67 564 93 542 q 101 585 79 575 q 149 594 124 594 q 235 549 204 594 q 363 631 279 594 q 546 667 446 667 m 581 97 q 750 174 706 97 q 794 328 794 250 q 751 468 794 414 q 645 546 708 522 q 515 569 582 569 q 359 535 431 569 q 260 464 288 501 q 261 438 261 456 l 261 97 l 581 97 m 551 757 q 493 781 517 757 q 469 836 469 804 q 493 893 469 869 q 551 917 517 917 q 607 893 583 917 q 631 836 631 869 q 607 781 631 804 q 551 757 583 757 z "},"ط":{"ha":1128,"x_min":28,"x_max":1038,"o":"m 668 667 q 844 627 760 667 q 983 506 929 588 q 1038 304 1038 425 q 969 88 1038 175 q 746 0 901 0 l 64 0 q 38 15 47 0 q 28 49 28 29 q 38 83 28 68 q 64 97 47 97 l 167 97 l 167 711 q 143 817 167 771 q 90 882 119 863 q 126 905 99 893 q 182 917 153 917 q 260 881 228 917 q 292 763 292 846 l 292 415 q 370 533 318 475 q 499 628 422 590 q 668 667 576 667 m 693 97 q 860 161 808 97 q 913 311 913 225 q 872 453 913 394 q 767 540 831 511 q 636 569 704 569 q 428 488 517 569 q 292 313 339 407 l 292 97 l 693 97 z "},"ﻂ":{"ha":1214,"x_min":28,"x_max":1214,"o":"m 1214 97 l 1214 0 l 1024 0 q 899 32 947 0 q 746 0 832 0 l 64 0 q 38 15 47 0 q 28 49 28 29 q 38 83 28 68 q 64 97 47 97 l 167 97 l 167 711 q 143 817 167 771 q 90 882 119 863 q 126 905 99 893 q 182 917 153 917 q 260 881 228 917 q 292 763 292 846 l 292 415 q 370 533 318 475 q 499 628 422 590 q 668 667 576 667 q 844 627 760 667 q 983 506 929 588 q 1038 304 1038 425 q 976 97 1038 175 l 1214 97 m 693 97 q 860 161 808 97 q 913 311 913 225 q 872 453 913 394 q 767 540 831 511 q 636 569 704 569 q 428 488 517 569 q 292 313 339 407 l 292 97 l 693 97 z "},"ﻄ":{"ha":1214,"x_min":0,"x_max":1214,"o":"m 1214 97 l 1214 0 l 1024 0 q 949 9 979 0 q 894 35 919 18 q 738 0 832 0 l 0 0 l 0 97 l 158 97 l 158 711 q 135 817 158 771 q 82 882 111 863 q 117 905 90 893 q 174 917 144 917 q 251 881 219 917 q 283 763 283 846 l 283 415 q 362 533 310 475 q 491 628 414 590 q 660 667 568 667 q 836 627 751 667 q 975 506 921 588 q 1029 304 1029 425 q 968 97 1029 175 l 1214 97 m 685 97 q 852 161 800 97 q 904 311 904 225 q 863 453 904 394 q 759 540 822 511 q 628 569 696 569 q 419 488 508 569 q 283 313 331 407 l 283 97 l 685 97 z "},"ﻃ":{"ha":1119,"x_min":0,"x_max":1029,"o":"m 660 667 q 836 627 751 667 q 975 506 921 588 q 1029 304 1029 425 q 961 88 1029 175 q 738 0 893 0 l 0 0 l 0 97 l 158 97 l 158 711 q 135 817 158 771 q 82 882 111 863 q 117 905 90 893 q 174 917 144 917 q 251 881 219 917 q 283 763 283 846 l 283 415 q 362 533 310 475 q 491 628 414 590 q 660 667 568 667 m 685 97 q 852 161 800 97 q 904 311 904 225 q 863 453 904 394 q 759 540 822 511 q 628 569 696 569 q 419 488 508 569 q 283 313 331 407 l 283 97 l 685 97 z "},"ظ":{"ha":1128,"x_min":28,"x_max":1038,"o":"m 668 667 q 844 627 760 667 q 983 506 929 588 q 1038 304 1038 425 q 969 88 1038 175 q 746 0 901 0 l 64 0 q 38 15 47 0 q 28 49 28 29 q 38 83 28 68 q 64 97 47 97 l 167 97 l 167 711 q 143 817 167 771 q 90 882 119 863 q 126 905 99 893 q 182 917 153 917 q 260 881 228 917 q 292 763 292 846 l 292 415 q 370 533 318 475 q 499 628 422 590 q 668 667 576 667 m 693 97 q 860 161 808 97 q 913 311 913 225 q 872 453 913 394 q 767 540 831 511 q 636 569 704 569 q 428 488 517 569 q 292 313 339 407 l 292 97 l 693 97 m 579 757 q 521 781 544 757 q 497 836 497 804 q 521 893 497 869 q 579 917 544 917 q 635 893 611 917 q 658 836 658 869 q 635 781 658 804 q 579 757 611 757 z "},"ﻆ":{"ha":1214,"x_min":28,"x_max":1214,"o":"m 1214 97 l 1214 0 l 1024 0 q 899 32 947 0 q 746 0 832 0 l 64 0 q 38 15 47 0 q 28 49 28 29 q 38 83 28 68 q 64 97 47 97 l 167 97 l 167 711 q 143 817 167 771 q 90 882 119 863 q 126 905 99 893 q 182 917 153 917 q 260 881 228 917 q 292 763 292 846 l 292 415 q 370 533 318 475 q 499 628 422 590 q 668 667 576 667 q 844 627 760 667 q 983 506 929 588 q 1038 304 1038 425 q 976 97 1038 175 l 1214 97 m 693 97 q 860 161 808 97 q 913 311 913 225 q 872 453 913 394 q 767 540 831 511 q 636 569 704 569 q 428 488 517 569 q 292 313 339 407 l 292 97 l 693 97 m 579 757 q 521 781 544 757 q 497 836 497 804 q 521 893 497 869 q 579 917 544 917 q 635 893 611 917 q 658 836 658 869 q 635 781 658 804 q 579 757 611 757 z "},"ﻈ":{"ha":1214,"x_min":0,"x_max":1214,"o":"m 1214 97 l 1214 0 l 1024 0 q 949 9 979 0 q 894 35 919 18 q 738 0 832 0 l 0 0 l 0 97 l 158 97 l 158 711 q 135 817 158 771 q 82 882 111 863 q 117 905 90 893 q 174 917 144 917 q 251 881 219 917 q 283 763 283 846 l 283 415 q 362 533 310 475 q 491 628 414 590 q 660 667 568 667 q 836 627 751 667 q 975 506 921 588 q 1029 304 1029 425 q 968 97 1029 175 l 1214 97 m 685 97 q 852 161 800 97 q 904 311 904 225 q 863 453 904 394 q 759 540 822 511 q 628 569 696 569 q 419 488 508 569 q 283 313 331 407 l 283 97 l 685 97 m 542 757 q 483 781 507 757 q 460 836 460 804 q 483 893 460 869 q 542 917 507 917 q 597 893 574 917 q 621 836 621 869 q 597 781 621 804 q 542 757 574 757 z "},"ﻇ":{"ha":1119,"x_min":0,"x_max":1029,"o":"m 660 667 q 836 627 751 667 q 975 506 921 588 q 1029 304 1029 425 q 961 88 1029 175 q 738 0 893 0 l 0 0 l 0 97 l 158 97 l 158 711 q 135 817 158 771 q 82 882 111 863 q 117 905 90 893 q 174 917 144 917 q 251 881 219 917 q 283 763 283 846 l 283 415 q 362 533 310 475 q 491 628 414 590 q 660 667 568 667 m 685 97 q 852 161 800 97 q 904 311 904 225 q 863 453 904 394 q 759 540 822 511 q 628 569 696 569 q 419 488 508 569 q 283 313 331 407 l 283 97 l 685 97 m 543 757 q 485 781 508 757 q 461 836 461 804 q 485 893 461 869 q 543 917 508 917 q 599 893 575 917 q 622 836 622 869 q 599 781 622 804 q 543 757 575 757 z "},"ع":{"ha":767,"x_min":90,"x_max":676,"o":"m 639 97 q 667 82 658 97 q 676 49 676 67 q 667 15 676 31 q 639 0 658 0 l 214 0 q 240 -203 214 -115 q 333 -346 267 -290 q 299 -362 324 -354 q 251 -369 275 -369 q 156 -318 192 -369 q 105 -199 119 -267 q 90 -81 90 -132 q 134 54 90 15 q 238 96 178 93 q 173 199 201 135 q 144 351 144 263 q 176 506 144 435 q 275 622 207 578 q 449 667 343 667 q 598 631 540 667 q 656 522 656 596 q 636 458 656 479 q 588 436 617 436 q 546 443 569 436 q 519 527 546 501 q 436 569 493 553 q 316 513 364 569 q 268 361 268 456 q 338 170 268 243 q 551 97 408 97 l 639 97 m 475 565 l 467 567 l 475 565 z "},"ﻊ":{"ha":857,"x_min":100,"x_max":857,"o":"m 857 97 l 857 0 l 657 0 q 585 8 613 0 q 517 0 554 0 l 393 0 l 286 0 q 313 -203 286 -115 q 406 -346 339 -290 q 372 -362 396 -354 q 324 -369 347 -369 q 228 -318 264 -369 q 177 -199 192 -267 q 163 -76 163 -131 q 332 97 163 97 l 408 97 l 100 517 q 149 586 111 551 q 252 644 188 621 q 404 667 317 667 q 677 585 572 667 q 782 351 782 503 q 765 222 782 292 q 710 97 749 151 l 857 97 m 406 568 q 232 510 289 568 l 529 108 q 629 205 600 135 q 658 346 658 275 q 591 512 658 456 q 406 568 524 568 z "},"ﻌ":{"ha":793,"x_min":0,"x_max":793,"o":"m 793 97 l 793 0 l 593 0 q 519 8 549 0 q 453 0 489 0 l 0 0 l 0 97 l 344 97 l 36 517 q 85 586 47 551 q 188 644 124 621 q 340 667 253 667 q 613 585 508 667 q 718 351 718 503 q 701 224 718 296 q 643 97 683 153 l 793 97 m 342 568 q 168 510 225 568 l 464 110 q 565 209 535 136 q 594 350 594 282 q 527 512 594 456 q 342 568 460 568 z "},"ﻋ":{"ha":714,"x_min":0,"x_max":624,"o":"m 586 97 q 615 82 606 97 q 624 49 624 67 q 615 15 624 31 q 586 0 606 0 l 390 0 q 315 9 344 0 q 260 36 285 18 q 144 0 210 4 l 0 0 l 0 99 l 193 99 q 123 194 154 133 q 92 349 92 254 q 166 575 92 483 q 396 667 240 667 q 545 631 488 667 q 603 521 603 596 q 583 457 603 478 q 531 436 563 436 q 493 443 514 436 q 467 527 493 501 q 383 569 440 553 q 263 513 311 569 q 215 361 215 456 q 285 170 215 243 q 499 97 356 97 l 586 97 m 422 565 l 414 567 l 422 565 z "},"غ":{"ha":767,"x_min":90,"x_max":676,"o":"m 639 97 q 667 82 658 97 q 676 49 676 67 q 667 15 676 31 q 639 0 658 0 l 214 0 q 240 -203 214 -115 q 333 -346 267 -290 q 299 -362 324 -354 q 251 -369 275 -369 q 156 -318 192 -369 q 105 -199 119 -267 q 90 -81 90 -132 q 134 54 90 15 q 238 96 178 93 q 173 199 201 135 q 144 351 144 263 q 176 506 144 435 q 275 622 207 578 q 449 667 343 667 q 598 631 540 667 q 656 522 656 596 q 636 458 656 479 q 588 436 617 436 q 546 443 569 436 q 519 527 546 501 q 436 569 493 553 q 316 513 364 569 q 268 361 268 456 q 338 170 268 243 q 551 97 408 97 l 639 97 m 475 565 l 467 567 l 475 565 m 410 757 q 351 781 375 757 q 328 836 328 804 q 351 893 328 869 q 410 917 375 917 q 465 893 442 917 q 489 836 489 869 q 465 781 489 804 q 410 757 442 757 z "},"ﻎ":{"ha":857,"x_min":100,"x_max":857,"o":"m 857 97 l 857 0 l 657 0 q 585 8 613 0 q 517 0 554 0 l 393 0 l 286 0 q 313 -203 286 -115 q 406 -346 339 -290 q 372 -362 396 -354 q 324 -369 347 -369 q 228 -318 264 -369 q 177 -199 192 -267 q 163 -76 163 -131 q 332 97 163 97 l 408 97 l 100 517 q 149 586 111 551 q 252 644 188 621 q 404 667 317 667 q 677 585 572 667 q 782 351 782 503 q 765 222 782 292 q 710 97 749 151 l 857 97 m 406 568 q 232 510 289 568 l 529 108 q 629 205 600 135 q 658 346 658 275 q 591 512 658 456 q 406 568 524 568 m 460 757 q 401 781 425 757 q 378 836 378 804 q 401 893 378 869 q 460 917 425 917 q 515 893 492 917 q 539 836 539 869 q 515 781 539 804 q 460 757 492 757 z "},"ﻐ":{"ha":793,"x_min":0,"x_max":793,"o":"m 793 97 l 793 0 l 593 0 q 519 8 549 0 q 453 0 489 0 l 0 0 l 0 97 l 344 97 l 36 517 q 85 586 47 551 q 188 644 124 621 q 340 667 253 667 q 613 585 508 667 q 718 351 718 503 q 701 224 718 296 q 643 97 683 153 l 793 97 m 342 568 q 168 510 225 568 l 464 110 q 565 209 535 136 q 594 350 594 282 q 527 512 594 456 q 342 568 460 568 m 396 757 q 338 781 361 757 q 314 836 314 804 q 338 893 314 869 q 396 917 361 917 q 451 893 428 917 q 475 836 475 869 q 451 781 475 804 q 396 757 428 757 z "},"ﻏ":{"ha":714,"x_min":0,"x_max":624,"o":"m 586 97 q 615 82 606 97 q 624 49 624 67 q 615 15 624 31 q 586 0 606 0 l 390 0 q 315 9 344 0 q 260 36 285 18 q 144 0 210 4 l 0 0 l 0 99 l 193 99 q 123 194 154 133 q 92 349 92 254 q 166 575 92 483 q 396 667 240 667 q 545 631 488 667 q 603 521 603 596 q 583 457 603 478 q 531 436 563 436 q 493 443 514 436 q 467 527 493 501 q 383 569 440 553 q 263 513 311 569 q 215 361 215 456 q 285 170 215 243 q 499 97 356 97 l 586 97 m 422 565 l 414 567 l 422 565 m 358 757 q 300 781 324 757 q 276 836 276 804 q 300 893 276 869 q 358 917 324 917 q 414 893 390 917 q 438 836 438 869 q 414 781 438 804 q 358 757 390 757 z "},"ف":{"ha":1329,"x_min":90,"x_max":1239,"o":"m 978 667 q 1128 644 1074 667 q 1211 557 1183 621 q 1239 369 1239 493 l 1239 196 q 1196 54 1239 108 q 1058 0 1153 0 l 360 0 q 213 39 274 0 q 122 143 153 78 q 90 288 90 208 q 130 451 90 382 q 232 519 169 519 q 300 494 268 519 q 240 412 264 469 q 215 274 215 354 q 242 156 215 194 q 306 107 269 117 q 388 97 342 97 l 775 97 q 724 208 739 150 q 708 346 708 267 q 742 552 708 482 q 833 644 776 622 q 978 667 890 667 m 1114 417 q 1082 537 1114 503 q 992 571 1050 571 q 833 349 833 571 q 861 183 833 269 q 974 97 889 97 l 999 97 q 1090 128 1065 97 q 1114 236 1114 158 l 1114 417 m 1006 757 q 947 781 971 757 q 924 836 924 804 q 947 893 924 869 q 1006 917 971 917 q 1061 893 1038 917 q 1085 836 1085 869 q 1061 781 1085 804 q 1006 757 1038 757 z "},"ﻒ":{"ha":1365,"x_min":90,"x_max":1365,"o":"m 1365 97 l 1365 0 l 1226 0 q 1138 14 1175 0 q 1058 0 1106 0 l 360 0 q 213 39 274 0 q 122 143 153 78 q 90 288 90 208 q 130 451 90 382 q 232 519 169 519 q 300 494 268 519 q 240 412 264 469 q 215 274 215 354 q 242 156 215 194 q 306 107 269 117 q 388 97 342 97 l 775 97 q 724 208 739 150 q 708 346 708 267 q 742 552 708 482 q 833 644 776 622 q 978 667 890 667 q 1128 644 1074 667 q 1211 557 1183 621 q 1239 369 1239 493 l 1239 196 q 1221 97 1239 139 l 1365 97 m 999 97 q 1090 128 1065 97 q 1114 236 1114 158 l 1114 417 q 1082 537 1114 503 q 992 571 1050 571 q 833 349 833 571 q 861 183 833 269 q 974 97 889 97 l 999 97 m 1006 757 q 947 781 971 757 q 924 836 924 804 q 947 893 924 869 q 1006 917 971 917 q 1061 893 1038 917 q 1085 836 1085 869 q 1061 781 1085 804 q 1006 757 1038 757 z "},"ﻔ":{"ha":775,"x_min":0,"x_max":775,"o":"m 775 97 l 775 0 l 636 0 q 546 13 582 0 q 468 0 513 0 l 0 0 l 0 97 l 185 97 q 133 208 149 150 q 118 346 118 267 q 152 552 118 482 q 243 644 186 622 q 388 667 300 667 q 538 644 483 667 q 621 557 593 621 q 649 369 649 493 l 649 196 q 631 97 649 139 l 775 97 m 408 97 q 499 128 475 97 q 524 236 524 158 l 524 417 q 492 537 524 503 q 401 571 460 571 q 243 349 243 571 q 270 180 243 263 q 383 97 297 97 l 408 97 m 415 757 q 357 781 381 757 q 333 836 333 804 q 357 893 333 869 q 415 917 381 917 q 471 893 447 917 q 494 836 494 869 q 471 781 494 804 q 415 757 447 757 z "},"ﻓ":{"ha":739,"x_min":0,"x_max":649,"o":"m 388 667 q 538 644 483 667 q 621 557 593 621 q 649 369 649 493 l 649 196 q 606 54 649 108 q 468 0 563 0 l 0 0 l 0 97 l 185 97 q 133 208 149 150 q 118 346 118 267 q 152 552 118 482 q 243 644 186 622 q 388 667 300 667 m 524 417 q 492 537 524 503 q 401 571 460 571 q 243 349 243 571 q 270 180 243 263 q 383 97 297 97 l 408 97 q 499 128 475 97 q 524 236 524 158 l 524 417 m 415 757 q 357 781 381 757 q 333 836 333 804 q 357 893 333 869 q 415 917 381 917 q 471 893 447 917 q 494 836 494 869 q 471 781 494 804 q 415 757 447 757 z "},"ڤ":{"ha":1329,"x_min":90,"x_max":1239,"o":"m 978 667 q 1128 644 1074 667 q 1211 557 1183 621 q 1239 369 1239 493 l 1239 196 q 1196 54 1239 108 q 1058 0 1153 0 l 360 0 q 213 39 274 0 q 122 143 153 78 q 90 288 90 208 q 130 451 90 382 q 232 519 169 519 q 300 494 268 519 q 240 412 264 469 q 215 274 215 354 q 242 156 215 194 q 306 107 269 117 q 388 97 342 97 l 775 97 q 724 208 739 150 q 708 346 708 267 q 742 552 708 482 q 833 644 776 622 q 978 667 890 667 m 1114 417 q 1082 537 1114 503 q 992 571 1050 571 q 833 349 833 571 q 861 183 833 269 q 974 97 889 97 l 999 97 q 1090 128 1065 97 q 1114 236 1114 158 l 1114 417 m 1004 1082 q 1056 1060 1035 1082 q 1078 1008 1078 1039 q 1056 956 1078 978 q 1004 935 1035 935 q 952 956 974 935 q 931 1008 931 978 q 952 1060 931 1039 q 1004 1082 974 1082 m 903 917 q 959 893 936 917 q 982 838 982 869 q 959 781 982 804 q 903 757 936 757 q 847 781 871 757 q 824 838 824 804 q 847 893 824 869 q 903 917 871 917 m 1106 917 q 1162 893 1139 917 q 1185 838 1185 869 q 1162 781 1185 804 q 1106 757 1139 757 q 1050 781 1074 757 q 1026 838 1026 804 q 1050 893 1026 869 q 1106 917 1074 917 z "},"ﭫ":{"ha":1365,"x_min":90,"x_max":1365,"o":"m 1365 97 l 1365 0 l 1226 0 q 1138 14 1175 0 q 1058 0 1106 0 l 360 0 q 213 39 274 0 q 122 143 153 78 q 90 288 90 208 q 130 451 90 382 q 232 519 169 519 q 300 494 268 519 q 240 412 264 469 q 215 274 215 354 q 242 156 215 194 q 306 107 269 117 q 388 97 342 97 l 775 97 q 724 208 739 150 q 708 346 708 267 q 742 552 708 482 q 833 644 776 622 q 978 667 890 667 q 1128 644 1074 667 q 1211 557 1183 621 q 1239 369 1239 493 l 1239 196 q 1221 97 1239 139 l 1365 97 m 999 97 q 1090 128 1065 97 q 1114 236 1114 158 l 1114 417 q 1082 537 1114 503 q 992 571 1050 571 q 833 349 833 571 q 861 183 833 269 q 974 97 889 97 l 999 97 m 1004 1082 q 1056 1060 1035 1082 q 1078 1008 1078 1039 q 1056 956 1078 978 q 1004 935 1035 935 q 952 956 974 935 q 931 1008 931 978 q 952 1060 931 1039 q 1004 1082 974 1082 m 903 917 q 959 893 936 917 q 982 838 982 869 q 959 781 982 804 q 903 757 936 757 q 847 781 871 757 q 824 838 824 804 q 847 893 824 869 q 903 917 871 917 m 1106 917 q 1162 893 1139 917 q 1185 838 1185 869 q 1162 781 1185 804 q 1106 757 1139 757 q 1050 781 1074 757 q 1026 838 1026 804 q 1050 893 1026 869 q 1106 917 1074 917 z "},"ﭭ":{"ha":775,"x_min":0,"x_max":775,"o":"m 775 97 l 775 0 l 636 0 q 546 13 582 0 q 468 0 513 0 l 0 0 l 0 97 l 185 97 q 133 208 149 150 q 118 346 118 267 q 152 552 118 482 q 243 644 186 622 q 388 667 300 667 q 538 644 483 667 q 621 557 593 621 q 649 369 649 493 l 649 196 q 631 97 649 139 l 775 97 m 408 97 q 499 128 475 97 q 524 236 524 158 l 524 417 q 492 537 524 503 q 401 571 460 571 q 243 349 243 571 q 270 180 243 263 q 383 97 297 97 l 408 97 m 414 1082 q 466 1060 444 1082 q 488 1008 488 1039 q 466 956 488 978 q 414 935 444 935 q 362 956 383 935 q 340 1008 340 978 q 362 1060 340 1039 q 414 1082 383 1082 m 313 917 q 369 893 346 917 q 392 838 392 869 q 369 781 392 804 q 313 757 346 757 q 257 781 281 757 q 233 838 233 804 q 257 893 233 869 q 313 917 281 917 m 515 917 q 572 893 549 917 q 594 838 594 869 q 572 781 594 804 q 515 757 549 757 q 460 781 483 757 q 436 838 436 804 q 460 893 436 869 q 515 917 483 917 z "}}}
